<?xml version="1.0" standalone="no"?>
<!DOCTYPE svg PUBLIC "-//W3C//DTD SVG 20010904//EN"
 "http://www.w3.org/TR/2001/REC-SVG-20010904/DTD/svg10.dtd">
<svg version="1.0" xmlns="http://www.w3.org/2000/svg"
 width="1200.000000pt" height="1200.000000pt" viewBox="0 0 1200.000000 1200.000000"
 preserveAspectRatio="xMidYMid meet">

<g transform="translate(0.000000,1200.000000) scale(0.100000,-0.100000)"
fill="#000000" stroke="none">
<path d="M0 6000 l0 -6000 6000 0 6000 0 0 6000 0 6000 -6000 0 -6000 0 0
-6000z m6303 5643 c-7 -2 -19 -2 -25 0 -7 3 -2 5 12 5 14 0 19 -2 13 -5z m220
0 c-7 -2 -21 -2 -30 0 -10 3 -4 5 12 5 17 0 24 -2 18 -5z m-286 -9 c-3 -3 -12
-4 -19 -1 -8 3 -5 6 6 6 11 1 17 -2 13 -5z m346 -1 c-7 -2 -19 -2 -25 0 -7 3
-2 5 12 5 14 0 19 -2 13 -5z m-438 -23 c-27 -12 -43 -12 -25 0 8 5 22 9 30 9
10 0 8 -3 -5 -9z m-65 -25 c0 -2 -10 -9 -22 -15 -22 -11 -22 -10 -4 4 21 17
26 19 26 11z m-83 -52 c-9 -10 -31 -27 -49 -37 -40 -23 -35 -17 17 23 46 34
54 38 32 14z m-92 -71 c-53 -42 -60 -46 -33 -19 16 15 31 27 35 27 4 0 3 -3
-2 -8z m-87 -72 c-7 -10 -14 -17 -17 -15 -4 4 18 35 25 35 2 0 -1 -9 -8 -20z
m-68 -89 c-5 -11 -15 -23 -21 -27 -6 -3 -3 5 6 20 20 30 30 35 15 7z m-99
-139 c-5 -10 -18 -25 -27 -33 -11 -9 -9 -2 6 19 26 35 36 42 21 14z m-51 -55
c0 -2 -15 -16 -32 -33 l-33 -29 29 33 c28 30 36 37 36 29z m-70 -60 c0 -2 -15
-16 -32 -33 l-33 -29 29 33 c28 30 36 37 36 29z m-75 -66 c-3 -5 -24 -24 -48
-41 l-42 -32 45 41 c46 41 56 48 45 32z m-95 -76 c0 -2 -10 -9 -22 -15 -22
-11 -22 -10 -4 4 21 17 26 19 26 11z m-830 -139 c0 -2 -7 -7 -16 -10 -8 -3
-12 -2 -9 4 6 10 25 14 25 6z m-105 -78 c-48 -54 -63 -69 -45 -43 18 25 73 85
78 85 2 0 -13 -19 -33 -42z m190 -818 c10 -11 16 -20 13 -20 -3 0 -13 9 -23
20 -10 11 -16 20 -13 20 3 0 13 -9 23 -20z m155 -127 c6 -7 6 -14 1 -18 -5 -3
-12 4 -16 15 -3 11 -18 35 -32 53 -23 29 -22 29 6 -3 18 -19 36 -40 41 -47z
m24 -31 c3 -5 -1 -9 -9 -9 -8 0 -12 4 -9 9 3 4 7 8 9 8 2 0 6 -4 9 -8z m-64
-56 c0 -12 -14 5 -31 39 -8 16 -6 15 10 -4 12 -13 21 -28 21 -35z m-325 14
c10 -11 16 -20 13 -20 -3 0 -13 9 -23 20 -10 11 -16 20 -13 20 3 0 13 -9 23
-20z m54 -61 c11 -19 12 -21 0 -9 -8 8 -21 21 -29 29 -12 11 -12 12 -1 9 8 -2
21 -15 30 -29z m401 -13 c0 -2 -7 -6 -15 -10 -8 -3 -15 -1 -15 4 0 6 7 10 15
10 8 0 15 -2 15 -4z m-220 -179 c0 -2 -9 -12 -20 -22 -24 -21 -27 -14 -4 9 15
15 24 20 24 13z m0 -302 c0 -7 15 -28 32 -46 25 -25 27 -29 10 -20 -13 7 -32
27 -42 44 -22 35 -26 52 -10 42 6 -3 10 -12 10 -20z m-70 -83 c0 -15 -2 -15
-10 -2 -13 20 -13 33 0 25 6 -3 10 -14 10 -23z m-815 -77 c-5 -2 -77 -5 -160
-7 -82 -2 -132 -1 -110 2 40 7 289 11 270 5z m78 -12 c-7 -2 -21 -2 -30 0 -10
3 -4 5 12 5 17 0 24 -2 18 -5z m-410 -10 c-7 -2 -19 -2 -25 0 -7 3 -2 5 12 5
14 0 19 -2 13 -5z m454 1 c-3 -3 -12 -4 -19 -1 -8 3 -5 6 6 6 11 1 17 -2 13
-5z m-517 -14 c-34 -11 -60 -11 -35 0 11 5 29 8 40 8 16 0 15 -2 -5 -8z m563
3 c-7 -2 -19 -2 -25 0 -7 3 -2 5 12 5 14 0 19 -2 13 -5z m-688 -37 c-108 -35
-188 -74 -212 -104 -17 -20 -21 -22 -16 -8 6 19 6 19 -23 -1 -16 -11 -33 -22
-39 -24 -5 -2 -9 -8 -7 -12 1 -5 -2 -6 -7 -2 -25 15 -209 -144 -194 -168 3 -5
1 -7 -4 -4 -14 9 -55 -61 -49 -82 3 -9 1 -23 -5 -31 -9 -12 -10 -12 -5 4 4 10
2 24 -4 31 -22 27 107 172 220 247 117 77 346 179 400 177 8 0 -16 -11 -55
-23z m782 18 c-3 -3 -12 -4 -19 -1 -8 3 -5 6 6 6 11 1 17 -2 13 -5z m40 -10
c-3 -3 -12 -4 -19 -1 -8 3 -5 6 6 6 11 1 17 -2 13 -5z m50 -10 c-3 -3 -12 -4
-19 -1 -8 3 -5 6 6 6 11 1 17 -2 13 -5z m46 -11 c-7 -2 -19 -2 -25 0 -7 3 -2
5 12 5 14 0 19 -2 13 -5z m-96 -9 c-3 -3 -12 -4 -19 -1 -8 3 -5 6 6 6 11 1 17
-2 13 -5z m176 -1 c-7 -2 -21 -2 -30 0 -10 3 -4 5 12 5 17 0 24 -2 18 -5z
m-120 -10 c-7 -2 -19 -2 -25 0 -7 3 -2 5 12 5 14 0 19 -2 13 -5z m190 0 c-7
-2 -21 -2 -30 0 -10 3 -4 5 12 5 17 0 24 -2 18 -5z m60 0 c-7 -2 -21 -2 -30 0
-10 3 -4 5 12 5 17 0 24 -2 18 -5z m95 -5 c-17 -6 -34 -6 -44 0 -12 7 -5 9 27
9 40 0 41 -1 17 -9z m-270 -5 c-10 -2 -26 -2 -35 0 -10 3 -2 5 17 5 19 0 27
-2 18 -5z m85 -10 c-7 -2 -21 -2 -30 0 -10 3 -4 5 12 5 17 0 24 -2 18 -5z m75
0 c-10 -2 -26 -2 -35 0 -10 3 -2 5 17 5 19 0 27 -2 18 -5z m-1068 -47 c0 -2
-7 -7 -16 -10 -8 -3 -12 -2 -9 4 6 10 25 14 25 6z m408 -3 c-10 -2 -28 -2 -40
0 -13 2 -5 4 17 4 22 1 32 -1 23 -4z m192 -3 c0 -5 -10 -10 -22 -10 -19 0 -20
2 -8 10 19 13 30 13 30 0z m45 0 c19 -8 19 -9 -2 -9 -12 -1 -25 4 -28 9 -7 12
2 12 30 0z m765 -3 c0 -2 -10 -12 -22 -23 l-23 -19 19 23 c18 21 26 27 26 19z
m-1150 -17 c-34 -11 -60 -11 -35 0 11 5 29 8 40 8 16 0 15 -2 -5 -8z m-365
-30 c-16 -11 -34 -20 -40 -20 -12 0 46 38 60 39 6 1 -3 -8 -20 -19z m-145 -47
c0 -27 9 -29 36 -8 10 8 24 14 29 15 6 0 -21 -20 -58 -45 -87 -57 -100 -64
-59 -30 28 23 32 33 32 73 0 34 3 43 10 32 5 -8 10 -25 10 -37z m330 23 c-14
-7 -36 -16 -50 -20 -14 -3 -7 3 15 13 45 22 73 27 35 7z m1460 0 c0 -2 -8 -10
-17 -17 -16 -13 -17 -12 -4 4 13 16 21 21 21 13z m-1540 -31 c0 -2 -13 -11
-30 -20 -38 -19 -40 -11 -2 9 31 17 32 18 32 11z m1073 -2 c-7 -2 -21 -2 -30
0 -10 3 -4 5 12 5 17 0 24 -2 18 -5z m-706 -9 c-3 -3 -12 -4 -19 -1 -8 3 -5 6
6 6 11 1 17 -2 13 -5z m201 -1 c-21 -2 -57 -2 -80 0 -24 2 -7 4 37 4 44 0 63
-2 43 -4z m255 0 c-35 -2 -91 -2 -125 0 -35 2 -7 3 62 3 69 0 97 -1 63 -3z
m125 0 c-10 -2 -28 -2 -40 0 -13 2 -5 4 17 4 22 1 32 -1 23 -4z m-1018 -27 c0
-2 -16 -14 -36 -25 -83 -49 -164 -134 -156 -163 1 -4 -5 -5 -13 -2 -10 4 -20
-5 -30 -27 -8 -19 -27 -47 -41 -64 l-26 -30 28 55 c34 65 137 174 213 224 52
35 61 40 61 32z m-270 -55 c0 -5 -12 -16 -27 -26 l-28 -17 25 25 c28 29 30 30
30 18z m937 -48 c-20 -2 -52 -2 -70 0 -17 2 0 4 38 4 39 0 53 -2 32 -4z m120
1 c-3 -3 -12 -4 -19 -1 -8 3 -5 6 6 6 11 1 17 -2 13 -5z m96 -1 c-7 -2 -19 -2
-25 0 -7 3 -2 5 12 5 14 0 19 -2 13 -5z m-1213 -7 c0 -2 -8 -10 -17 -17 -16
-13 -17 -12 -4 4 13 16 21 21 21 13z m817 -2 c-3 -3 -12 -4 -19 -1 -8 3 -5 6
6 6 11 1 17 -2 13 -5z m-54 -11 c-7 -2 -21 -2 -30 0 -10 3 -4 5 12 5 17 0 24
-2 18 -5z m-803 -43 c-6 -11 -13 -20 -16 -20 -2 0 0 9 6 20 6 11 13 20 16 20
2 0 0 -9 -6 -20z m-198 -34 c-28 -47 -74 -175 -66 -187 3 -5 1 -9 -3 -9 -5 0
-15 -30 -22 -67 -7 -38 -17 -90 -22 -118 -24 -123 -29 -271 -15 -415 11 -111
13 -124 14 -138 1 -7 6 -11 10 -8 5 3 9 -14 9 -37 0 -23 7 -55 16 -71 l15 -28
7 55 c4 30 4 64 0 76 -3 12 -2 21 3 21 9 0 28 -278 19 -286 -7 -7 -54 117 -76
200 -45 172 -52 453 -17 649 27 145 125 422 143 403 3 -3 -4 -21 -15 -40z
m838 34 c-8 -5 -19 -10 -25 -10 -5 0 -3 5 5 10 8 5 20 10 25 10 6 0 3 -5 -5
-10z m-682 -75 c-12 -24 -23 -43 -26 -41 -4 5 36 86 43 86 3 0 -5 -20 -17 -45z
m520 -10 c-16 -13 -34 -28 -40 -32 -7 -4 -30 -27 -50 -51 -21 -23 -38 -40 -38
-37 0 10 78 104 82 100 2 -2 17 7 33 20 39 31 48 32 13 0z m-348 -46 c0 -5 -4
-9 -10 -9 -5 0 -10 7 -10 16 0 8 5 12 10 9 6 -3 10 -10 10 -16z m-209 -26
c-12 -20 -14 -14 -5 12 4 9 9 14 11 11 3 -2 0 -13 -6 -23z m129 -49 c-10 -27
-19 -43 -20 -37 0 16 31 95 36 90 2 -2 -5 -25 -16 -53z m259 -71 c-19 -32 -44
-83 -56 -113 -12 -30 -22 -50 -22 -45 -2 29 97 231 107 220 2 -2 -11 -30 -29
-62z m-472 35 c-3 -8 -6 -5 -6 6 -1 11 2 17 5 13 3 -3 4 -12 1 -19z m190 -40
c-3 -8 -6 -5 -6 6 -1 11 2 17 5 13 3 -3 4 -12 1 -19z m4062 -74 c22 -21 30
-34 22 -38 -6 -4 -10 -3 -9 3 2 5 -18 29 -43 53 -25 24 -36 36 -25 28 11 -8
36 -29 55 -46z m-3972 9 c-3 -10 -5 -4 -5 12 0 17 2 24 5 18 2 -7 2 -21 0 -30z
m-110 -25 c-3 -7 -5 -2 -5 12 0 14 2 19 5 13 2 -7 2 -19 0 -25z m-140 -30 c-3
-8 -6 -5 -6 6 -1 11 2 17 5 13 3 -3 4 -12 1 -19z m130 -35 c-3 -10 -5 -4 -5
12 0 17 2 24 5 18 2 -7 2 -21 0 -30z m4203 -18 c13 -14 21 -25 18 -25 -2 0
-15 11 -28 25 -13 14 -21 25 -18 25 2 0 15 -11 28 -25z m-3976 -34 c-4 -17 -9
-30 -11 -27 -3 2 -2 19 2 36 9 41 17 33 9 -9z m-107 -13 c-3 -7 -5 -2 -5 12 0
14 2 19 5 13 2 -7 2 -19 0 -25z m-260 -10 c-3 -7 -5 -2 -5 12 0 14 2 19 5 13
2 -7 2 -19 0 -25z m3536 15 c-7 -2 -19 -2 -25 0 -7 3 -2 5 12 5 14 0 19 -2 13
-5z m-3186 -65 c-3 -7 -5 -2 -5 12 0 14 2 19 5 13 2 -7 2 -19 0 -25z m-220
-55 c-2 -16 -4 -5 -4 22 0 28 2 40 4 28 2 -13 2 -35 0 -50z m160 45 c-3 -8 -6
-5 -6 6 -1 11 2 17 5 13 3 -3 4 -12 1 -19z m3061 -5 c-10 -2 -26 -2 -35 0 -10
3 -2 5 17 5 19 0 27 -2 18 -5z m-3361 -50 c-3 -10 -5 -2 -5 17 0 19 2 27 5 18
2 -10 2 -26 0 -35z m350 -15 c-2 -13 -4 -5 -4 17 -1 22 1 32 4 23 2 -10 2 -28
0 -40z m-460 -20 c-3 -7 -5 -2 -5 12 0 14 2 19 5 13 2 -7 2 -19 0 -25z m411
-203 c-9 -187 -8 -221 7 -260 5 -16 5 -17 -4 -5 -17 24 -13 -3 10 -64 12 -31
26 -56 31 -56 5 0 6 -5 2 -12 -4 -7 -17 8 -32 38 -35 69 -112 254 -111 267 0
7 9 -8 19 -33 l19 -45 1 60 c0 33 5 67 11 75 9 13 10 12 5 -2 -3 -10 -2 -18 3
-18 5 0 11 8 13 18 6 23 2 115 -7 142 -5 15 -4 20 4 16 7 -4 11 1 11 13 0 12
-4 21 -10 21 -5 0 -10 8 -10 18 0 14 2 15 10 2 5 -8 10 -10 10 -5 0 6 4 3 9
-4 7 -10 8 0 5 30 -3 32 -2 38 4 19 5 -14 5 -110 0 -215z m-146 148 c-7 -36
-12 -27 -11 20 0 30 3 36 8 23 4 -11 6 -30 3 -43z m3105 51 c-3 -3 -12 -4 -19
-1 -8 3 -5 6 6 6 11 1 17 -2 13 -5z m-3257 -36 c0 -22 -3 -28 -9 -20 -4 8 -16
12 -27 10 -11 -2 -20 4 -22 16 -2 11 0 16 7 12 6 -4 19 -2 28 3 10 6 19 11 21
11 1 0 2 -15 2 -32z m332 -94 c-6 -11 -8 -4 -6 23 6 98 8 107 11 51 2 -32 0
-65 -5 -74z m2835 110 c-3 -3 -12 -4 -19 -1 -8 3 -5 6 6 6 11 1 17 -2 13 -5z
m-3275 -59 c3 -14 1 -25 -3 -25 -5 0 -9 11 -9 25 0 14 2 25 4 25 2 0 6 -11 8
-25z m101 -18 c3 11 5 6 6 -12 1 -16 4 -41 7 -55 3 -16 -4 -9 -20 20 -27 49
-34 76 -12 47 14 -18 14 -18 19 0z m3146 9 c-2 -2 -15 -9 -29 -15 -24 -11 -24
-11 -6 3 16 13 49 24 35 12z m-2982 -38 c-3 -7 -5 -2 -5 12 0 14 2 19 5 13 2
-7 2 -19 0 -25z m-258 -80 l0 -83 -14 50 c-16 56 -18 80 -5 50 7 -15 9 -10 9
23 1 23 3 42 6 42 3 0 5 -37 4 -82z m3136 62 c-3 -5 -12 -10 -18 -10 -7 0 -6
4 3 10 19 12 23 12 15 0z m-2868 -22 c-3 -8 -6 -5 -6 6 -1 11 2 17 5 13 3 -3
4 -12 1 -19z m186 -83 c4 -51 3 -67 -3 -45 -14 63 -22 146 -12 135 5 -5 12
-46 15 -90z m-502 42 c-10 -9 -11 -8 -5 6 3 10 9 15 12 12 3 -3 0 -11 -7 -18z
m348 -57 c1 -26 -16 10 -23 50 l-6 35 14 -35 c8 -19 15 -42 15 -50z m5006 -5
c19 -32 29 -52 22 -46 -8 6 -26 34 -42 63 -36 67 -25 58 20 -17z m-2345 9 c0
-8 -5 -12 -10 -9 -6 4 -8 11 -5 16 9 14 15 11 15 -7z m-110 2 c0 -2 -7 -7 -16
-10 -8 -3 -12 -2 -9 4 6 10 25 14 25 6z m50 -30 c0 -2 -8 -10 -17 -17 -16 -13
-17 -12 -4 4 13 16 21 21 21 13z m25 -26 c-3 -5 -16 -15 -28 -21 -19 -9 -19
-8 3 10 28 23 34 26 25 11z m-2458 -57 c-3 -10 -5 -4 -5 12 0 17 2 24 5 18 2
-7 2 -21 0 -30z m-493 11 c3 -8 2 -12 -4 -9 -6 3 -10 10 -10 16 0 14 7 11 14
-7z m341 -164 c24 -36 61 -83 82 -104 29 -30 32 -35 11 -22 -15 10 -31 18 -35
19 -4 1 -6 8 -5 16 3 12 1 13 -12 2 -18 -15 -12 -33 48 -131 49 -82 103 -152
137 -176 14 -11 66 -49 115 -86 49 -38 95 -66 101 -63 7 2 12 -1 10 -8 -1 -7
5 -11 13 -9 8 2 12 0 8 -4 -4 -4 14 -18 40 -31 26 -13 61 -32 77 -42 28 -16
84 -34 145 -45 14 -3 0 -3 -30 -1 -139 11 -480 242 -589 399 -65 95 -158 284
-176 361 -19 79 -18 104 2 40 8 -27 34 -79 58 -115z m2465 137 c0 -2 -10 -12
-22 -23 l-23 -19 19 23 c18 21 26 27 26 19z m-2284 -95 c-5 -5 -26 59 -25 77
0 9 7 -4 14 -29 8 -24 13 -46 11 -48z m2014 44 c0 -2 -7 -7 -16 -10 -8 -3 -12
-2 -9 4 6 10 25 14 25 6z m-40 -21 c0 -2 -10 -9 -22 -15 -22 -11 -22 -10 -4 4
21 17 26 19 26 11z m-1949 -57 c11 -21 11 -22 -4 -9 -10 7 -17 17 -17 22 0 15
9 10 21 -13z m159 -218 c36 -36 81 -77 100 -92 42 -32 164 -93 234 -118 28
-10 45 -19 38 -19 -23 -2 -133 40 -185 69 -29 16 -74 48 -102 69 -27 22 -54
37 -60 34 -5 -4 -7 -3 -3 2 5 5 -13 31 -40 60 -65 70 -84 94 -110 138 -37 64
-25 56 20 -13 23 -36 72 -94 108 -130z m1650 185 c0 -2 -10 -9 -22 -15 -22
-11 -22 -10 -4 4 21 17 26 19 26 11z m1140 1 c0 -3 -4 -8 -10 -11 -5 -3 -10
-1 -10 4 0 6 5 11 10 11 6 0 10 -2 10 -4z m640 -42 c0 -2 -9 0 -20 6 -11 6
-20 13 -20 16 0 2 9 0 20 -6 11 -6 20 -13 20 -16z m-3575 -44 c3 -5 1 -10 -4
-10 -6 0 -11 5 -11 10 0 6 2 10 4 10 3 0 8 -4 11 -10z m1654 -13 c-2 -1 -13
-9 -24 -17 -19 -14 -19 -14 -6 3 7 9 18 17 24 17 6 0 8 -1 6 -3z m-49 -32 c0
-2 -10 -9 -22 -15 -22 -11 -22 -10 -4 4 21 17 26 19 26 11z m110 1 c0 -2 -8
-10 -17 -17 -16 -13 -17 -12 -4 4 13 16 21 21 21 13z m170 -26 c-6 -11 -14
-19 -18 -19 -19 3 -26 -2 -13 -10 9 -6 10 -11 2 -15 -6 -4 -11 -2 -11 5 0 8
-5 8 -17 -2 -10 -7 -7 -1 6 13 13 15 27 25 31 23 5 -3 10 2 14 10 3 8 8 15 11
15 3 0 1 -9 -5 -20z m-330 -4 c0 -2 -12 -11 -27 -20 l-28 -17 24 20 c23 21 31
25 31 17z m980 -21 c-7 -9 -15 -13 -17 -11 -7 7 7 26 19 26 6 0 6 -6 -2 -15z
m-2935 -67 c80 -122 407 -467 515 -545 70 -50 166 -96 300 -144 l105 -38 -52
2 c-29 1 -47 4 -42 8 6 3 1 9 -10 12 -12 3 -18 1 -15 -4 3 -5 -11 2 -32 16
-29 20 -39 22 -46 13 -6 -10 -8 -10 -8 0 0 6 -5 12 -11 12 -6 0 -17 7 -25 15
-9 8 -27 18 -42 22 -15 3 -33 13 -40 20 -8 8 -24 11 -36 8 -11 -2 -15 -2 -8 1
17 8 5 24 -14 17 -9 -3 -14 0 -12 7 2 7 -3 15 -11 18 -10 3 -11 0 -5 -9 6 -12
5 -12 -9 0 -10 8 -15 16 -12 19 8 8 -34 34 -45 27 -6 -4 -7 1 -3 12 6 16 5 17
-11 4 -17 -14 -17 -15 0 -28 10 -7 13 -13 7 -13 -6 0 -16 6 -22 14 -9 10 -8
16 4 26 8 7 12 17 9 22 -4 6 -10 5 -15 -3 -7 -11 -9 -11 -10 -1 -1 6 -2 16 -3
20 -1 9 -86 95 -125 127 -14 11 -21 15 -18 8 4 -6 3 -14 -3 -18 -6 -4 -7 -13
-1 -23 4 -9 7 -22 4 -28 -3 -10 23 -39 36 -39 3 0 5 -3 3 -8 -1 -4 11 -21 28
-37 16 -16 30 -34 30 -41 0 -6 6 -9 14 -6 8 3 20 -2 28 -11 9 -11 10 -14 1 -8
-21 12 -14 -7 13 -38 21 -23 28 -26 35 -15 7 11 9 10 9 -4 0 -10 4 -15 10 -12
5 3 7 0 5 -7 -3 -8 6 -24 20 -36 14 -12 25 -27 25 -33 0 -6 8 -8 20 -4 15 5
20 2 20 -14 0 -11 9 -22 20 -26 11 -3 20 -11 20 -16 0 -5 27 -22 60 -36 33
-15 60 -31 60 -36 0 -10 1 -11 -76 31 -80 43 -132 87 -238 202 -106 114 -336
419 -336 445 0 3 -11 22 -25 43 -24 36 -78 152 -71 152 2 0 16 -19 31 -42z
m2025 39 c0 -2 -10 -12 -22 -23 l-23 -19 19 23 c18 21 26 27 26 19z m860 -27
c0 -5 -2 -10 -4 -10 -3 0 -8 5 -11 10 -3 6 -1 10 4 10 6 0 11 -4 11 -10z
m-1115 -41 c-38 -23 -77 -43 -85 -46 -8 -3 19 16 60 41 41 25 80 45 85 45 6 1
-21 -18 -60 -40z m425 38 c0 -2 -10 -12 -22 -23 l-23 -19 19 23 c18 21 26 27
26 19z m725 -37 c10 -11 16 -20 13 -20 -3 0 -13 9 -23 20 -10 11 -16 20 -13
20 3 0 13 -9 23 -20z m-865 -24 c0 -2 -7 -7 -16 -10 -8 -3 -12 -2 -9 4 6 10
25 14 25 6z m-394 -35 c-7 -11 -156 -74 -162 -68 -2 2 27 16 66 31 38 15 72
32 76 37 3 5 10 9 15 9 6 0 8 -4 5 -9z m319 -1 c-3 -5 -12 -10 -18 -10 -7 0
-6 4 3 10 19 12 23 12 15 0z m91 1 c-4 -5 -34 -28 -69 -51 -73 -50 -62 -35 15
21 58 41 62 43 54 30z m1012 -57 c-14 -14 -15 -14 -10 11 3 19 8 23 15 16 8
-8 7 -16 -5 -27z m-1627 -29 c-18 -8 -41 -15 -50 -14 -9 0 0 6 19 13 48 18 73
19 31 1z m-396 -15 c49 -7 49 -7 10 -8 -22 -1 -62 5 -90 13 -43 13 -45 14 -10
8 22 -3 63 -10 90 -13z m210 -14 c17 -1 -12 -4 -62 -4 -51 -1 -93 1 -93 6 0 6
83 6 155 -2z m108 7 c-7 -2 -19 -2 -25 0 -7 3 -2 5 12 5 14 0 19 -2 13 -5z
m1632 -23 c-3 -5 -11 -10 -16 -10 -6 0 -7 5 -4 10 3 6 11 10 16 10 6 0 7 -4 4
-10z m-1150 -14 c-39 -26 -176 -88 -183 -82 -3 4 5 10 18 13 14 4 57 24 95 44
70 38 107 51 70 25z m-1325 -123 c11 -8 17 -19 14 -25 -4 -6 -2 -8 3 -5 12 7
36 -17 39 -39 4 -27 -14 -13 -95 71 -88 92 -111 135 -31 59 27 -25 58 -53 70
-61z m4934 42 c3 -8 -6 -14 -24 -17 -23 -3 -29 0 -32 17 -4 18 0 20 23 17 15
-2 30 -10 33 -17z m-2714 6 c0 -5 -7 -12 -16 -15 -14 -5 -15 -4 -4 9 14 17 20
19 20 6z m-1100 -20 c-8 -5 -26 -11 -40 -15 -21 -5 -20 -3 5 9 32 15 60 20 35
6z m-70 -21 c0 -5 -8 -10 -17 -10 -15 0 -16 2 -3 10 19 12 20 12 20 0z m-75
-25 c-22 -8 -51 -13 -65 -13 -15 0 -4 6 25 13 65 17 91 17 40 0z m-102 -22
c-7 -2 -19 -2 -25 0 -7 3 -2 5 12 5 14 0 19 -2 13 -5z m-55 -10 c-10 -2 -28
-2 -40 0 -13 2 -5 4 17 4 22 1 32 -1 23 -4z m-173 -13 c-4 -6 -47 -9 -103 -8
l-97 2 95 6 c52 3 99 7 103 8 5 1 5 -2 2 -8z m95 6 c0 -2 -18 -6 -40 -8 -22
-2 -40 0 -40 4 0 5 18 8 40 8 22 0 40 -2 40 -4z m3070 -20 c0 -14 -5 -28 -11
-32 -6 -4 -9 1 -8 12 2 11 0 25 -4 32 -5 8 -3 12 7 12 10 0 16 -9 16 -24z
m-3727 -4 c-1 -5 5 -16 15 -24 15 -12 16 -11 3 5 -19 25 -5 21 74 -18 39 -19
115 -49 170 -67 55 -18 91 -34 79 -36 -11 -2 -31 1 -45 6 -13 5 -27 10 -32 11
-4 0 -21 8 -38 17 -17 8 -40 14 -50 11 -10 -3 -17 0 -16 7 1 6 -8 10 -23 8
-19 -2 -22 0 -10 8 13 9 13 10 0 10 -8 0 -21 -4 -28 -9 -9 -5 10 -18 60 -41
103 -46 102 -46 94 -29 -4 8 1 4 11 -8 23 -27 143 -81 167 -74 5 1 12 -2 15
-7 3 -5 16 -12 28 -16 18 -6 22 -4 17 8 -3 9 -1 16 5 16 6 0 10 -5 9 -12 -4
-15 58 -46 97 -49 28 -2 28 -2 4 -6 -63 -10 -490 170 -583 246 -38 30 -58 67
-33 58 7 -3 11 -9 10 -15z m3724 -109 c-2 -16 -4 -5 -4 22 0 28 2 40 4 28 2
-13 2 -35 0 -50z m-2367 33 c0 -2 -7 -7 -16 -10 -8 -3 -12 -2 -9 4 6 10 25 14
25 6z m400 -29 c0 -2 -10 -12 -22 -23 l-23 -19 19 23 c18 21 26 27 26 19z
m-471 -10 c-2 -1 -13 -9 -24 -17 -19 -14 -19 -14 -6 3 7 9 18 17 24 17 6 0 8
-1 6 -3z m-1468 -24 c13 -16 12 -17 -3 -4 -10 7 -18 15 -18 17 0 8 8 3 21 -13z
m684 -38 c133 -37 137 -46 7 -15 -94 23 -104 24 -79 9 9 -6 15 -14 12 -20 -7
-11 -26 -12 -23 -1 3 17 -16 42 -33 42 -10 0 -19 5 -19 10 0 13 -2 14 135 -25z
m759 -14 c9 -7 16 -19 16 -25 -1 -6 -14 4 -30 23 -16 19 -26 39 -23 44 3 6 10
2 14 -9 4 -11 14 -26 23 -33z m-1359 29 c4 -6 -1 -7 -11 -3 -12 4 -15 3 -10
-5 4 -7 2 -12 -3 -12 -12 0 -14 13 -4 23 9 10 21 9 28 -3z m3812 -27 c-3 -10
-5 -4 -5 12 0 17 2 24 5 18 2 -7 2 -21 0 -30z m-3370 21 c-3 -3 -12 -4 -19 -1
-8 3 -5 6 6 6 11 1 17 -2 13 -5z m837 -2 c2 -4 -7 -9 -22 -10 -21 -1 -24 0
-12 8 18 12 27 12 34 2z m-79 -27 c-16 -8 -39 -14 -50 -14 -11 0 -2 6 20 14
52 17 68 17 30 0z m-625 -15 c0 -11 -4 -20 -10 -20 -5 0 -10 9 -10 20 0 11 5
20 10 20 6 0 10 -9 10 -20z m350 -12 c69 -1 101 -3 73 -5 -52 -4 -53 -5 -54
-36 l-1 -32 -7 30 c-6 30 -7 30 -81 32 -41 2 -88 7 -105 13 -28 9 -28 10 10 5
22 -3 96 -6 165 -7z m193 5 c-7 -2 -21 -2 -30 0 -10 3 -4 5 12 5 17 0 24 -2
18 -5z m2679 -35 c-6 -6 -7 0 -4 19 5 21 7 23 10 9 2 -10 0 -22 -6 -28z
m-2176 7 c1 -8 -2 -15 -7 -15 -5 0 -9 10 -9 22 0 23 12 17 16 -7z m-261 -25
c3 -6 -1 -7 -9 -4 -18 7 -21 14 -7 14 6 0 13 -4 16 -10z m-582 -27 c-7 -2 -19
-2 -25 0 -7 3 -2 5 12 5 14 0 19 -2 13 -5z m-666 -9 c-3 -3 -12 -4 -19 -1 -8
3 -5 6 6 6 11 1 17 -2 13 -5z m1363 2 c0 -3 -4 -8 -10 -11 -5 -3 -10 -1 -10 4
0 6 5 11 10 11 6 0 10 -2 10 -4z m-983 -12 c-3 -3 -12 -4 -19 -1 -8 3 -5 6 6
6 11 1 17 -2 13 -5z m503 -91 c24 -13 58 -23 75 -23 23 0 27 -3 15 -10 -19
-12 -63 -13 -56 -1 3 4 -13 13 -34 20 -22 6 -40 17 -40 22 0 6 -7 8 -16 5 -8
-3 -12 -2 -9 4 3 6 3 15 -1 22 -5 7 -11 5 -21 -7 -7 -11 -13 -14 -13 -8 0 7 5
15 10 18 23 15 7 22 -32 14 -56 -11 -58 -11 -58 1 0 6 20 10 45 10 27 0 45 5
45 11 0 7 10 -3 23 -22 12 -19 42 -44 67 -56z m21 47 c8 0 43 -10 79 -21 51
-16 79 -19 130 -15 90 9 170 27 164 38 -3 5 0 8 7 7 8 -2 25 3 38 10 17 9 21
10 16 1 -27 -44 -229 -80 -341 -61 -77 14 -111 29 -139 62 l-20 24 26 -22 c14
-13 32 -23 40 -23z m-362 14 c8 -7 -54 -2 -79 6 -17 6 -9 7 25 3 28 -3 52 -7
54 -9z m88 -10 c-3 -3 -12 -4 -19 -1 -8 3 -5 6 6 6 11 1 17 -2 13 -5z m-453
-46 c-4 -6 -10 -5 -15 3 -14 22 -10 33 6 19 8 -7 12 -17 9 -22z m421 7 c-55
-23 -158 -36 -127 -16 7 4 23 6 35 4 12 -2 45 5 72 16 28 11 57 20 65 20 8 0
-12 -11 -45 -24z m169 0 c-3 -8 -9 -14 -12 -13 -16 3 -82 -15 -82 -23 0 -4 21
-11 48 -14 60 -8 74 -13 40 -14 -36 -1 -131 19 -142 30 -6 5 2 9 20 10 16 0
52 9 79 19 28 10 51 19 52 19 1 1 0 -6 -3 -14z m4124 -40 c-3 -3 -9 2 -12 12
-6 14 -5 15 5 6 7 -7 10 -15 7 -18z m-4663 -27 c18 -10 18 -9 7 4 -11 13 -10
16 5 14 10 0 27 -14 38 -30 20 -29 56 -52 40 -26 -5 9 -4 11 4 6 6 -4 9 -11 6
-16 -4 -7 35 -21 70 -26 6 0 21 -4 35 -8 35 -9 89 -15 200 -20 96 -5 187 8
243 35 26 12 27 14 10 21 -12 6 -9 7 10 3 19 -4 26 -2 22 5 -4 6 5 10 22 10
28 -1 28 -1 -10 -24 -79 -49 -141 -61 -297 -60 -115 0 -161 5 -226 22 -88 23
-258 108 -248 123 3 6 15 4 27 -5 12 -9 31 -21 42 -28z m304 0 c56 -13 67 -24
22 -23 -16 0 -27 4 -24 9 4 5 -6 6 -21 2 -17 -4 -25 -3 -22 3 4 5 -2 12 -11
14 -40 10 9 6 56 -5z m359 5 c-10 -2 -28 -2 -40 0 -13 2 -5 4 17 4 22 1 32 -1
23 -4z m-149 -39 c8 -7 -74 -3 -114 6 -30 6 -21 7 35 3 41 -3 77 -7 79 -9z
m117 -11 c-7 -7 -77 -5 -85 2 -2 3 17 5 44 5 27 0 45 -3 41 -7z m291 -189 c-3
-3 -12 -4 -19 -1 -8 3 -5 6 6 6 11 1 17 -2 13 -5z m56 -1 c-7 -2 -19 -2 -25 0
-7 3 -2 5 12 5 14 0 19 -2 13 -5z m-148 -18 c-70 -15 -378 -111 -406 -126 -11
-5 -25 -7 -31 -3 -7 4 -8 3 -4 -4 4 -6 -6 -18 -23 -27 -37 -19 -42 -19 -35 0
3 8 9 14 12 13 21 -2 31 4 26 17 -5 12 -9 12 -29 -1 -13 -9 -34 -14 -47 -12
-18 3 -9 9 37 27 114 43 294 91 327 86 25 -4 28 -3 13 3 -16 7 -2 13 60 25 44
8 98 15 120 15 36 0 34 -1 -20 -13z m3359 -30 c-9 -14 -18 -25 -21 -25 -5 0 5
18 20 38 17 22 18 13 1 -13z m-2659 -11 c-46 -7 -173 -9 -162 -2 7 4 50 7 97
6 47 0 76 -2 65 -4z m-263 -14 c-35 -4 -78 -4 -95 0 -21 5 2 7 63 7 90 0 92 0
32 -7z m361 3 c-7 -2 -21 -2 -30 0 -10 3 -4 5 12 5 17 0 24 -2 18 -5z m-615
-10 c-10 -2 -28 -2 -40 0 -13 2 -5 4 17 4 22 1 32 -1 23 -4z m-111 -9 c-3 -3
-12 -4 -19 -1 -8 3 -5 6 6 6 11 1 17 -2 13 -5z m266 -1 c-7 -2 -21 -2 -30 0
-10 3 -4 5 12 5 17 0 24 -2 18 -5z m-103 -23 c-14 -4 -34 -8 -45 -8 -16 0 -15
2 5 8 14 4 34 8 45 8 16 0 15 -2 -5 -8z m3080 -4 c0 -2 -8 -10 -17 -17 -16
-13 -17 -12 -4 4 13 16 21 21 21 13z m-3495 -26 c-3 -5 -12 -10 -19 -10 -8 0
-40 -12 -72 -27 -33 -14 -64 -27 -70 -29 -6 -1 -22 -5 -35 -9 -50 -15 -10 5
86 44 106 43 120 47 110 31z m302 4 c-3 -3 -12 -4 -19 -1 -8 3 -5 6 6 6 11 1
17 -2 13 -5z m-40 -10 c-3 -3 -12 -4 -19 -1 -8 3 -5 6 6 6 11 1 17 -2 13 -5z
m3073 -17 c0 -2 -12 -14 -27 -28 l-28 -24 24 28 c23 25 31 32 31 24z m-3741
-11 c-2 -2 -15 -9 -29 -15 -24 -11 -24 -11 -6 3 16 13 49 24 35 12z m-59 -30
c0 -2 -7 -7 -16 -10 -8 -3 -12 -2 -9 4 6 10 25 14 25 6z m80 -31 c-19 -14 -36
-25 -39 -25 -10 0 53 49 63 50 6 0 -5 -11 -24 -25z m120 -9 c0 -2 -16 -13 -35
-25 -19 -11 -35 -18 -35 -16 0 5 61 45 68 45 1 0 2 -2 2 -4z m1750 -10 c0 -6
-96 -66 -106 -66 -5 0 9 12 31 25 22 14 36 25 30 26 -5 0 -1 4 10 9 23 10 35
12 35 6z m-1391 -9 c-2 -2 -24 -11 -49 -21 -33 -12 -40 -13 -27 -2 14 10 15
15 5 19 -7 3 7 6 31 6 24 1 42 -1 40 -2z m1318 -13 c-3 -3 -12 -4 -19 -1 -8 3
-5 6 6 6 11 1 17 -2 13 -5z m-1757 -18 c0 -2 -8 -10 -17 -17 -16 -13 -17 -12
-4 4 13 16 21 21 21 13z m-285 -16 c-3 -5 -20 -19 -38 -30 -32 -22 -32 -22 3
9 37 32 45 37 35 21z m624 6 c-10 -9 -239 -114 -239 -110 0 6 222 114 234 114
5 0 7 -2 5 -4z m1234 -3 c-7 -2 -19 -2 -25 0 -7 3 -2 5 12 5 14 0 19 -2 13 -5z
m1447 -3 c-8 -5 -19 -10 -25 -10 -5 0 -3 5 5 10 8 5 20 10 25 10 6 0 3 -5 -5
-10z m-1522 -7 c-10 -2 -26 -2 -35 0 -10 3 -2 5 17 5 19 0 27 -2 18 -5z
m-1538 -6 c0 -2 -10 -12 -22 -23 l-23 -19 19 23 c18 21 26 27 26 19z m1463 -4
c-7 -2 -19 -2 -25 0 -7 3 -2 5 12 5 14 0 19 -2 13 -5z m-75 -10 c-10 -2 -28
-2 -40 0 -13 2 -5 4 17 4 22 1 32 -1 23 -4z m-85 -10 c-7 -2 -21 -2 -30 0 -10
3 -4 5 12 5 17 0 24 -2 18 -5z m897 3 c0 -2 -7 -6 -15 -10 -8 -3 -15 -1 -15 4
0 6 7 10 15 10 8 0 15 -2 15 -4z m1494 -21 c-9 -14 -18 -25 -21 -25 -5 0 5 18
20 38 17 22 18 13 1 -13z m-2484 5 c-14 -4 -36 -8 -50 -8 -22 0 -22 1 5 8 17
4 39 8 50 8 16 0 15 -2 -5 -8z m911 -7 c0 -15 2 -15 9 2 5 11 9 14 9 7 1 -8 6
-10 14 -6 8 5 9 4 2 -4 -13 -14 -137 -63 -143 -57 -3 3 -6 15 -7 27 -1 14 -10
25 -26 30 -16 4 -4 6 33 6 32 -1 61 1 65 5 13 14 43 7 44 -10z m-2441 0 c0 -5
-17 -18 -38 -31 l-37 -23 35 30 c38 33 40 34 40 24z m3019 4 c-16 -13 -99 -57
-99 -53 0 7 83 56 94 56 5 0 7 -1 5 -3z m431 -1 c0 -2 -7 -7 -16 -10 -8 -3
-12 -2 -9 4 6 10 25 14 25 6z m-2040 -16 c-14 -4 -68 -20 -120 -35 -52 -15
-124 -42 -160 -61 -56 -28 -181 -105 -215 -131 -116 -91 -245 -210 -245 -228
0 -6 -16 -28 -36 -50 l-36 -40 33 50 c78 119 162 197 339 317 131 88 227 133
360 167 74 20 129 27 80 11z m-1290 -14 c0 -2 -8 -10 -17 -17 -16 -13 -17 -12
-4 4 13 16 21 21 21 13z m3030 -6 c-8 -5 -19 -10 -25 -10 -5 0 -3 5 5 10 8 5
20 10 25 10 6 0 3 -5 -5 -10z m655 -29 c-3 -6 -11 -11 -17 -11 -6 0 -6 6 2 15
14 17 26 13 15 -4z m-3355 5 c0 -2 -20 -16 -45 -29 -25 -14 -45 -22 -45 -17 0
5 19 18 43 29 50 23 47 22 47 17z m-451 -96 c-45 -49 -85 -90 -88 -90 -6 0 29
40 103 118 89 92 80 75 -15 -28z m-139 34 c-25 -26 -55 -57 -67 -70 -13 -13
-23 -20 -23 -16 0 7 122 132 129 132 3 0 -15 -21 -39 -46z m700 17 c0 -5 -13
-17 -29 -28 -131 -82 -352 -285 -412 -377 -22 -33 -39 -56 -39 -52 0 20 59
106 102 150 26 26 48 52 48 57 0 5 5 9 11 9 5 0 7 6 3 13 -4 6 -4 9 1 5 4 -4
13 -2 20 5 7 7 25 21 41 32 42 31 55 46 48 57 -4 6 -2 8 4 5 14 -9 43 3 36 14
-3 5 -2 8 3 7 10 -4 64 37 65 49 0 4 4 7 10 5 5 -1 21 7 35 18 31 24 19 26
-33 3 -41 -18 -47 -20 -65 -22 -8 -1 -7 -7 2 -18 12 -16 11 -16 -8 0 -14 12
-23 15 -28 7 -3 -5 -11 -7 -18 -3 -10 6 81 40 168 63 17 4 31 8 33 9 1 1 2 -3
2 -8z m-420 -4 c0 -2 -10 -12 -22 -23 l-23 -19 19 23 c18 21 26 27 26 19z
m3740 -1 c0 -2 -8 -10 -17 -17 -16 -13 -17 -12 -4 4 13 16 21 21 21 13z m10
-30 c0 -2 -8 -10 -17 -17 -16 -13 -17 -12 -4 4 13 16 21 21 21 13z m-3832 -56
c-7 -11 -17 -20 -22 -20 -5 0 -1 9 9 20 10 11 20 20 22 20 2 0 -2 -9 -9 -20z
m3767 11 c3 -5 2 -12 -3 -15 -5 -3 -9 1 -9 9 0 17 3 19 12 6z m245 -47 c17
-15 28 -29 25 -32 -3 -3 3 -15 12 -26 14 -16 9 -14 -17 5 -19 15 -35 33 -35
40 0 8 -9 19 -20 26 -11 7 -15 12 -8 13 6 0 26 -12 43 -26z m-4062 -21 c-39
-43 -108 -145 -108 -160 0 -7 -3 -13 -7 -13 -10 0 -28 -37 -54 -105 -10 -27
-18 -42 -19 -32 0 25 61 156 101 213 36 52 98 124 107 124 3 0 -6 -12 -20 -27z
m-290 -22 c-13 -15 -25 -27 -27 -25 -4 4 39 54 47 54 2 0 -7 -13 -20 -29z
m156 -31 c-10 -16 -29 -41 -41 -55 -13 -14 -21 -25 -18 -25 4 0 -2 -12 -13
-27 -24 -35 -82 -149 -93 -183 -5 -18 -8 -20 -8 -7 -1 10 14 50 33 89 19 38
32 77 29 86 -4 13 -2 14 5 4 7 -10 12 -6 23 15 14 28 90 133 97 133 2 0 -5
-13 -14 -30z m4286 6 c0 -2 -7 -7 -16 -10 -8 -3 -12 -2 -9 4 6 10 25 14 25 6z
m-4509 -59 l-24 -22 19 27 c10 14 21 24 23 22 3 -3 -6 -15 -18 -27z m3456 27
c-3 -3 -12 -4 -19 -1 -8 3 -5 6 6 6 11 1 17 -2 13 -5z m-50 -10 c-3 -3 -12 -4
-19 -1 -8 3 -5 6 6 6 11 1 17 -2 13 -5z m-1857 -24 c-8 -5 -19 -10 -25 -10 -5
0 -3 5 5 10 8 5 20 10 25 10 6 0 3 -5 -5 -10z m63 3 c-7 -2 -19 -2 -25 0 -7 3
-2 5 12 5 14 0 19 -2 13 -5z m74 1 c-3 -3 -12 -4 -19 -1 -8 3 -5 6 6 6 11 1
17 -2 13 -5z m-184 -11 c-7 -2 -21 -2 -30 0 -10 3 -4 5 12 5 17 0 24 -2 18 -5z
m390 0 c-18 -2 -48 -2 -65 0 -18 2 -4 4 32 4 36 0 50 -2 33 -4z m-466 -9 c-3
-3 -12 -4 -19 -1 -8 3 -5 6 6 6 11 1 17 -2 13 -5z m686 -1 c-13 -2 -35 -2 -50
0 -16 2 -5 4 22 4 28 0 40 -2 28 -4z m-2127 -15 c5 -7 3 -8 -5 -4 -8 5 -12 3
-10 -5 3 -29 -1 -40 -13 -33 -8 5 -7 1 1 -10 13 -16 13 -17 -5 -14 -12 2 -18
-2 -16 -10 1 -8 -2 -11 -9 -6 -8 4 -9 -1 -4 -17 4 -15 3 -19 -2 -11 -7 8 -14
1 -27 -25 -10 -21 -25 -49 -34 -63 -9 -14 -17 -29 -18 -35 0 -5 -2 -16 -2 -23
-1 -7 -7 -10 -14 -6 -8 5 -9 2 -5 -10 5 -11 3 -15 -4 -10 -7 4 -10 1 -7 -7 3
-8 -2 -19 -11 -26 -9 -6 -12 -15 -8 -19 4 -5 12 -2 17 6 6 8 10 10 10 4 0 -14
-48 -59 -56 -52 -5 5 69 156 114 233 43 74 94 155 97 155 2 0 7 -5 11 -12z
m1394 5 c-8 -2 -32 -11 -52 -19 -21 -7 -38 -12 -38 -9 0 8 64 33 85 33 13 0
15 -1 5 -5z m843 0 c-7 -2 -21 -2 -30 0 -10 3 -4 5 12 5 17 0 24 -2 18 -5z
m200 -10 c3 -5 -16 -7 -41 -5 -80 5 -90 9 -25 11 34 0 64 -2 66 -6z m70 -10
c-7 -2 -19 -2 -25 0 -7 3 -2 5 12 5 14 0 19 -2 13 -5z m54 1 c-3 -3 -12 -4
-19 -1 -8 3 -5 6 6 6 11 1 17 -2 13 -5z m-2537 -34 c-20 -12 -32 -2 -17 15 8
8 16 10 22 4 6 -7 5 -13 -5 -19z m2727 24 c-3 -3 -12 -4 -19 -1 -8 3 -5 6 6 6
11 1 17 -2 13 -5z m-1467 -14 c-35 -24 -54 -31 -30 -11 14 11 30 21 35 21 6 0
3 -5 -5 -10z m393 3 c-23 -2 -64 -2 -90 0 -26 2 -7 3 42 3 50 0 71 -1 48 -3z
m130 0 c-7 -2 -21 -2 -30 0 -10 3 -4 5 12 5 17 0 24 -2 18 -5z m50 0 c-7 -2
-19 -2 -25 0 -7 3 -2 5 12 5 14 0 19 -2 13 -5z m-258 -14 c22 -1 -5 -5 -60
-10 -134 -11 -238 -35 -305 -70 -51 -27 -53 -27 -28 -5 52 47 241 100 318 91
19 -3 53 -5 75 -6z m508 4 c-7 -2 -19 -2 -25 0 -7 3 -2 5 12 5 14 0 19 -2 13
-5z m80 -10 c-7 -2 -19 -2 -25 0 -7 3 -2 5 12 5 14 0 19 -2 13 -5z m-410 -10
c-13 -2 -35 -2 -50 0 -16 2 -5 4 22 4 28 0 40 -2 28 -4z m480 0 c-7 -2 -21 -2
-30 0 -10 3 -4 5 12 5 17 0 24 -2 18 -5z m1347 -3 c-8 -5 -19 -10 -25 -10 -5
0 -3 5 5 10 8 5 20 10 25 10 6 0 3 -5 -5 -10z m-2380 -4 c0 -3 -4 -8 -10 -11
-5 -3 -10 -1 -10 4 0 6 5 11 10 11 6 0 10 -2 10 -4z m643 -3 c-7 -2 -21 -2
-30 0 -10 3 -4 5 12 5 17 0 24 -2 18 -5z m570 -12 c8 -8 -119 6 -138 14 -5 3
22 2 60 -1 39 -4 74 -9 78 -13z m1284 13 c-3 -3 -12 -4 -19 -1 -8 3 -5 6 6 6
11 1 17 -2 13 -5z m727 -39 c39 -62 29 -65 -12 -4 -17 27 -29 49 -25 49 5 0
21 -20 37 -45z m-2481 28 c-7 -2 -19 -2 -25 0 -7 3 -2 5 12 5 14 0 19 -2 13
-5z m1597 2 c0 -6 -70 -35 -84 -34 -6 0 9 9 34 19 53 22 50 21 50 15z m-2432
-65 c-56 -51 -140 -151 -196 -236 -7 -11 -6 -6 2 11 15 33 97 146 133 184 12
13 20 29 16 34 -4 6 -1 7 7 2 8 -5 18 -1 26 10 13 17 63 55 74 55 3 0 -25 -27
-62 -60z m1370 53 c-10 -2 -26 -2 -35 0 -10 3 -2 5 17 5 19 0 27 -2 18 -5z
m65 -10 c-7 -2 -19 -2 -25 0 -7 3 -2 5 12 5 14 0 19 -2 13 -5z m-376 -9 c-3
-3 -12 -4 -19 -1 -8 3 -5 6 6 6 11 1 17 -2 13 -5z m460 0 c-3 -3 -12 -4 -19
-1 -8 3 -5 6 6 6 11 1 17 -2 13 -5z m-2593 -20 c3 -8 2 -12 -4 -9 -6 3 -10 10
-10 16 0 14 7 11 14 -7z m2204 9 c-10 -2 -26 -2 -35 0 -10 3 -2 5 17 5 19 0
27 -2 18 -5z m502 -8 c10 -12 16 -13 27 -4 11 9 17 9 26 0 9 -10 9 -12 -3 -9
-10 2 -16 -10 -20 -44 -6 -46 -5 -47 25 -51 25 -3 23 -4 -10 -5 -43 -2 -127
22 -105 30 31 10 20 85 -13 91 -12 2 -3 5 19 6 26 0 46 -5 54 -14z m1044 -88
c19 -17 19 -17 1 -9 -11 6 -31 22 -44 36 -14 14 -29 26 -35 26 -6 0 -5 -5 2
-12 7 -7 12 -16 12 -21 0 -10 -20 9 -43 43 -30 43 -18 43 34 -2 28 -23 61 -51
73 -61z m-1374 68 c84 -20 26 -16 -70 5 -57 13 -69 18 -35 14 28 -3 75 -11
105 -19z m-3832 -99 c59 -111 119 -203 170 -258 14 -16 21 -31 17 -39 -5 -7
-4 -10 3 -5 6 3 21 -7 34 -24 13 -17 44 -56 70 -88 53 -63 83 -119 128 -236
59 -152 163 -278 275 -330 29 -14 72 -44 95 -67 55 -55 114 -145 104 -160 -4
-8 -3 -10 4 -5 26 16 114 -237 125 -359 l5 -60 -10 55 c-15 88 -42 169 -51
157 -4 -7 -5 1 -1 16 5 21 3 27 -7 25 -8 -2 -18 -7 -22 -13 -5 -6 -7 -4 -4 5
2 8 10 14 16 12 8 -1 9 7 5 25 -8 34 -14 42 -14 19 0 -9 -5 -14 -10 -11 -6 4
-8 15 -5 25 8 24 -8 59 -44 98 -27 29 -29 36 -9 33 4 0 5 6 1 14 -7 20 -43 40
-43 25 0 -6 -4 -8 -10 -5 -5 3 -10 2 -10 -3 0 -5 -7 -9 -15 -9 -9 0 -14 5 -12
11 3 6 10 10 17 8 7 -2 9 5 5 20 -5 20 -4 21 5 5 11 -17 30 -15 30 4 0 6 -4 8
-9 5 -4 -3 -13 6 -20 21 -11 25 -12 25 -27 7 -14 -18 -15 -18 -5 2 10 21 6 34
-11 34 -5 0 -6 -4 -3 -10 3 -5 1 -10 -5 -10 -6 0 -8 -4 -5 -10 4 -6 -1 -7 -11
-3 -11 4 -13 8 -6 11 7 2 12 8 12 14 0 6 -7 7 -16 4 -9 -3 -12 -2 -9 5 4 6 13
8 21 5 8 -3 14 -1 14 3 0 15 -27 20 -41 8 -8 -8 -8 -5 1 7 14 18 13 19 -3 13
-10 -4 -16 -3 -12 2 6 10 -32 26 -53 22 -7 -1 -11 2 -10 6 2 4 -1 8 -7 8 -5 0
-9 -4 -7 -8 1 -5 -2 -6 -7 -3 -5 4 -12 2 -16 -4 -6 -10 3 -13 40 -12 17 1 18
0 2 -4 -27 -8 -2 -34 28 -28 24 4 43 -20 24 -31 -13 -9 0 -27 14 -19 7 4 9 4
5 -1 -12 -13 13 -37 26 -26 8 7 12 4 13 -9 3 -37 -13 -29 -80 40 -37 38 -89
85 -115 105 -68 51 -125 142 -173 274 -44 123 -75 184 -120 242 -16 20 -29 44
-29 52 0 8 -6 17 -13 20 -39 15 -263 380 -292 475 -13 46 5 19 63 -92z m4598
105 c-6 -9 -46 -22 -46 -15 0 3 10 9 23 14 29 11 29 11 23 1z m209 -11 c3 -6
-4 -10 -17 -10 -13 0 -34 -3 -48 -5 -16 -3 -12 0 10 9 43 18 47 18 55 6z
m-2454 -33 c-10 -9 -11 -8 -5 6 3 10 9 15 12 12 3 -3 0 -11 -7 -18z m1566 17
c-3 -3 -12 -4 -19 -1 -8 3 -5 6 6 6 11 1 17 -2 13 -5z m1966 -9 c-3 -9 -8 -14
-10 -11 -3 3 -2 9 2 15 9 16 15 13 8 -4z m-4307 -32 c-7 -40 -24 -90 -25 -75
-1 18 20 102 26 102 2 0 2 -12 -1 -27z m358 14 c-2 -7 -12 -13 -22 -13 -9 -1
-26 -4 -37 -9 -11 -4 -6 2 10 13 35 24 57 28 49 9z m2073 7 c-3 -3 -12 -4 -19
-1 -8 3 -5 6 6 6 11 1 17 -2 13 -5z m40 -10 c-3 -3 -12 -4 -19 -1 -8 3 -5 6 6
6 11 1 17 -2 13 -5z m-1710 -26 c-3 -8 -6 -5 -6 6 -1 11 2 17 5 13 3 -3 4 -12
1 -19z m-886 -33 c-9 -30 -9 -30 -8 7 1 20 5 34 9 30 4 -4 3 -21 -1 -37z
m3744 3 c34 -35 35 -38 9 -17 -27 21 -60 59 -51 59 2 0 21 -19 42 -42z m-3292
-3 c-3 -9 -8 -14 -10 -11 -3 3 -2 9 2 15 9 16 15 13 8 -4z m4031 -41 c3 -8 2
-12 -4 -9 -6 3 -10 10 -10 16 0 14 7 11 14 -7z m-4497 -26 c-3 -7 -5 -2 -5 12
0 14 2 19 5 13 2 -7 2 -19 0 -25z m856 17 c-3 -9 -8 -14 -10 -11 -3 3 -2 9 2
15 9 16 15 13 8 -4z m2567 -37 c14 -13 21 -20 16 -15 -18 13 -29 7 -16 -8 7
-8 9 -15 6 -15 -10 0 -86 72 -86 82 0 11 49 -15 80 -44z m-3313 10 c-3 -8 -6
-5 -6 6 -1 11 2 17 5 13 3 -3 4 -12 1 -19z m391 -20 c-7 -13 -11 -27 -10 -31
1 -5 -2 -6 -8 -2 -10 6 -7 17 13 43 15 20 19 14 5 -10z m336 -12 c-3 -15 -8
-25 -11 -23 -2 3 -1 17 3 31 3 15 8 25 11 23 2 -3 1 -17 -3 -31z m-847 2 c-3
-8 -6 -5 -6 6 -1 11 2 17 5 13 3 -3 4 -12 1 -19z m624 -6 c-6 -2 -9 -7 -6 -12
6 -11 -14 -110 -27 -130 -7 -11 -8 -10 -3 5 4 11 8 43 10 71 2 50 26 106 34
82 2 -7 -1 -14 -8 -16z m-793 1 c-2 -10 -9 -24 -15 -31 -7 -7 -13 -22 -13 -33
0 -10 -4 -19 -10 -19 -14 0 -13 7 12 56 23 47 31 55 26 27z m4737 -13 c10 -11
16 -20 13 -20 -3 0 -13 9 -23 20 -10 11 -16 20 -13 20 3 0 13 -9 23 -20z
m-4458 -27 c-3 -10 -5 -4 -5 12 0 17 2 24 5 18 2 -7 2 -21 0 -30z m-120 -15
c-3 -8 -6 -5 -6 6 -1 11 2 17 5 13 3 -3 4 -12 1 -19z m840 0 c-3 -8 -6 -5 -6
6 -1 11 2 17 5 13 3 -3 4 -12 1 -19z m41 -41 c-11 -32 -23 -56 -25 -54 -2 3 6
30 18 61 11 32 23 56 25 54 2 -2 -6 -30 -18 -61z m2607 53 c3 -6 -1 -7 -9 -4
-18 7 -21 14 -7 14 6 0 13 -4 16 -10z m195 2 c0 -5 30 -44 66 -88 36 -43 48
-60 26 -36 -41 43 -58 53 -48 27 10 -26 -3 -16 -18 14 -9 16 -12 31 -9 35 4 3
2 6 -4 6 -5 0 -15 11 -21 25 -7 15 -8 25 -2 25 6 0 10 -4 10 -8z m-3183 -24
c-3 -8 -6 -5 -6 6 -1 11 2 17 5 13 3 -3 4 -12 1 -19z m89 -25 c-8 -15 -15 -25
-16 -21 0 12 23 58 27 54 3 -2 -2 -17 -11 -33z m-479 -30 c-3 -10 -5 -2 -5 17
0 19 2 27 5 18 2 -10 2 -26 0 -35z m720 15 c-3 -7 -5 -2 -5 12 0 14 2 19 5 13
2 -7 2 -19 0 -25z m-1052 -43 c-22 -60 -29 -53 -7 7 9 26 18 45 21 43 2 -3 -4
-25 -14 -50z m212 23 c-3 -7 -5 -2 -5 12 0 14 2 19 5 13 2 -7 2 -19 0 -25z
m2888 12 c3 -5 1 -10 -4 -10 -6 0 -11 5 -11 10 0 6 2 10 4 10 3 0 8 -4 11 -10z
m-2316 -49 c-6 -18 -13 -30 -15 -28 -2 2 1 18 7 36 6 18 13 30 15 28 2 -2 -1
-18 -7 -36z m251 -28 c-11 -17 -11 -17 -6 0 3 10 7 31 7 45 l2 27 4 -27 c2
-15 -1 -35 -7 -45z m2841 50 c13 -16 12 -17 -3 -4 -10 7 -18 15 -18 17 0 8 8
3 21 -13z m-3064 -65 c-3 -7 -5 -2 -5 12 0 14 2 19 5 13 2 -7 2 -19 0 -25z
m260 10 c-3 -8 -6 -5 -6 6 -1 11 2 17 5 13 3 -3 4 -12 1 -19z m-1102 -40 c-4
-18 -16 -49 -27 -68 -13 -26 -17 -28 -12 -10 4 14 10 30 14 35 4 6 11 25 15
43 3 17 9 32 12 32 2 0 1 -15 -2 -32z m352 -80 c-2 -24 -4 -7 -4 37 0 44 2 63
4 43 2 -21 2 -57 0 -80z m380 80 c-3 -8 -6 -5 -6 6 -1 11 2 17 5 13 3 -3 4
-12 1 -19z m3354 5 c13 -16 12 -17 -3 -4 -10 7 -18 15 -18 17 0 8 8 3 21 -13z
m-3010 -38 c6 14 7 9 3 -15 -4 -19 -10 -57 -14 -85 -6 -40 -7 -31 -7 50 0 55
2 84 5 65 4 -30 6 -32 13 -15z m-244 -67 c-2 -18 -4 -6 -4 27 0 33 2 48 4 33
2 -15 2 -42 0 -60z m2186 62 c-24 -10 -31 -30 -11 -30 6 0 3 -7 -8 -15 -22
-17 -12 -20 18 -4 39 21 8 -9 -36 -35 -54 -32 -68 -34 -31 -5 22 18 26 27 21
51 -5 23 -1 30 17 38 12 5 29 9 37 9 8 0 5 -4 -7 -9z m-3059 -112 c-1 -24 -12
-63 -24 -88 -12 -25 -19 -34 -15 -20 3 14 11 53 17 88 13 71 26 83 22 20z
m4057 5 c13 -16 12 -17 -3 -4 -10 7 -18 15 -18 17 0 8 8 3 21 -13z m-991 -7
c0 -2 -28 -21 -62 -42 -81 -49 -205 -142 -288 -214 -36 -31 -75 -65 -87 -75
-12 -10 -19 -23 -16 -28 3 -6 2 -7 -4 -4 -13 8 -86 -67 -76 -78 5 -4 3 -5 -3
-2 -11 7 -60 -41 -139 -137 -68 -81 -75 -89 -75 -81 0 25 244 283 375 397 136
118 375 287 375 264z m-2783 -53 c-3 -10 -5 -2 -5 17 0 19 2 27 5 18 2 -10 2
-26 0 -35z m600 5 c-3 -7 -5 -2 -5 12 0 14 2 19 5 13 2 -7 2 -19 0 -25z m3124
5 c13 -16 12 -17 -3 -4 -10 7 -18 15 -18 17 0 8 8 3 21 -13z m-3114 -55 c-3
-7 -5 -2 -5 12 0 14 2 19 5 13 2 -7 2 -19 0 -25z m5360 10 c-3 -8 -6 -5 -6 6
-1 11 2 17 5 13 3 -3 4 -12 1 -19z m-6210 -70 c-2 -13 -4 -5 -4 17 -1 22 1 32
4 23 2 -10 2 -28 0 -40z m370 20 c-3 -7 -5 -2 -5 12 0 14 2 19 5 13 2 -7 2
-19 0 -25z m-110 -10 c-3 -8 -6 -5 -6 6 -1 11 2 17 5 13 3 -3 4 -12 1 -19z
m783 -233 c40 -122 92 -229 133 -272 17 -18 28 -35 25 -38 -7 -8 -78 78 -78
94 0 7 -4 9 -10 6 -5 -3 -10 -1 -10 5 0 6 -4 9 -9 6 -4 -3 -7 6 -5 20 3 34
-17 72 -36 66 -13 -5 -13 -3 -1 12 11 13 11 20 3 24 -6 4 -13 19 -16 32 -16
74 -42 160 -48 160 -3 0 -6 -32 -5 -70 1 -39 -1 -70 -5 -70 -10 0 -10 116 -1
201 l7 64 12 -70 c6 -38 26 -115 44 -170z m-663 193 c-3 -8 -6 -5 -6 6 -1 11
2 17 5 13 3 -3 4 -12 1 -19z m503 -22 c0 -26 -6 -18 -14 19 -5 22 -4 26 4 15
5 -8 10 -24 10 -34z m-596 -31 c4 -20 3 -25 -3 -15 -5 8 -11 31 -15 50 -7 41
7 13 18 -35z m-277 18 c-3 -10 -5 -4 -5 12 0 17 2 24 5 18 2 -7 2 -21 0 -30z
m952 -196 c9 -3 4 -4 -11 -4 -15 1 -24 5 -22 9 3 4 -7 42 -21 85 -14 43 -25
82 -24 88 0 5 15 -31 31 -82 19 -58 37 -94 47 -96z m-942 151 c-3 -8 -6 -5 -6
6 -1 11 2 17 5 13 3 -3 4 -12 1 -19z m3022 18 c-11 -10 -213 -107 -204 -98 11
12 185 100 199 101 5 1 7 -1 5 -3z m238 -2 c-3 -3 -12 -4 -19 -1 -8 3 -5 6 6
6 11 1 17 -2 13 -5z m-2880 -26 c-3 -8 -6 -5 -6 6 -1 11 2 17 5 13 3 -3 4 -12
1 -19z m2830 16 c-3 -3 -12 -4 -19 -1 -8 3 -5 6 6 6 11 1 17 -2 13 -5z m1540
-79 c16 -10 36 -27 43 -39 10 -16 5 -13 -22 9 -19 17 -42 35 -51 40 -9 6 -19
24 -22 40 l-6 30 15 -31 c8 -18 27 -40 43 -49z m-4700 -137 c3 -16 9 -28 14
-28 5 0 6 -7 3 -15 -5 -13 7 -65 26 -110 8 -19 17 -55 25 -104 2 -13 7 -27 12
-30 4 -3 9 -17 11 -30 1 -14 9 -38 17 -55 9 -16 18 -41 20 -55 7 -40 51 -142
58 -135 3 4 6 -2 5 -12 -1 -24 36 -105 48 -105 5 0 8 -6 6 -13 -1 -7 7 -22 18
-34 11 -12 20 -26 20 -31 0 -5 4 -12 9 -15 5 -4 7 4 4 16 -8 32 2 19 15 -19
31 -94 -59 28 -127 172 -77 161 -208 593 -225 743 -4 35 0 26 15 -33 11 -44
23 -92 26 -107z m364 127 c5 3 6 0 4 -8 -11 -26 104 -265 119 -250 4 4 4 -1 0
-11 -6 -15 -4 -17 7 -11 8 4 11 5 7 0 -27 -30 125 -177 252 -243 51 -26 125
-72 117 -72 -16 0 -148 71 -208 114 -106 74 -164 147 -243 303 -31 63 -76 181
-75 197 1 6 3 3 6 -7 2 -9 9 -15 14 -12z m2565 10 c-11 -8 -24 -15 -30 -15 -6
0 -6 -4 1 -11 8 -8 17 -8 32 0 42 23 19 2 -42 -38 -122 -79 -175 -123 -406
-336 -36 -33 -59 -51 -51 -40 16 22 43 48 145 138 38 34 92 82 120 107 28 25
85 70 128 99 42 29 74 57 71 62 -8 13 -21 11 -38 -7 -9 -8 -16 -11 -16 -5 0 6
21 22 48 35 54 29 65 32 38 11z m-2640 -95 c32 -73 115 -235 152 -295 52 -85
137 -158 285 -246 89 -53 97 -65 14 -22 -29 15 -58 28 -64 28 -7 0 -12 3 -10
7 4 13 -42 40 -55 32 -6 -4 -8 -3 -5 3 4 6 -22 34 -56 63 -34 29 -84 84 -112
124 -27 39 -53 72 -57 74 -4 2 -4 10 -1 19 4 11 3 14 -6 9 -6 -4 -10 -4 -9 1
5 16 -24 73 -35 66 -5 -3 -7 -1 -3 5 5 9 -43 128 -74 184 -6 10 -10 21 -10 25
0 16 19 -16 46 -77z m3445 43 c13 -16 12 -17 -3 -4 -10 7 -18 15 -18 17 0 8 8
3 21 -13z m-926 -18 c-16 -14 -34 -25 -38 -25 -5 0 -5 -5 -1 -12 4 -7 3 -8 -5
-4 -6 4 -25 -3 -43 -15 -17 -13 -28 -18 -25 -12 8 12 128 93 137 93 3 -1 -8
-12 -25 -25z m-155 -10 c0 -7 -81 -57 -86 -52 -2 2 12 12 31 23 19 10 35 22
35 26 0 5 5 8 10 8 6 0 10 -2 10 -5z m1130 -39 c0 -6 -7 -1 -15 10 -8 10 -15
23 -15 28 0 6 7 1 15 -10 8 -10 15 -23 15 -28z m-1235 -34 c-6 -5 -37 -33 -70
-62 l-60 -53 62 61 c33 34 65 62 69 62 4 0 4 -4 -1 -8z m130 -2 c-3 -5 -16
-15 -28 -21 -21 -10 -21 -9 2 10 25 23 36 27 26 11z m2715 -25 c-7 -8 -17 -15
-23 -15 -6 0 -2 7 9 15 25 19 30 19 14 0z m-1633 -42 c-3 -10 -5 -4 -5 12 0
17 2 24 5 18 2 -7 2 -21 0 -30z m-1138 25 c-2 -2 -17 -14 -34 -28 l-30 -25 24
28 c14 15 29 27 34 27 6 0 8 -1 6 -2z m3322 -49 c-13 -10 -28 -19 -35 -19 -6
1 1 8 17 16 15 8 27 20 27 26 0 6 3 8 8 4 4 -4 -4 -16 -17 -27z m-4743 -48
c18 -27 45 -63 61 -80 16 -17 25 -31 21 -31 -5 0 -26 20 -48 46 -33 37 -41 42
-45 27 -2 -10 -3 -5 -1 10 2 17 0 26 -6 22 -6 -3 -10 -3 -10 2 0 4 -3 18 -6
31 -9 34 -1 27 34 -27z m92 -13 c0 -4 14 -15 31 -23 17 -9 28 -19 25 -22 -3
-3 -14 0 -23 8 -15 11 -16 11 -5 -1 14 -16 16 -30 4 -30 -9 0 -62 87 -62 103
1 13 30 -21 30 -35z m1110 17 c-7 -8 -17 -15 -23 -15 -6 0 -2 7 9 15 25 19 30
19 14 0z m108 1 c-7 -8 -15 -12 -17 -11 -5 6 10 25 20 25 5 0 4 -6 -3 -14z
m-2972 -13 c-1 -18 13 -20 62 -9 24 5 29 -3 10 -22 -10 -10 -6 -18 17 -36 17
-13 27 -27 23 -31 -4 -4 -21 7 -38 25 -25 27 -28 35 -18 49 9 12 7 11 -9 -2
-13 -12 -23 -14 -26 -7 -3 6 -4 5 -2 -2 1 -7 8 -12 14 -10 13 2 15 -14 3 -22
-11 -7 -64 62 -57 74 10 16 23 11 21 -7z m2590 -5 c-20 -29 -169 -159 -175
-153 -2 3 8 14 23 26 34 27 28 34 -10 14 -16 -8 -36 -15 -44 -15 -8 0 12 13
45 29 33 17 83 50 110 75 54 50 75 59 51 24z m354 -2 c0 -2 -8 -10 -17 -17
-16 -13 -17 -12 -4 4 13 16 21 21 21 13z m-140 -31 c-13 -14 -26 -23 -28 -20
-4 4 38 44 47 45 3 0 -6 -11 -19 -25z m2920 22 c0 -2 -10 -12 -22 -23 l-23
-19 19 23 c18 21 26 27 26 19z m-3079 -34 c-6 -10 -23 -32 -38 -49 -15 -17
-42 -46 -59 -65 -17 -19 -44 -45 -60 -59 -16 -14 -2 4 31 40 33 36 76 84 95
108 36 45 47 53 31 25z m258 5 c-2 -2 -22 -19 -44 -38 l-40 -35 39 42 c22 24
42 40 45 38 2 -3 2 -6 0 -7z m-949 -59 c30 -10 47 -18 38 -18 -22 -1 -150 47
-163 60 -5 6 8 3 30 -6 22 -10 65 -26 95 -36z m3670 47 c0 -2 -8 -10 -17 -17
-16 -13 -17 -12 -4 4 13 16 21 21 21 13z m-5544 -46 c0 -3 8 -31 19 -62 12
-37 22 -53 27 -45 11 18 10 29 -4 21 -8 -5 -9 -2 -5 10 4 10 7 32 7 48 0 49
10 27 15 -35 3 -33 1 -58 -5 -62 -5 -3 -10 -13 -10 -21 0 -8 4 -13 9 -9 5 3
12 1 16 -5 3 -5 2 -10 -3 -10 -5 0 -10 -41 -11 -92 -2 -117 -11 -130 -11 -16
0 95 -22 183 -65 256 -27 48 -24 75 5 45 10 -10 17 -20 16 -23z m2684 37 c0
-2 -10 -12 -22 -23 l-23 -19 19 23 c18 21 26 27 26 19z m-2067 -22 c-3 -9 -8
-14 -10 -11 -3 3 -2 9 2 15 9 16 15 13 8 -4z m67 5 c0 -6 18 -33 40 -61 22
-28 40 -55 40 -59 0 -5 6 -15 13 -22 15 -17 36 -52 85 -141 95 -174 138 -242
155 -242 7 -1 11 -7 9 -14 -4 -19 27 -51 44 -44 11 4 9 14 -11 47 -14 22 -29
40 -35 39 -5 -2 -6 5 -3 14 5 12 3 14 -7 8 -9 -5 -11 -4 -6 3 10 16 -21 72
-40 72 -11 0 -13 6 -9 20 4 12 1 28 -7 37 -7 9 -8 14 -2 10 6 -3 28 -39 48
-79 21 -40 47 -85 57 -99 29 -42 91 -170 85 -177 -12 -11 -77 63 -147 165 -38
56 -69 104 -69 106 0 3 -20 40 -45 81 -25 42 -45 79 -45 82 0 9 -150 233 -160
239 -13 8 -13 25 0 25 6 0 10 -5 10 -10z m4880 -13 c0 -2 -12 -14 -27 -28
l-28 -24 24 28 c23 25 31 32 31 24z m-2930 -11 c0 -3 -15 -14 -32 -26 l-33
-22 30 26 c31 27 35 29 35 22z m2850 1 c0 -2 -12 -14 -27 -28 l-28 -24 24 28
c23 25 31 32 31 24z m-5453 -29 c-3 -8 -6 -5 -6 6 -1 11 2 17 5 13 3 -3 4 -12
1 -19z m2703 15 c0 -5 -13 -17 -28 -27 l-27 -19 24 26 c26 28 31 32 31 20z
m-2133 -85 c-2 -18 -4 -6 -4 27 0 33 2 48 4 33 2 -15 2 -42 0 -60z m453 78 c0
-2 -8 -10 -17 -17 -16 -13 -17 -12 -4 4 13 16 21 21 21 13z m955 -5 l40 -9
-35 0 c-19 0 -46 4 -60 8 -20 6 -21 8 -5 8 11 1 38 -3 60 -7z m275 -5 c0 -2
-9 -6 -20 -9 -11 -3 -18 -1 -14 4 5 9 34 13 34 5z m-92 -13 c-27 -2 -69 -2
-95 0 -27 2 -5 3 47 3 52 0 74 -1 48 -3z m1766 -9 c3 -8 2 -12 -4 -9 -6 3 -10
10 -10 16 0 14 7 11 14 -7z m-1434 -35 c-40 -36 -98 -76 -77 -53 14 15 112 93
117 93 3 0 -15 -18 -40 -40z m246 4 c-14 -15 -26 -25 -26 -20 0 10 43 58 48
53 2 -3 -8 -17 -22 -33z m590 17 c0 -12 -4 -16 -9 -11 -5 5 -6 14 -3 20 10 15
12 14 12 -9z m509 10 c-3 -5 -18 -9 -33 -9 l-27 1 30 8 c17 4 31 8 33 9 2 0 0
-3 -3 -9z m1635 7 c0 -1 -33 -34 -72 -72 l-73 -70 70 73 c64 67 75 77 75 69z
m-3180 -11 c0 -3 -15 -14 -32 -26 l-33 -22 30 26 c31 27 35 29 35 22z m344
-10 c-3 -8 -13 -17 -22 -21 -13 -5 -13 -2 3 15 21 24 26 25 19 6z m1032 -14
c-17 -16 -18 -16 -5 5 7 12 15 20 18 17 3 -2 -3 -12 -13 -22z m-2571 -12 c3
-6 -1 -7 -9 -4 -18 7 -21 14 -7 14 6 0 13 -4 16 -10z m2215 -22 l23 -33 -25
23 -25 23 -44 -52 c-52 -61 -88 -99 -95 -99 -3 0 133 163 142 170 0 0 11 -15
24 -32z m-720 18 c0 -2 -8 -10 -17 -17 -16 -13 -17 -12 -4 4 13 16 21 21 21
13z m-395 -31 c-16 -13 -52 -36 -80 -50 -53 -27 -48 -23 44 37 65 43 78 47 36
13z m494 8 c-16 -20 -84 -82 -154 -143 -27 -23 -3 3 55 58 102 98 127 120 99
85z m-2154 -13 c3 -5 1 -10 -4 -10 -6 0 -11 5 -11 10 0 6 2 10 4 10 3 0 8 -4
11 -10z m42 -47 c-3 -10 -5 -2 -5 17 0 19 2 27 5 18 2 -10 2 -26 0 -35z m1758
28 c-3 -6 -11 -11 -17 -11 -6 0 -6 6 2 15 14 17 26 13 15 -4z m45 -6 c-14 -8
-29 -14 -35 -14 -5 0 1 6 15 14 14 8 30 14 35 14 6 0 -1 -6 -15 -14z m135 5
c-3 -5 -12 -10 -18 -10 -7 0 -6 4 3 10 19 12 23 12 15 0z m1440 -16 c9 -15 12
-23 6 -20 -11 7 -35 46 -28 46 3 0 12 -12 22 -26z m-4685 -2 c0 -11 80 -94
121 -125 20 -15 65 -39 100 -52 35 -14 129 -58 208 -98 139 -70 146 -74 202
-145 32 -40 77 -104 99 -141 36 -60 48 -72 93 -91 60 -26 80 -19 85 28 4 40
-20 86 -73 142 -49 51 -72 114 -80 219 -2 36 -2 57 2 46 3 -11 12 -25 21 -31
11 -8 12 -13 4 -18 -14 -8 -15 -55 -3 -75 5 -8 32 -17 61 -21 44 -6 50 -4 45
9 -5 13 -4 14 6 4 7 -7 19 -13 27 -13 10 0 11 4 5 13 -18 23 -55 126 -50 139
4 8 6 6 6 -5 1 -9 15 -47 31 -84 17 -36 30 -72 30 -79 0 -16 108 -100 153
-119 49 -20 212 -43 352 -49 140 -6 170 -15 285 -86 163 -102 198 -114 342
-118 122 -4 131 -3 181 22 57 27 96 71 108 120 7 30 7 30 8 4 1 -15 6 -30 11
-33 6 -3 10 -12 10 -18 0 -8 -3 -8 -9 1 -6 11 -10 10 -15 -3 -3 -10 -1 -24 5
-31 7 -9 8 -14 1 -14 -5 0 -13 7 -16 16 -9 23 -36 -1 -29 -26 3 -12 -3 -22
-19 -31 -21 -11 -22 -11 -9 5 8 9 11 19 7 23 -3 3 -6 2 -6 -4 0 -6 -10 -14
-22 -17 l-23 -6 25 -15 c30 -17 22 -19 -16 -5 -32 12 -75 3 -53 -11 9 -6 3 -8
-21 -7 -26 2 -35 -1 -34 -12 1 -12 -9 -14 -48 -12 -26 2 -46 8 -43 12 3 4 -2
11 -11 14 -8 3 -12 2 -9 -4 3 -5 -10 -8 -32 -6 -21 2 -46 -1 -55 -6 -12 -5
-18 -5 -18 2 0 5 -5 10 -11 10 -5 0 -7 -5 -3 -11 3 -6 0 -15 -7 -20 -12 -8
-12 -11 1 -19 13 -8 13 -11 0 -25 -14 -13 -16 -13 -17 7 -1 11 -7 24 -13 28
-6 4 -8 14 -5 22 4 11 -1 18 -14 23 -29 9 -45 -3 -30 -21 6 -8 8 -14 3 -14 -5
0 -3 -4 5 -9 11 -7 11 -12 0 -32 l-14 -24 -3 23 c-2 12 -11 23 -20 23 -15 1
-15 2 0 6 14 4 16 8 8 24 -6 10 -7 19 -3 19 4 0 2 4 -5 9 -8 5 -17 24 -21 42
-5 23 -13 34 -24 33 -9 -1 -14 3 -11 8 3 5 13 7 21 4 8 -3 12 -2 9 3 -8 13
-46 21 -43 9 1 -6 -5 -13 -13 -15 -12 -4 -13 -3 -1 5 11 8 9 11 -8 17 -14 4
-20 12 -17 21 4 10 0 14 -11 12 -10 -2 -18 3 -18 10 0 6 -4 12 -9 11 -5 0 -12
5 -16 11 -11 18 -83 28 -159 23 -91 -6 -253 6 -245 19 3 5 12 7 20 4 7 -3 16
-1 19 4 6 10 -106 25 -190 24 -120 -1 -216 -34 -174 -59 6 -4 8 -13 5 -21 -4
-11 -2 -11 13 -2 11 6 26 8 37 3 18 -8 18 -8 1 -12 -9 -3 -15 -8 -12 -13 3 -5
1 -11 -5 -15 -5 -3 -10 -1 -10 4 0 6 -4 11 -10 11 -5 0 -10 -6 -10 -13 0 -7
-12 -20 -27 -30 l-28 -17 43 6 c37 6 42 5 36 -11 -5 -13 -9 -14 -15 -3 -7 10
-9 10 -9 -2 0 -8 3 -25 6 -37 5 -18 10 -20 37 -12 47 13 57 11 57 -11 0 -12
-7 -20 -17 -20 -14 0 -14 -3 -5 -12 10 -10 14 -10 20 0 6 9 17 7 47 -8 27 -14
59 -20 102 -20 63 0 63 0 78 -36 8 -20 12 -41 8 -47 -3 -5 -1 -7 5 -3 6 3 17
-1 26 -10 14 -14 14 -19 -4 -54 -12 -24 -16 -41 -10 -45 6 -3 10 -19 10 -34 0
-19 7 -31 23 -39 l22 -11 -22 0 c-13 -1 -23 -5 -23 -11 0 -15 -17 -12 -23 4
-4 10 -1 13 9 9 7 -3 14 0 14 6 0 6 -7 11 -16 11 -10 0 -14 6 -10 15 8 23 0
18 -18 -10 -9 -14 -13 -24 -9 -23 4 2 9 -1 10 -5 5 -19 34 -37 58 -37 15 0 24
-4 20 -10 -3 -5 1 -10 9 -10 21 0 20 27 0 38 -14 8 -13 10 9 16 14 3 36 1 49
-4 20 -9 19 -10 -10 -5 -29 4 -31 3 -23 -14 6 -10 7 -21 4 -25 -3 -3 1 -6 10
-6 10 0 14 6 11 14 -3 9 4 15 23 19 36 7 43 0 12 -12 -13 -5 -19 -10 -13 -10
7 -1 27 6 45 14 25 10 29 14 14 15 -18 1 -17 2 4 11 13 5 30 17 37 27 7 9 14
12 14 5 0 -6 -7 -19 -16 -27 -8 -9 -12 -16 -7 -16 26 1 78 90 52 90 -15 0 -22
-22 -9 -30 7 -4 8 -10 3 -13 -6 -4 -16 6 -22 21 -7 15 -9 24 -5 20 4 -4 13 -3
20 3 15 12 37 3 29 -12 -9 -14 5 -11 20 5 8 7 12 16 9 19 -8 8 57 19 92 16 57
-4 65 -1 62 28 -2 19 2 28 15 31 14 3 17 -4 17 -40 0 -25 -7 -54 -17 -68 -12
-17 -13 -25 -5 -28 7 -2 12 -11 12 -20 -1 -14 -5 -12 -20 7 -11 13 -20 18 -20
12 0 -18 5 -26 14 -23 5 2 6 -4 2 -13 -3 -9 -2 -13 4 -10 18 11 81 15 75 5 -3
-5 1 -20 8 -32 8 -13 18 -54 21 -92 5 -54 3 -73 -9 -93 -9 -13 -17 -42 -18
-63 -1 -23 -4 -34 -9 -27 -5 8 -8 4 -8 -10 0 -12 5 -25 10 -28 6 -3 10 -14 10
-23 0 -14 -2 -14 -13 2 -12 16 -15 12 -30 -40 -9 -33 -18 -75 -19 -94 -2 -19
-7 -38 -11 -41 -5 -4 -10 -24 -10 -47 -1 -22 -6 -38 -11 -35 -4 3 -5 -5 -1
-18 7 -24 7 -24 -9 -4 -16 19 -17 19 -14 -16 3 -29 1 -36 -11 -31 -10 4 -12 1
-6 -8 6 -9 4 -11 -4 -5 -9 5 -10 10 -2 18 19 19 12 31 -8 13 -14 -13 -19 -27
-16 -52 5 -36 4 -38 -40 -48 -22 -5 -26 -4 -15 4 13 8 13 10 -2 10 -10 0 -18
-4 -18 -9 0 -9 -98 -6 -139 4 -20 5 -22 8 -10 16 12 8 12 10 -1 19 -8 5 -21 8
-27 5 -7 -2 -13 0 -13 5 0 5 -7 7 -15 4 -8 -4 -12 -10 -9 -15 3 -6 1 -15 -4
-22 -7 -8 -7 -28 -1 -59 8 -36 15 -48 32 -51 21 -3 21 -4 3 -12 -25 -11 -50 6
-56 39 -5 26 -5 26 -22 7 -9 -10 -14 -22 -11 -25 4 -3 2 -6 -4 -6 -5 0 -14 10
-20 22 -5 12 -20 22 -34 23 -13 1 -40 5 -59 9 -32 6 -33 6 -15 -7 11 -8 35
-18 53 -22 l32 -7 -5 -56 c-6 -68 -6 -114 0 -121 3 -2 5 14 5 37 l0 42 40 0
c22 0 49 5 59 12 20 12 56 4 46 -11 -3 -5 4 -12 15 -16 23 -7 25 -16 8 -33
-22 -22 34 -14 58 9 14 13 24 17 29 10 3 -6 1 -11 -5 -11 -6 0 -8 -4 -5 -10
10 -17 48 -12 41 5 -3 8 4 21 16 29 19 13 25 13 52 -1 17 -9 46 -18 65 -20
l34 -4 -17 26 c-10 15 -15 29 -12 33 3 3 6 1 6 -5 0 -6 18 -13 40 -17 29 -5
38 -10 34 -21 -4 -8 -3 -15 0 -15 14 0 95 66 96 78 0 8 16 12 46 12 25 0 43
-4 40 -9 -4 -5 3 -7 15 -4 14 4 17 8 9 13 -16 10 -4 30 17 30 13 0 14 -8 9
-40 -5 -34 -4 -40 11 -40 14 0 15 -2 4 -9 -7 -5 -12 -14 -10 -20 3 -7 11 -3
21 9 10 11 13 20 8 20 -6 0 -10 9 -10 20 0 25 18 26 27 3 3 -10 13 -26 21 -36
8 -9 12 -20 7 -25 -4 -4 -10 -1 -12 6 -6 16 -23 5 -23 -14 0 -8 5 -12 10 -9 6
3 10 0 10 -8 0 -8 -8 -14 -17 -13 -11 0 -17 -5 -15 -13 2 -9 -3 -11 -15 -7
-13 5 -15 4 -7 -4 13 -13 52 4 67 27 20 31 66 0 67 -45 0 -12 5 -21 12 -20 7
2 12 -4 13 -12 0 -8 6 -25 12 -36 15 -27 5 -40 -13 -16 -8 9 -14 12 -14 5 0
-6 5 -15 10 -18 6 -3 10 -16 10 -28 0 -20 2 -19 15 6 8 15 17 43 21 63 3 19
10 37 16 40 5 3 6 15 3 27 -5 18 -4 19 4 7 9 -12 10 -11 8 7 -2 12 -6 26 -10
29 -11 11 -8 26 3 19 6 -3 10 -1 10 4 0 14 -13 14 -28 -1 -9 -9 -7 -15 6 -25
15 -13 13 -14 -17 -9 -18 3 -40 6 -47 6 -8 0 -14 4 -14 9 0 5 10 7 22 3 17 -4
20 -2 15 11 -4 11 -1 17 8 17 8 0 15 5 15 11 0 5 -8 9 -17 8 -31 -3 -34 0 -23
21 7 14 7 20 0 20 -5 0 -10 -6 -11 -12 0 -7 -5 0 -11 16 -7 20 -7 30 0 35 16
10 0 29 -28 32 -17 3 -24 9 -22 21 2 14 -10 17 -80 20 -46 2 -85 2 -87 1 -2
-1 8 -7 23 -12 14 -6 26 -15 26 -20 0 -5 12 -12 28 -14 15 -2 -2 -4 -38 -4
-36 0 -54 2 -40 4 37 7 49 23 17 23 -34 0 -54 41 -38 78 7 15 7 21 1 17 -13
-8 -13 6 0 39 6 17 6 25 -1 23 -6 -1 -16 16 -24 38 -13 37 -13 41 10 71 15 20
22 40 19 55 -3 17 -2 19 3 7 7 -15 10 -14 20 8 10 22 10 25 -3 20 -9 -3 -12
-2 -9 5 4 5 15 7 26 4 11 -4 19 -2 19 4 0 6 7 11 15 11 9 0 12 6 9 15 -4 8 -1
15 6 15 6 0 8 -5 4 -12 -4 -7 -3 -8 5 -4 6 4 9 12 6 17 -4 5 1 9 9 9 19 0 59
38 52 49 -3 4 7 6 22 4 l27 -4 -27 16 c-37 21 -36 30 2 10 35 -18 41 -19 38
-4 -2 6 4 14 12 16 13 4 13 3 0 -7 -13 -10 -13 -11 0 -7 9 2 14 13 12 25 -3
22 7 27 71 36 54 8 44 -9 -28 -48 -144 -78 -234 -149 -271 -212 -27 -47 -34
-98 -15 -117 6 -6 11 -29 11 -52 0 -22 7 -51 16 -64 14 -20 22 -22 58 -17 22
3 49 7 58 8 9 1 15 5 12 9 -9 15 29 18 55 4 35 -18 65 -78 58 -115 -6 -30 15
-70 37 -70 19 0 46 -45 46 -76 0 -15 -7 -36 -16 -46 -12 -12 -14 -21 -7 -30
20 -25 41 -642 23 -653 -3 -2 -7 29 -8 68 -7 177 -51 378 -118 531 -19 44 -34
85 -34 93 0 20 -28 16 -42 -7 -16 -25 -65 -27 -72 -2 -3 9 -6 40 -8 68 -2 28
-7 51 -13 52 -96 18 -93 19 -151 -55 -38 -49 -86 -60 -151 -34 -65 25 -83 19
-134 -48 -51 -66 -91 -83 -172 -75 -69 7 -70 6 -121 -56 -16 -20 -24 -22 -77
-17 -32 3 -61 1 -64 -4 -7 -11 -36 -174 -33 -186 1 -4 -4 -28 -11 -52 -8 -30
-11 -77 -7 -138 3 -51 2 -93 -3 -93 -16 0 -19 41 -21 248 0 113 -3 209 -6 212
-11 10 -43 -42 -64 -105 -14 -41 -26 -119 -34 -215 -14 -155 -28 -204 -39
-133 -4 21 -12 104 -18 185 -10 127 -9 151 4 177 10 19 12 33 6 37 -33 20 -42
189 -14 245 16 30 71 46 124 34 37 -8 46 6 30 49 -10 29 -10 36 4 50 8 9 18
26 22 39 27 96 57 120 147 117 86 -4 95 -2 133 35 50 47 91 53 152 24 93 -46
151 -28 209 63 68 106 174 588 130 588 -7 0 -37 -19 -67 -41 -62 -48 -134 -83
-150 -74 -6 4 5 18 25 33 82 63 104 119 71 181 -14 28 -33 41 -62 41 -8 0 -41
-25 -72 -55 -70 -67 -134 -92 -253 -101 -131 -10 -258 9 -326 47 -116 65 -130
70 -203 75 -179 12 -189 29 -16 28 103 -1 129 -4 169 -23 128 -59 265 -41 309
40 12 24 28 100 19 94 -4 -2 -12 7 -18 20 -14 31 -54 41 -109 27 -88 -24 -239
-4 -317 42 -55 32 -100 81 -91 97 5 7 4 10 -2 6 -9 -6 -43 52 -43 73 0 5 -31
55 -69 112 -80 118 -185 233 -253 276 -26 16 -44 32 -41 36 4 4 0 4 -9 1 -29
-12 -182 80 -259 155 -31 30 -71 90 -60 90 6 0 11 -3 11 -8z m3048 -5 c14 4
14 3 3 -5 -8 -6 -21 -8 -29 -4 -10 3 -13 1 -8 -6 4 -7 -22 -20 -74 -36 -104
-33 -136 -33 -45 0 39 14 78 25 89 25 10 0 16 3 12 6 -3 3 2 12 12 19 9 7 18
9 20 4 2 -5 11 -6 20 -3z m-2264 -32 c3 -8 1 -15 -4 -15 -6 0 -10 7 -10 15 0
8 2 15 4 15 2 0 6 -7 10 -15z m1201 5 c3 -6 -1 -7 -9 -4 -18 7 -21 14 -7 14 6
0 13 -4 16 -10z m-636 -165 c-1 -22 -28 62 -28 87 -1 14 -5 28 -11 30 -5 2 -7
14 -3 28 5 19 10 8 24 -55 10 -44 18 -84 18 -90z m1416 155 c-27 -12 -43 -12
-25 0 8 5 22 9 30 9 10 0 8 -3 -5 -9z m365 6 c0 -2 -7 -7 -16 -10 -8 -3 -12
-2 -9 4 6 10 25 14 25 6z m4604 -2 c9 -3 16 -10 16 -15 0 -6 -9 -5 -20 1 -11
6 -32 8 -47 4 -22 -4 -25 -3 -13 5 17 12 41 14 64 5z m-224 -15 c13 -9 13 -10
0 -6 -8 2 -22 -6 -31 -17 -17 -21 -17 -21 -12 7 6 29 18 34 43 16z m-4833 -15
c-3 -3 -12 -4 -19 -1 -8 3 -5 6 6 6 11 1 17 -2 13 -5z m2104 -45 c-5 -26 -9
-34 -10 -19 -1 27 9 73 15 67 2 -2 0 -23 -5 -48z m1119 47 c0 -2 -8 -10 -17
-17 -16 -13 -17 -12 -4 4 13 16 21 21 21 13z m110 1 c0 -2 -10 -12 -22 -23
l-23 -19 19 23 c18 21 26 27 26 19z m1563 -4 c-7 -2 -19 -2 -25 0 -7 3 -2 5
12 5 14 0 19 -2 13 -5z m-5778 -13 c3 -6 -1 -7 -9 -4 -18 7 -21 14 -7 14 6 0
13 -4 16 -10z m828 3 c-7 -2 -19 -2 -25 0 -7 3 -2 5 12 5 14 0 19 -2 13 -5z
m2127 -8 c0 -2 -7 -5 -15 -9 -9 -3 -15 0 -15 9 0 9 6 12 15 9 8 -4 15 -7 15
-9z m-3020 -6 c-12 -9 -11 -10 8 -6 12 3 20 2 17 -3 -3 -4 7 -11 21 -14 15 -4
24 -9 21 -13 -3 -3 -26 3 -51 12 -25 10 -53 14 -63 11 -12 -5 -14 -4 -8 2 9 9
36 18 60 21 6 0 3 -4 -5 -10z m849 7 c-2 -2 -33 -6 -69 -9 -41 -3 -54 -2 -35
3 31 8 112 13 104 6z m1281 -4 c0 -4 -10 -13 -22 -21 -23 -14 -23 -14 -4 8 20
22 26 25 26 13z m-1637 -9 c-7 -2 -21 -2 -30 0 -10 3 -4 5 12 5 17 0 24 -2 18
-5z m197 -3 c-14 -4 -59 -8 -100 -7 l-75 1 75 6 c41 4 86 7 100 7 l25 1 -25
-8z m4730 0 c0 -5 -5 -10 -11 -10 -5 0 -7 5 -4 10 3 6 8 10 11 10 2 0 4 -4 4
-10z m-5220 -16 l25 -15 -25 7 c-14 3 -29 10 -34 15 -16 14 6 10 34 -7z m4244
-31 c-10 -15 -22 -31 -27 -34 -5 -3 -10 -15 -11 -25 -2 -10 -6 -18 -9 -16 -4
1 -12 2 -17 2 -6 0 -2 10 10 22 11 12 30 36 42 54 27 40 37 37 12 -3z m771 25
c3 3 3 -1 0 -10 -6 -16 -9 -16 -31 -1 -31 20 -31 25 0 13 13 -5 27 -6 31 -2z
m-4075 -13 c-19 -7 -42 -13 -50 -13 -8 0 1 6 20 13 19 7 42 13 50 13 8 0 -1
-6 -20 -13z m1853 -16 c5 -19 3 -26 -8 -26 -16 0 -19 15 -9 42 8 19 9 18 17
-16z m1117 28 c0 -2 -15 -16 -32 -33 l-33 -29 29 33 c28 30 36 37 36 29z m110
0 c0 -2 -12 -14 -27 -28 l-28 -24 24 28 c23 25 31 32 31 24z m-4100 -17 c18
-12 2 -12 -25 0 -13 6 -15 9 -5 9 8 0 22 -4 30 -9z m1355 0 c-3 -5 -20 -19
-38 -30 -32 -22 -32 -22 3 9 37 32 45 37 35 21z m656 -42 c21 -17 21 -18 2 -9
-28 14 -53 39 -53 54 0 6 6 3 13 -7 7 -10 24 -27 38 -38z m-1951 22 c18 -12 2
-12 -25 0 -13 6 -15 9 -5 9 8 0 22 -4 30 -9z m249 -6 c8 -7 -84 -2 -114 6 -18
5 -2 6 40 3 39 -3 72 -7 74 -9z m598 0 c-3 -3 -12 -4 -19 -1 -8 3 -5 6 6 6 11
1 17 -2 13 -5z m1306 -5 c17 -1 -45 -28 -63 -28 -8 0 -5 4 8 10 14 5 20 13 16
21 -5 8 -2 9 10 5 10 -4 23 -7 29 -8z m-2073 -9 c20 -6 21 -8 5 -8 -11 0 -29
3 -40 8 -25 11 1 11 35 0z m213 3 c-7 -2 -19 -2 -25 0 -7 3 -2 5 12 5 14 0 19
-2 13 -5z m504 1 c-3 -3 -12 -4 -19 -1 -8 3 -5 6 6 6 11 1 17 -2 13 -5z m2060
-16 c-3 -8 -6 -5 -6 6 -1 11 2 17 5 13 3 -3 4 -12 1 -19z m-2459 5 c-10 -2
-28 -2 -40 0 -13 2 -5 4 17 4 22 1 32 -1 23 -4z m355 0 c-7 -2 -21 -2 -30 0
-10 3 -4 5 12 5 17 0 24 -2 18 -5z m1127 -3 c0 -5 -2 -10 -4 -10 -3 0 -8 5
-11 10 -3 6 -1 10 4 10 6 0 11 -4 11 -10z m-2004 -36 c21 -20 39 -40 39 -44 0
-5 4 -12 9 -17 5 -5 6 -2 1 6 -4 7 -4 12 1 9 153 -74 217 -92 364 -104 89 -7
92 -8 45 -14 -27 -4 -52 -3 -55 1 -3 5 -21 4 -40 -1 -19 -5 -50 -11 -68 -14
-41 -6 -48 -11 -27 -20 11 -4 14 -2 9 7 -4 6 3 3 15 -8 16 -14 37 -19 78 -19
30 0 49 -2 42 -5 -8 -2 6 -9 31 -16 30 -7 52 -8 65 -1 17 8 18 7 7 -6 -10 -13
-10 -17 3 -22 8 -3 15 -10 15 -15 0 -6 -16 -1 -36 11 -19 11 -54 23 -77 26
-62 7 -184 46 -254 82 -38 19 -89 58 -129 98 -88 90 -117 138 -38 66z m442 -1
c85 -15 149 -29 144 -31 -13 -4 -286 44 -327 58 l-30 10 30 -4 c17 -3 99 -17
183 -33z m245 30 c3 -5 -18 -7 -46 -5 -92 5 -104 9 -30 11 39 0 74 -2 76 -6z
m125 0 c-10 -2 -26 -2 -35 0 -10 3 -2 5 17 5 19 0 27 -2 18 -5z m532 3 c0 -2
-8 -10 -17 -17 -16 -13 -17 -12 -4 4 13 16 21 21 21 13z m639 -8 c-2 -2 -27
-23 -54 -48 l-50 -45 45 48 c24 26 48 47 54 47 5 0 7 -1 5 -2z m199 -5 c-10
-2 -26 -2 -35 0 -10 3 -2 5 17 5 19 0 27 -2 18 -5z m-2599 -63 c0 -9 -4 -8 -9
5 -5 11 -9 27 -9 35 0 9 4 8 9 -5 5 -11 9 -27 9 -35z m1720 46 c-2 -2 -15 -9
-29 -15 -24 -11 -24 -11 -6 3 16 13 49 24 35 12z m1663 -7 c18 11 20 11 14 -4
-3 -9 -6 -24 -6 -33 0 -15 -2 -15 -10 -2 -9 15 -13 16 -50 19 -11 0 -20 8 -20
16 0 12 4 13 26 3 20 -9 30 -9 46 1z m-765 -36 c-8 -15 -25 -37 -38 -48 -20
-17 -19 -15 4 16 29 39 35 57 14 43 -7 -5 -4 -1 6 9 26 23 32 15 14 -20z
m1122 3 c-14 -29 -29 -34 -29 -10 0 15 31 47 38 39 1 -1 -3 -14 -9 -29z m205
-5 c-5 -24 -10 -29 -19 -21 -15 13 -74 10 -82 -4 -7 -10 -21 18 -22 43 -1 9 3
11 12 3 6 -5 31 -12 55 -14 34 -3 43 0 48 15 9 29 15 14 8 -22z m151 6 c-10
-23 -45 -29 -45 -7 0 12 9 20 23 22 28 5 29 4 22 -15z m255 19 c0 -2 -8 -10
-17 -17 -16 -13 -17 -12 -4 4 13 16 21 21 21 13z m-671 -28 c-5 -10 -16 -15
-24 -12 -9 4 -23 0 -32 -7 -15 -12 -16 -12 -10 4 4 10 7 22 7 26 0 3 15 6 34
6 29 0 33 -3 25 -17z m-2524 -14 c24 -11 25 -12 5 -7 -14 3 -50 12 -80 19
l-55 13 50 -5 c27 -3 63 -12 80 -20z m471 11 c-11 -8 -24 -15 -30 -15 -5 0 -1
7 10 15 10 8 24 14 29 14 6 0 1 -6 -9 -14z m3518 -45 c-10 -16 -20 -28 -22
-26 -4 5 28 56 35 56 2 0 -4 -13 -13 -30z m-3919 10 c8 -13 -5 -13 -25 0 -13
8 -13 10 2 10 9 0 20 -4 23 -10z m325 0 c-8 -5 -22 -9 -30 -9 -10 0 -8 3 5 9
27 12 43 12 25 0z m695 -42 c-28 -29 -58 -58 -67 -66 -19 -14 -25 -38 -8 -27
6 4 9 1 8 -7 -2 -8 7 -13 24 -13 18 1 24 -3 18 -9 -14 -14 -64 5 -68 26 -2 10
23 42 65 82 82 79 96 86 28 14z m-964 18 c19 -7 56 -14 84 -15 70 -3 70 -11
-1 -11 -39 1 -71 7 -94 20 -41 23 -36 25 11 6z m199 -1 c-14 -8 -32 -14 -40
-14 -8 0 -1 6 15 14 40 18 57 18 25 0z m2565 -21 c-8 -16 -15 -23 -15 -16 0
17 20 55 26 49 2 -2 -2 -17 -11 -33z m-358 -16 c-3 -7 -5 -2 -5 12 0 14 2 19
5 13 2 -7 2 -19 0 -25z m1383 -38 c-23 -27 -47 -53 -53 -57 -7 -4 10 19 37 50
27 31 51 57 53 57 3 0 -14 -22 -37 -50z m-860 37 c0 -2 -19 -21 -42 -42 l-43
-40 40 43 c36 39 45 47 45 39z m-3175 -32 c72 -19 150 -57 187 -93 30 -28 31
-44 1 -17 -10 9 -40 30 -66 47 -38 24 -55 29 -80 24 -18 -3 -26 -2 -19 2 15
10 -26 32 -61 32 -12 0 -29 5 -37 10 -23 15 4 13 75 -5z m1464 -1 c-25 -30
-98 -74 -121 -73 -22 1 -21 1 4 9 15 4 33 13 40 19 15 13 81 59 87 60 2 1 -2
-6 -10 -15z m1815 -9 c-9 -14 -19 -23 -22 -20 -5 4 26 45 35 45 2 0 -4 -11
-13 -25z m265 -2 c-38 -50 -59 -74 -59 -68 0 8 62 85 68 85 2 0 -2 -8 -9 -17z
m-149 -40 c-1 -10 -47 -63 -55 -63 -3 0 5 16 17 35 21 32 38 45 38 28z m-2295
-39 c17 -22 30 -26 97 -31 58 -4 78 -10 83 -22 5 -13 4 -14 -6 -3 -7 6 -33 12
-58 13 -62 1 -136 21 -136 37 0 6 -4 12 -10 11 -5 -1 -9 -5 -7 -10 1 -6 -3 -9
-10 -7 -17 3 -78 -30 -78 -42 0 -6 -9 -10 -20 -10 -11 0 -19 -6 -17 -12 1 -7
-5 -12 -14 -10 -9 1 -22 -5 -29 -13 -7 -8 -18 -15 -24 -15 -6 0 -29 -13 -52
-28 -35 -24 -39 -30 -26 -42 8 -7 31 -19 51 -26 20 -7 28 -13 18 -14 -27 0
-84 29 -91 47 -7 17 0 33 15 33 10 0 211 122 248 151 31 25 41 24 66 -7z m210
11 c6 -2 -16 -4 -47 -4 -32 -1 -58 3 -58 8 0 8 79 5 105 -4z m1150 -24 c-4
-17 -10 -31 -14 -31 -5 0 -3 15 3 34 13 42 21 39 11 -3z m1287 16 c-7 -8 -8
-18 -4 -22 4 -5 1 -5 -5 -1 -10 5 -10 11 -1 26 7 11 14 17 17 15 2 -3 -1 -11
-7 -18z m218 0 c0 -2 -10 -12 -22 -23 l-23 -19 19 23 c18 21 26 27 26 19z
m-490 -11 c0 -2 -8 -10 -17 -17 -16 -13 -17 -12 -4 4 13 16 21 21 21 13z
m-2150 -52 c-51 -52 -145 -121 -207 -153 -70 -35 -63 -24 13 22 71 42 140 94
176 132 19 20 19 20 -4 24 l-23 4 25 8 c62 18 66 11 20 -37z m-1386 20 c3 -8
2 -12 -4 -9 -6 3 -10 10 -10 16 0 14 7 11 14 -7z m1141 6 c3 -6 -1 -7 -9 -4
-18 7 -21 14 -7 14 6 0 13 -4 16 -10z m985 -26 c0 -14 -4 -23 -10 -19 -5 3
-10 15 -10 26 0 10 5 19 10 19 6 0 10 -12 10 -26z m-1825 -36 c36 -124 117
-194 275 -235 80 -21 120 -66 120 -136 0 -47 -28 -79 -103 -115 -77 -36 -102
-66 -111 -129 -7 -55 -34 -105 -69 -128 -13 -8 -53 -20 -88 -26 -82 -14 -97
-24 -138 -95 -19 -33 -50 -80 -68 -106 -45 -63 -153 -133 -153 -100 0 5 21 19
46 32 66 35 131 110 150 178 36 121 72 178 125 192 36 10 79 43 79 62 0 4 5 8
10 8 16 0 11 -14 -15 -40 -42 -43 -56 -52 -70 -46 -9 3 -12 0 -8 -10 3 -7 10
-14 16 -14 6 0 1 -7 -11 -16 -12 -8 -20 -20 -17 -25 4 -5 1 -9 -6 -9 -7 0 -10
-3 -7 -6 4 -3 17 2 31 11 17 11 27 13 32 5 3 -6 10 -8 14 -6 4 3 19 7 34 10
31 5 60 30 49 41 -4 5 1 5 10 2 12 -4 15 -2 11 9 -3 7 1 14 8 14 7 0 10 3 6 6
-3 4 0 22 8 41 14 34 11 68 -6 57 -5 -3 -6 3 -2 12 4 11 8 13 11 6 2 -7 8 -12
14 -12 6 0 7 7 4 16 -3 8 -2 12 4 9 14 -9 12 8 -2 25 -11 12 -10 12 3 2 14
-11 21 -8 45 18 16 16 37 30 46 30 9 0 29 5 45 11 22 8 25 12 13 21 -13 8 -12
9 2 5 20 -7 48 32 48 65 0 13 -12 40 -26 61 -22 33 -28 37 -42 25 -16 -12 -16
-11 -2 6 14 18 13 19 -3 13 -12 -4 -16 -3 -11 4 4 8 -4 9 -27 5 -24 -4 -28 -3
-14 3 16 6 9 10 -32 16 -29 4 -53 11 -53 17 0 6 -7 8 -15 4 -9 -3 -37 16 -74
52 -32 32 -64 56 -69 54 -6 -2 -13 2 -17 7 -3 7 0 8 9 5 9 -3 16 -1 16 5 0 6
-4 11 -10 11 -8 0 -17 25 -34 103 -11 47 3 29 19 -25z m3715 8 c-16 -25 -35
-48 -41 -52 -6 -3 6 17 26 45 45 63 58 68 15 7z m-790 30 c0 -2 -8 -10 -17
-17 -16 -13 -17 -12 -4 4 13 16 21 21 21 13z m-720 -16 c0 -5 -2 -10 -4 -10
-3 0 -8 5 -11 10 -3 6 -1 10 4 10 6 0 11 -4 11 -10z m860 6 c0 -2 -8 -10 -17
-17 -16 -13 -17 -12 -4 4 13 16 21 21 21 13z m600 0 c0 -2 -8 -10 -17 -17 -16
-13 -17 -12 -4 4 13 16 21 21 21 13z m-1400 -26 c-6 -11 -13 -20 -16 -20 -2 0
0 9 6 20 6 11 13 20 16 20 2 0 0 -9 -6 -20z m303 -55 c-7 -21 -12 -19 -10 4 0
11 5 18 9 15 4 -3 5 -11 1 -19z m-756 -17 c-3 -7 -5 -2 -5 12 0 14 2 19 5 13
2 -7 2 -19 0 -25z m-3270 -4 c-3 -3 -12 -4 -19 -1 -8 3 -5 6 6 6 11 1 17 -2
13 -5z m-137 -14 c-14 -4 -34 -8 -45 -8 l-20 -1 20 9 c11 5 31 8 45 8 l25 0
-25 -8z m3866 -18 c-17 -16 -18 -16 -5 5 7 12 15 20 18 17 3 -2 -3 -12 -13
-22z m-2566 8 c0 -5 -5 -10 -11 -10 -5 0 -7 5 -4 10 3 6 8 10 11 10 2 0 4 -4
4 -10z m2441 -13 c-10 -9 -11 -8 -5 6 3 10 9 15 12 12 3 -3 0 -11 -7 -18z
m-1650 -24 c13 -15 12 -15 -9 -4 -13 7 -38 10 -55 7 -25 -5 -27 -4 -12 3 31
15 61 13 76 -6z m3110 -6 c-10 -9 -11 -8 -5 6 3 10 9 15 12 12 3 -3 0 -11 -7
-18z m-2913 6 c-10 -2 -26 -2 -35 0 -10 3 -2 5 17 5 19 0 27 -2 18 -5z m49 1
c-3 -3 -12 -4 -19 -1 -8 3 -5 6 6 6 11 1 17 -2 13 -5z m-357 -14 c-8 -5 -32
-12 -54 -16 -37 -6 -39 -7 -21 -20 11 -8 26 -12 35 -9 11 5 12 3 4 -5 -9 -9
-17 -9 -32 -1 -11 6 -35 11 -53 11 -46 0 -31 9 48 30 79 21 94 23 73 10z m423
3 c-7 -2 -21 -2 -30 0 -10 3 -4 5 12 5 17 0 24 -2 18 -5z m2697 -17 c0 -2 -8
-10 -17 -17 -16 -13 -17 -12 -4 4 13 16 21 21 21 13z m-3890 -16 c8 -5 11 -10
5 -10 -5 0 -17 5 -25 10 -8 5 -10 10 -5 10 6 0 17 -5 25 -10z m-990 -4 c0 -2
-7 -7 -16 -10 -8 -3 -12 -2 -9 4 6 10 25 14 25 6z m-83 -12 c-3 -3 -12 -4 -19
-1 -8 3 -5 6 6 6 11 1 17 -2 13 -5z m2223 -4 c0 -5 -14 -24 -31 -42 -22 -24
-27 -26 -15 -8 9 14 19 33 23 43 6 18 23 24 23 7z m-1400 -36 c0 -4 6 -15 14
-23 13 -14 12 -18 -11 -28 -23 -11 -25 -10 -20 7 3 11 2 18 -3 15 -4 -3 -10 2
-14 10 -3 8 -11 15 -17 15 -8 0 -8 -4 1 -15 10 -12 10 -15 -4 -15 -25 0 -20
43 7 55 21 10 47 -2 47 -21z m200 21 c0 -8 -2 -15 -4 -15 -2 0 -6 7 -10 15 -3
8 -1 15 4 15 6 0 10 -7 10 -15z m1147 9 c-3 -3 -12 -4 -19 -1 -8 3 -5 6 6 6
11 1 17 -2 13 -5z m-337 -13 c0 -5 9 -11 19 -14 11 -3 30 -28 46 -60 14 -31
29 -57 33 -60 4 -2 1 -2 -5 -1 -18 5 -16 -13 2 -20 18 -7 88 22 80 33 -3 5 4
7 15 4 11 -3 20 -1 20 5 0 5 15 16 33 23 17 7 38 19 45 26 7 7 19 13 25 13 39
-2 -154 -110 -221 -125 -32 -7 -34 -6 -26 16 4 13 7 31 6 41 -1 25 -44 86 -69
99 -24 13 -31 29 -13 29 6 0 10 -4 10 -9z m452 -74 c-16 -34 -75 -127 -130
-206 -56 -79 -106 -160 -113 -180 -16 -50 -135 -333 -172 -406 -16 -33 -49
-90 -73 -126 -55 -83 -74 -128 -74 -173 0 -51 31 -76 93 -76 41 0 58 6 110 44
134 95 227 130 227 86 0 -20 1 -20 30 -5 28 15 33 35 9 35 -10 0 -39 24 -39
32 0 2 16 3 35 3 31 0 33 -2 18 -13 -15 -11 -14 -12 11 -10 21 2 26 7 23 20
-3 10 -1 16 4 12 15 -9 10 3 -8 17 -11 10 -14 10 -9 2 14 -25 -12 -12 -29 13
-9 15 -13 24 -8 22 4 -2 23 -10 41 -17 29 -12 32 -17 30 -49 -2 -21 2 -37 10
-39 7 -3 12 3 12 14 0 31 20 93 30 93 6 0 10 -16 10 -35 0 -47 18 -44 26 4 3
22 14 53 24 69 16 27 24 30 68 30 35 0 49 -4 46 -12 -3 -7 11 -20 31 -29 46
-22 56 -21 27 1 -19 15 -21 20 -10 29 8 7 22 7 36 2 23 -9 29 -24 12 -34 -5
-3 -6 -13 -3 -21 4 -12 0 -15 -18 -14 -47 4 -79 0 -79 -11 0 -7 11 -8 30 -4
17 4 30 2 30 -3 0 -15 32 -24 44 -12 5 5 16 10 23 10 18 0 16 -37 -2 -44 -8
-3 -15 -15 -15 -26 0 -12 -4 -18 -10 -15 -12 7 -12 3 -3 -20 5 -15 8 -14 19 6
13 24 13 24 14 2 0 -12 -4 -25 -10 -28 -5 -3 -10 -12 -10 -18 0 -7 7 -3 15 7
15 20 15 20 30 0 13 -18 14 -18 8 4 -3 12 -9 25 -14 28 -15 9 -10 24 5 18 8
-3 17 -17 20 -30 4 -16 11 -22 18 -18 9 6 9 9 0 12 -7 2 -12 12 -12 23 0 10
-5 19 -10 19 -6 0 -5 8 2 19 7 11 16 17 21 14 5 -3 4 -9 -2 -13 -13 -7 -4 -40
11 -40 5 0 6 5 3 10 -3 6 0 10 8 10 12 0 13 -6 5 -33 -7 -24 -25 -44 -59 -66
-64 -41 -81 -48 -73 -27 3 9 1 16 -5 16 -16 0 -13 -26 5 -41 13 -10 22 -10 52
1 47 17 92 50 92 67 0 7 12 18 27 24 21 8 30 6 42 -7 9 -9 11 -14 4 -10 -6 3
-14 2 -18 -4 -3 -5 -16 -10 -28 -11 -20 -1 -20 -2 3 -9 14 -4 34 -8 45 -9 16
-1 17 1 5 9 -8 5 -10 10 -5 10 21 0 54 -31 49 -45 -4 -8 -1 -15 5 -15 6 0 18
-14 26 -31 9 -17 19 -28 23 -25 3 4 0 12 -6 18 -7 7 -8 16 -2 23 5 6 11 30 12
52 2 23 6 39 10 36 11 -6 5 40 -5 48 -5 3 -9 46 -9 95 -1 105 -5 124 -25 124
-10 0 -13 -6 -9 -16 3 -8 2 -12 -4 -9 -6 3 -10 12 -10 19 0 21 -46 25 -65 7
-16 -15 -16 -14 -4 6 8 13 20 21 29 18 81 -24 95 -12 45 38 -31 31 -35 41 -35
86 0 29 5 51 11 51 5 0 7 5 3 12 -4 7 -3 8 4 4 8 -5 8 -15 1 -34 -13 -34 -4
-85 20 -106 27 -24 71 -11 85 25 6 16 17 29 26 29 12 0 16 -15 18 -72 2 -39 7
-79 13 -90 7 -14 6 -18 -6 -18 -19 0 -20 -29 0 -36 8 -4 12 -10 9 -16 -3 -5
-3 -29 1 -54 4 -32 11 -44 23 -45 9 0 2 -6 -15 -12 -18 -7 -42 -22 -54 -34
l-22 -22 27 3 c22 3 26 0 20 -13 -4 -9 -10 -70 -14 -136 -4 -66 -10 -128 -15
-138 -4 -9 -3 -17 2 -17 21 0 45 42 62 107 10 39 24 78 30 89 12 18 12 18 6
-1 -22 -62 -42 -221 -25 -195 6 9 10 10 10 3 0 -6 -5 -15 -10 -18 -8 -5 -8
-69 0 -113 0 -1 9 2 20 8 11 6 17 16 14 22 -5 7 -2 8 6 3 8 -5 23 5 42 26 17
20 25 25 19 13 -25 -51 -128 -113 -188 -114 -42 0 -43 -19 -3 -95 33 -62 35
-69 20 -60 -6 4 -7 -1 -3 -11 4 -12 8 -14 11 -5 3 9 11 6 28 -10 23 -22 24
-22 44 -4 11 10 18 25 16 32 -3 7 -1 13 4 13 6 0 10 -3 10 -8 0 -4 9 -13 20
-20 17 -10 23 -9 41 9 32 32 31 18 -2 -19 -19 -21 -29 -27 -29 -17 0 29 -29
28 -54 -2 -21 -23 -24 -35 -19 -73 8 -73 10 -76 38 -50 14 13 25 21 25 17 0
-3 -10 -15 -22 -27 -27 -25 -70 -25 -127 0 -24 11 -61 20 -83 20 -58 0 -118
20 -134 45 -8 12 -15 58 -18 110 -6 138 -16 149 -89 104 -55 -34 -55 -34 -53
-11 1 22 17 33 38 26 25 -8 31 14 7 26 -15 8 -19 9 -15 1 6 -10 -6 -15 -26
-12 -5 0 -8 -3 -8 -8 0 -5 -9 -13 -20 -16 -11 -3 -25 -15 -30 -25 -9 -16 -8
-18 6 -13 13 5 15 3 9 -8 -5 -8 -5 -11 1 -6 5 5 10 13 10 18 1 5 2 14 3 19 0
6 5 10 11 10 19 0 4 -40 -27 -73 -16 -17 -56 -67 -87 -109 -31 -43 -74 -91
-96 -107 -40 -29 -224 -95 -295 -106 -22 -3 1 7 50 23 183 57 214 82 306 234
30 51 60 93 66 93 6 0 15 4 20 9 5 6 2 6 -7 1 -8 -4 -1 7 15 24 45 49 152 108
225 125 77 19 83 19 75 6 -4 -6 6 -10 22 -9 27 0 27 1 6 9 -13 5 -23 15 -23
23 0 21 -58 104 -117 167 -45 50 -51 59 -38 70 15 12 21 4 16 -23 -1 -5 3 -6
9 -2 5 3 10 1 10 -6 0 -7 3 -10 6 -7 9 10 -27 59 -38 52 -15 -10 -4 30 12 43
25 20 -3 14 -29 -6 -14 -10 -32 -17 -40 -14 -14 4 -14 4 -1 -6 9 -6 18 -7 24
-1 16 16 30 11 16 -5 -10 -12 -10 -15 1 -15 10 0 10 -3 1 -12 -9 -9 -16 -7
-31 6 -26 23 -35 7 -26 -47 7 -38 6 -40 -9 -28 -9 8 -15 20 -12 27 3 8 2 13
-3 11 -4 -1 -20 13 -36 31 -15 18 -34 31 -41 28 -7 -3 -15 0 -18 7 -2 7 -4 3
-4 -8 1 -11 0 -29 -1 -40 -1 -17 -3 -18 -11 -5 -5 8 -10 25 -10 38 0 32 -25
27 -40 -8 -13 -32 -35 -42 -26 -12 3 9 1 23 -4 31 -7 12 -13 13 -34 3 -14 -6
-26 -16 -26 -22 0 -5 -4 -10 -10 -10 -5 0 -3 18 6 40 9 23 14 43 11 46 -3 3
-46 -15 -97 -40 -50 -26 -97 -43 -102 -40 -6 4 -9 3 -5 -2 6 -10 -131 -90
-139 -81 -9 8 97 78 108 71 6 -4 8 -3 5 3 -4 6 31 41 78 78 84 67 103 95 66
95 -21 0 -51 -25 -51 -41 0 -6 -14 -7 -32 -4 -39 7 -85 -10 -173 -66 -77 -48
-134 -69 -192 -69 -56 0 -90 23 -104 69 -18 61 10 144 100 300 43 75 126 228
183 341 134 262 174 328 259 428 20 23 52 76 70 117 19 41 36 70 37 65 2 -6
-10 -38 -26 -73z m-1672 33 c0 -5 -4 -10 -10 -10 -5 0 -10 5 -10 10 0 6 5 10
10 10 6 0 10 -4 10 -10z m4870 0 c0 -18 -79 -92 -90 -85 -15 9 -2 25 16 18 8
-3 14 -2 12 3 -1 5 11 23 27 40 35 37 35 37 35 24z m-4320 -14 c0 -2 -8 -10
-17 -17 -16 -13 -17 -12 -4 4 13 16 21 21 21 13z m114 -15 c33 -6 61 -11 63
-11 2 0 1 -5 -3 -12 -5 -8 -2 -9 9 -5 11 4 17 1 17 -9 0 -13 -7 -11 -39 7 -30
17 -48 20 -82 15 -24 -3 -52 -7 -61 -8 -9 -1 -15 -5 -12 -9 2 -4 -8 -28 -22
-54 -23 -40 -25 -50 -15 -72 10 -23 16 -25 49 -20 27 5 47 17 73 48 22 25 39
37 43 30 13 -20 -27 -71 -63 -79 -43 -11 -87 -12 -101 -3 -20 13 -21 98 -1
110 7 5 10 14 7 20 -10 15 45 72 64 66 8 -2 42 -9 74 -14z m2216 -5 c0 -2 -8
-10 -17 -17 -16 -13 -17 -12 -4 4 13 16 21 21 21 13z m-2800 -16 c0 -5 -4 -10
-10 -10 -5 0 -10 5 -10 10 0 6 5 10 10 10 6 0 10 -4 10 -10z m768 -56 c12 4
24 0 33 -11 11 -15 11 -16 -1 -5 -8 6 -19 12 -24 12 -6 -1 1 -11 15 -23 14
-12 34 -38 46 -57 21 -38 30 -125 13 -135 -6 -4 -10 11 -10 39 0 89 -40 146
-132 187 -16 7 -28 18 -28 26 0 10 11 6 35 -12 22 -17 41 -24 53 -21z m60 -19
c-3 -3 -9 2 -12 12 -6 14 -5 15 5 6 7 -7 10 -15 7 -18z m3822 11 c0 -2 -8 -10
-17 -17 -16 -13 -17 -12 -4 4 13 16 21 21 21 13z m-4683 -74 c-10 -10 -17 -24
-17 -30 0 -7 -4 -12 -10 -12 -5 0 -10 5 -10 10 0 19 25 50 39 50 11 0 11 -4
-2 -18z m4603 5 c0 -2 -12 -14 -27 -28 l-28 -24 24 28 c23 25 31 32 31 24z
m-4045 -64 c-93 -77 -132 -106 -152 -114 -13 -5 -23 -16 -23 -24 0 -9 -5 -13
-10 -10 -13 8 20 54 38 55 22 0 103 72 98 86 -3 8 0 11 10 7 7 -3 14 0 14 7 0
6 4 9 9 6 5 -3 14 1 21 9 7 9 16 13 19 9 3 -3 -7 -17 -24 -31z m3765 33 c0 -2
-8 -10 -17 -17 -16 -13 -17 -12 -4 4 13 16 21 21 21 13z m210 -29 c0 -2 -12
-14 -27 -28 l-28 -24 24 28 c23 25 31 32 31 24z m0 -61 c0 -2 -7 -7 -16 -10
-8 -3 -12 -2 -9 4 6 10 25 14 25 6z m-3880 -25 c0 -5 -24 -17 -52 -27 -110
-36 -282 -138 -291 -173 -4 -14 -5 -14 -6 0 -1 14 71 89 92 97 11 3 3 17 -8
14 -20 -5 31 31 64 45 19 8 71 23 115 33 45 10 82 19 84 19 1 1 2 -3 2 -8z
m3840 -4 c0 -2 -10 -12 -22 -23 l-23 -19 19 23 c18 21 26 27 26 19z m-290 -36
c-5 -11 -15 -23 -21 -27 -6 -3 -3 5 6 20 20 30 30 35 15 7z m-1920 -6 c-7 -8
-9 -15 -4 -15 4 0 -3 -11 -16 -25 -13 -14 -18 -25 -12 -25 7 0 9 -14 6 -39 -2
-21 0 -50 6 -65 6 -17 6 -26 0 -26 -6 0 -10 -7 -10 -15 0 -12 7 -14 26 -9 24
6 26 5 23 -27 -2 -19 1 -41 6 -48 6 -11 2 -13 -24 -8 -27 6 -34 4 -38 -13 -7
-27 -33 -26 -33 2 0 12 -6 29 -14 37 -8 9 -19 42 -25 74 -11 61 -6 82 23 107
9 7 16 20 16 30 0 10 16 32 35 49 38 33 56 41 35 16z m-1395 -63 c-3 -3 -11 0
-18 7 -9 10 -8 11 6 5 10 -3 15 -9 12 -12z m-553 -14 c6 6 17 12 22 12 6 0 0
-7 -12 -16 -23 -16 -42 -12 -42 9 0 7 4 6 10 -3 7 -12 12 -12 22 -2z m1945
-10 c-3 -8 -6 -5 -6 6 -1 11 2 17 5 13 3 -3 4 -12 1 -19z m2083 19 c0 -1 -24
-25 -52 -52 l-53 -50 50 53 c46 48 55 57 55 49z m-3476 -29 c-4 -6 -10 -5 -15
3 -7 12 -9 12 -9 0 0 -8 -3 -12 -6 -8 -10 10 6 26 21 21 8 -4 12 -11 9 -16z
m3196 -32 c0 -2 -8 -10 -17 -17 -16 -13 -17 -12 -4 4 13 16 21 21 21 13z
m1190 -36 c0 -5 -2 -10 -4 -10 -3 0 -8 5 -11 10 -3 6 -1 10 4 10 6 0 11 -4 11
-10z m-2973 -22 c-3 -8 -6 -5 -6 6 -1 11 2 17 5 13 3 -3 4 -12 1 -19z m1953 9
c0 -2 -10 -12 -22 -23 l-23 -19 19 23 c18 21 26 27 26 19z m-60 -50 c0 -2 -12
-14 -27 -28 l-28 -24 24 28 c23 25 31 32 31 24z m-3994 -46 c-3 -5 -17 -11
-32 -14 -29 -5 -20 9 11 16 11 3 21 5 23 6 2 0 1 -3 -2 -8z m-239 -33 c-3 -7
-5 -2 -5 12 0 14 2 19 5 13 2 -7 2 -19 0 -25z m4163 19 c0 -2 -12 -14 -27 -28
l-28 -24 24 28 c23 25 31 32 31 24z m210 -41 c0 -2 -44 -28 -97 -59 -54 -30
-161 -91 -238 -136 -77 -45 -144 -81 -149 -81 -6 0 30 23 79 51 106 60 122 73
80 64 -16 -4 22 18 87 48 64 30 140 68 170 85 50 30 68 37 68 28z m-4375 -25
c3 -5 1 -12 -5 -16 -5 -3 -10 1 -10 9 0 18 6 21 15 7z m75 -85 c0 -2 -7 -9
-15 -16 -13 -11 -14 -10 -9 4 5 14 24 23 24 12z m1932 -21 c16 -14 26 -25 21
-25 -5 0 -19 9 -32 21 -22 20 -23 20 -37 3 -14 -17 -15 -17 -10 -2 7 24 -13
19 -42 -11 -31 -31 -42 -18 -12 14 31 33 73 33 112 0z m-52 -20 c0 4 6 2 14
-4 8 -7 16 -8 18 -4 3 4 3 2 1 -6 -2 -8 2 -11 11 -8 8 3 20 -2 28 -11 11 -15
11 -16 -4 -4 -13 10 -17 10 -20 0 -4 -10 -9 -8 -22 5 -10 9 -24 17 -32 17 -8
0 -14 5 -14 10 0 6 -10 2 -22 -10 -12 -11 -26 -20 -30 -20 -5 0 3 11 18 25 21
19 30 22 40 14 8 -6 14 -8 14 -4z m133 -12 c-7 -2 -21 -2 -30 0 -10 3 -4 5 12
5 17 0 24 -2 18 -5z m1917 -13 c-8 -5 -19 -10 -25 -10 -5 0 -3 5 5 10 8 5 20
10 25 10 6 0 3 -5 -5 -10z m-2000 -65 c0 -8 -4 -15 -9 -15 -13 0 -22 16 -14
24 11 11 23 6 23 -9z m93 -21 c12 -15 16 -32 12 -45 -6 -19 -9 -17 -31 17 -13
22 -24 42 -24 47 0 16 26 5 43 -19z m3201 -19 c-21 -19 -51 -40 -66 -47 -16
-7 -28 -17 -28 -22 0 -4 -7 -5 -16 -2 -8 3 -12 2 -9 -4 10 -17 -115 -72 -424
-186 -52 -19 -101 -32 -110 -29 -8 3 -12 3 -8 -1 4 -4 -37 -28 -91 -54 -127
-61 -235 -132 -297 -196 -82 -84 -205 -167 -223 -150 -2 3 12 12 31 20 51 21
110 63 99 70 -5 3 -20 -6 -32 -19 -13 -14 -28 -25 -34 -25 -6 0 -38 -11 -71
-25 -33 -13 -67 -24 -75 -24 -8 0 8 8 35 18 94 34 140 63 199 128 66 72 163
141 281 200 97 49 351 136 367 127 6 -4 8 -3 4 4 -4 6 15 19 46 31 117 45 247
100 296 125 28 14 55 26 58 25 4 0 10 4 13 10 8 13 73 59 85 60 5 1 -8 -15
-30 -34z m-5694 -55 c0 -5 -8 -10 -17 -10 -15 0 -16 2 -3 10 19 12 20 12 20 0z
m2533 -18 c4 9 6 7 6 -4 1 -9 10 -20 22 -23 11 -4 19 -9 17 -11 -10 -10 -67
22 -72 40 -5 20 -4 20 8 3 11 -14 15 -15 19 -5z m-1888 -32 c16 -7 13 -9 -17
-9 -20 -1 -40 4 -43 9 -7 12 32 12 60 0z m-605 -14 c0 -17 -14 -29 -23 -20 -8
8 3 34 14 34 5 0 9 -6 9 -14z m46 3 c10 -17 -13 -36 -27 -22 -12 12 -4 33 11
33 5 0 12 -5 16 -11z m404 -27 l22 -18 -33 -2 c-18 -1 -39 -8 -46 -14 -9 -7
-13 -7 -13 1 0 6 6 11 13 11 8 0 7 4 -3 10 -11 7 -5 8 20 6 19 -2 27 -1 18 1
-10 2 -18 9 -18 14 0 14 16 11 40 -9z m3838 3 c-10 -11 -106 -15 -148 -6 -40
8 -33 9 54 10 55 1 97 -1 94 -4z m-1703 -23 c-3 -3 -11 0 -18 7 -9 10 -8 11 6
5 10 -3 15 -9 12 -12z m1392 12 c-3 -3 -12 -4 -19 -1 -8 3 -5 6 6 6 11 1 17
-2 13 -5z m60 0 c-3 -3 -12 -4 -19 -1 -8 3 -5 6 6 6 11 1 17 -2 13 -5z m96
-11 c-7 -2 -19 -2 -25 0 -7 3 -2 5 12 5 14 0 19 -2 13 -5z m-3742 -47 c-7 -8
-22 -12 -34 -9 -18 4 -19 3 -7 -6 17 -12 6 -14 -27 -5 -13 4 -23 13 -23 20 0
10 14 14 51 14 43 0 50 -2 40 -14z m-271 -6 c0 -5 -9 -10 -20 -10 -11 0 -20 5
-20 10 0 6 9 10 20 10 11 0 20 -4 20 -10z m95 -20 c8 -13 -5 -13 -25 0 -13 8
-13 10 2 10 9 0 20 -4 23 -10z m505 -21 c0 -11 -27 -12 -34 0 -3 4 -3 11 0 14
8 8 34 -3 34 -14z m2305 -39 c-3 -5 -12 -10 -18 -10 -7 0 -6 4 3 10 19 12 23
12 15 0z m-67 -37 c-18 -15 -36 -32 -40 -38 -5 -6 -8 -7 -8 0 0 11 60 64 73
65 5 0 -6 -12 -25 -27z m717 9 c-3 -3 -11 0 -18 7 -9 10 -8 11 6 5 10 -3 15
-9 12 -12z m55 2 c0 -2 -9 -4 -20 -4 -11 0 -20 4 -20 9 0 5 9 7 20 4 11 -3 20
-7 20 -9z m-157 -1 c-7 -2 -19 -2 -25 0 -7 3 -2 5 12 5 14 0 19 -2 13 -5z m60
0 c-7 -2 -21 -2 -30 0 -10 3 -4 5 12 5 17 0 24 -2 18 -5z m-543 -17 c0 -2 -7
-7 -16 -10 -8 -3 -12 -2 -9 4 6 10 25 14 25 6z m95 -61 c-15 -19 -24 -39 -19
-46 4 -7 3 -9 -4 -5 -10 6 -112 -146 -112 -167 0 -5 -10 -23 -22 -40 -41 -57
-88 -139 -88 -153 0 -8 -5 -14 -11 -14 -6 0 -9 -6 -6 -13 3 -8 -1 -14 -8 -14
-17 0 -12 10 112 221 88 149 167 266 179 266 3 0 -7 -16 -21 -35z m-96 -42
c-28 -38 -55 -69 -60 -71 -13 -5 -11 46 2 54 8 4 9 -1 5 -17 l-7 -24 18 23
c30 39 85 102 89 102 3 0 -19 -30 -47 -67z m-37 45 c-7 -7 -16 -13 -20 -14 -4
0 -22 -4 -41 -8 -25 -6 -30 -11 -20 -17 10 -6 4 -9 -18 -9 -17 0 -35 6 -39 13
-4 6 -4 9 0 5 4 -3 38 4 74 17 81 28 79 28 64 13z m-32 -48 c0 -5 -8 -10 -17
-10 -15 0 -16 2 -3 10 19 12 20 12 20 0z m405 0 c-3 -5 -13 -10 -21 -10 -8 0
-14 5 -14 10 0 6 9 10 21 10 11 0 17 -4 14 -10z m-48 -6 c-3 -3 -12 -4 -19 -1
-8 3 -5 6 6 6 11 1 17 -2 13 -5z m5 -65 c-38 -15 -89 -22 -77 -10 6 5 24 11
40 14 51 7 61 6 37 -4z m-107 -29 c-27 -12 -43 -12 -25 0 8 5 22 9 30 9 10 0
8 -3 -5 -9z m305 -35 c0 -10 -85 -42 -209 -79 -131 -38 -180 -47 -96 -17 l50
18 -75 -3 c-63 -3 -56 -1 40 11 118 14 188 31 250 58 43 19 40 18 40 12z
m-371 -29 c-15 -13 -49 -25 -49 -17 0 5 8 12 18 14 24 6 36 8 31 3z m-45 -106
c-22 -9 -29 -6 -20 9 4 6 14 7 23 4 15 -6 14 -7 -3 -13z m53 14 c-3 -3 -12 -4
-19 -1 -8 3 -5 6 6 6 11 1 17 -2 13 -5z m1060 0 c-3 -3 -12 -4 -19 -1 -8 3 -5
6 6 6 11 1 17 -2 13 -5z m78 -4 c-11 -5 -27 -9 -35 -9 -9 0 -8 4 5 9 11 5 27
9 35 9 9 0 8 -4 -5 -9z m-145 -10 c-14 -4 -72 -8 -130 -7 l-105 1 110 6 c61 3
119 6 130 7 15 1 14 -1 -5 -7z m-1091 -4 c-2 -2 -15 -9 -29 -15 -24 -11 -24
-11 -6 3 16 13 49 24 35 12z m834 -3 c-7 -2 -19 -2 -25 0 -7 3 -2 5 12 5 14 0
19 -2 13 -5z m-53 -13 c24 -8 24 -8 -5 -8 -16 0 -41 4 -55 8 -24 8 -24 8 5 8
17 0 41 -4 55 -8z m357 4 c-3 -3 -12 -4 -19 -1 -8 3 -5 6 6 6 11 1 17 -2 13
-5z m-437 -14 c11 -8 7 -9 -15 -4 -37 8 -45 14 -19 14 10 0 26 -5 34 -10z
m197 4 c-3 -3 -12 -4 -19 -1 -8 3 -5 6 6 6 11 1 17 -2 13 -5z m146 -1 c-18 -2
-48 -2 -65 0 -18 2 -4 4 32 4 36 0 50 -2 33 -4z m-393 -13 c18 -12 2 -12 -25
0 -13 6 -15 9 -5 9 8 0 22 -4 30 -9z m-60 -7 c-39 -14 -100 -47 -100 -55 0 -4
-4 -7 -8 -5 -9 2 -87 -63 -87 -72 0 -3 -13 -17 -30 -31 l-30 -24 25 29 c70 85
185 166 229 164 14 0 14 -1 1 -6z m-607 -23 c4 -16 11 -19 39 -14 18 3 46 10
61 16 15 6 30 9 32 6 5 -5 -173 -78 -189 -78 -17 0 2 12 38 24 l35 12 -25 27
c-17 18 -20 27 -11 27 8 0 17 -9 20 -20z m549 -30 c-17 -11 -66 -54 -107 -97
-41 -42 -75 -72 -75 -66 0 7 11 20 25 31 14 11 25 24 25 28 1 13 139 124 153
124 7 0 -3 -9 -21 -20z m-1242 0 c16 -10 15 -11 -29 -14 -8 -1 -16 -8 -18 -16
-4 -13 -3 -13 6 0 16 22 13 3 -4 -30 -14 -28 -14 -30 7 -42 13 -7 34 -13 48
-15 118 -11 263 -56 293 -92 28 -34 45 -41 75 -30 15 6 21 5 17 -1 -3 -6 -13
-10 -21 -10 -8 0 -14 -3 -15 -7 0 -5 -2 -15 -4 -24 -3 -16 8 -27 74 -71 19
-13 36 -29 39 -36 2 -8 -23 7 -56 32 -64 49 -82 56 -82 30 0 -20 16 -50 57
-103 18 -24 33 -48 33 -54 0 -16 -30 14 -91 91 -32 40 -60 68 -64 62 -12 -19
-24 -10 -45 30 -23 45 -70 79 -70 50 0 -5 9 -10 19 -10 13 0 19 -6 19 -17 -1
-10 2 -29 6 -42 12 -37 -11 -16 -35 31 -14 28 -24 37 -31 30 -22 -22 11 -112
74 -197 29 -39 29 -39 -14 7 -63 66 -132 182 -126 213 4 18 0 25 -16 28 -15 3
-13 5 8 6 25 1 28 -2 22 -21 -6 -24 13 -78 27 -78 4 0 0 15 -9 33 -16 30 -16
31 0 18 9 -8 20 -10 24 -6 4 4 1 10 -5 12 -7 3 -13 10 -13 16 0 8 4 7 12 -1
14 -14 42 -16 33 -2 -3 6 1 7 9 4 10 -4 16 -1 16 7 0 8 6 5 15 -7 15 -20 18
-13 9 24 -4 12 -13 22 -20 22 -8 0 -17 7 -20 15 -4 8 -10 12 -15 9 -5 -3 -9 0
-9 5 0 6 -19 11 -42 12 -24 0 -52 4 -63 8 -13 5 -28 3 -43 -7 -18 -12 -21 -12
-17 -1 3 8 -4 20 -15 27 -11 7 -20 8 -20 3 0 -5 6 -11 13 -14 6 -2 9 -8 5 -12
-4 -4 -15 -2 -25 6 -11 9 -14 10 -9 2 4 -7 3 -13 -3 -13 -5 0 -13 -15 -17 -32
-4 -18 -9 -27 -12 -20 -2 8 1 41 8 74 9 43 22 70 45 94 35 36 42 39 65 24z
m411 -71 c-10 -23 -10 -23 -7 6 7 47 8 51 13 34 2 -8 -1 -26 -6 -40z m65 -11
c-9 -12 -16 -19 -16 -15 0 11 24 47 28 42 2 -2 -3 -14 -12 -27z m174 1 c0 -5
-6 -9 -14 -9 -8 0 -23 -3 -33 -6 -12 -3 -10 -1 5 8 12 8 19 17 15 22 -4 4 0 4
10 0 9 -3 17 -10 17 -15z m320 -23 c0 -6 -84 -32 -195 -61 -54 -14 -103 -31
-107 -38 -5 -8 -8 -8 -8 -1 0 16 21 31 50 37 14 2 0 4 -30 5 -30 0 -66 5 -80
10 -19 8 -10 9 36 5 59 -5 120 3 249 32 65 14 85 17 85 11z m-529 -53 c-12
-20 -14 -14 -5 12 4 9 9 14 11 11 3 -2 0 -13 -6 -23z m-499 -1 c-21 -7 -13
-20 15 -27 34 -8 55 -24 47 -36 -3 -5 1 -6 9 -3 10 4 16 -6 21 -35 3 -21 9
-48 12 -58 3 -10 -11 10 -31 45 -37 62 -73 85 -62 40 3 -13 8 -34 11 -48 4
-14 -3 -5 -15 19 -12 25 -24 62 -27 83 -4 34 -3 38 14 31 11 -4 13 -8 6 -11z
m1083 -2 c-29 -32 -141 -83 -193 -87 -26 -2 -72 3 -102 11 -50 14 -51 14 -10
8 116 -18 227 7 281 64 27 29 50 33 24 4z m25 -13 c0 -2 -10 -13 -23 -25 -18
-17 -24 -19 -24 -8 0 8 4 13 8 11 3 -3 12 2 19 10 12 14 20 19 20 12z m-885
-17 c13 -5 14 -9 5 -9 -8 0 -24 4 -35 9 -13 5 -14 9 -5 9 8 0 24 -4 35 -9z
m825 -39 c0 -6 -30 -24 -66 -42 -80 -40 -151 -47 -244 -25 -36 9 -49 13 -30
11 148 -19 163 -18 235 10 39 15 74 33 80 41 11 16 25 18 25 5z m-390 -41 c13
-9 13 -10 0 -9 -8 0 -24 4 -35 9 l-20 9 20 0 c11 0 27 -4 35 -9z m277 4 c-3
-3 -12 -4 -19 -1 -8 3 -5 6 6 6 11 1 17 -2 13 -5z m-318 -51 c36 -27 138 -57
234 -68 l102 -13 -113 -1 c-62 0 -111 3 -108 7 3 5 -8 7 -23 4 -33 -5 -151 24
-166 40 -7 8 -4 9 10 3 11 -5 30 -8 43 -8 12 1 22 -4 22 -9 0 -6 7 -5 15 2 14
11 12 15 -15 31 -16 10 -30 27 -29 36 0 14 2 15 6 3 4 -8 13 -20 22 -27z
m-3492 -45 c-3 -8 -6 -5 -6 6 -1 11 2 17 5 13 3 -3 4 -12 1 -19z"/>
<path d="M2951 7514 c0 -11 3 -14 6 -6 3 7 2 16 -1 19 -3 4 -6 -2 -5 -13z"/>
<path d="M2889 7262 c12 -23 27 -42 34 -42 8 0 8 -3 -2 -9 -10 -6 -10 -10 -1
-16 25 -16 30 12 5 35 -14 13 -25 29 -25 36 0 6 -7 18 -16 25 -13 11 -12 4 5
-29z"/>
<path d="M2781 6895 c13 -21 31 -47 41 -57 10 -10 18 -23 18 -29 0 -20 41 -69
52 -63 6 4 8 2 5 -4 -10 -14 3 -43 15 -36 6 4 6 9 -2 14 -8 5 -8 9 3 13 12 4
14 -1 10 -25 -3 -20 -1 -28 6 -24 6 4 9 1 6 -6 -3 -7 7 -26 21 -43 14 -16 21
-21 16 -11 -6 12 -6 29 -2 42 9 24 -9 51 -25 36 -5 -4 -5 -1 -1 5 8 14 -60 90
-76 85 -5 -1 -6 2 -3 8 4 6 -7 25 -24 43 -17 18 -42 46 -57 62 l-27 30 24 -40z"/>
<path d="M3210 6676 c0 -2 8 -10 18 -17 15 -13 16 -12 3 4 -13 16 -21 21 -21
13z"/>
<path d="M3390 6532 c0 -21 28 -34 47 -22 16 10 15 10 -5 5 -15 -4 -22 -2 -20
5 2 7 -3 15 -9 17 -7 3 -13 0 -13 -5z"/>
<path d="M4111 5790 c-51 -16 -101 -36 -110 -45 -15 -16 -14 -17 9 -2 14 8 61
25 105 37 73 20 125 40 100 39 -5 -1 -52 -14 -104 -29z"/>
<path d="M7590 5262 c0 -12 19 -26 26 -19 2 2 -2 10 -11 17 -9 8 -15 8 -15 2z"/>
<path d="M5917 4939 c4 -13 8 -18 11 -10 2 7 -1 18 -6 23 -8 8 -9 4 -5 -13z"/>
<path d="M2025 4440 c3 -5 8 -10 11 -10 2 0 4 5 4 10 0 6 -5 10 -11 10 -5 0
-7 -4 -4 -10z"/>
<path d="M2097 4343 c10 -15 22 -31 27 -35 6 -4 7 -10 4 -14 -4 -4 -2 -16 4
-28 7 -11 12 -24 13 -28 0 -3 3 -10 8 -14 4 -4 7 -18 7 -31 0 -12 5 -23 11
-23 5 0 7 -4 4 -10 -3 -5 2 -24 12 -42 9 -18 18 -38 19 -44 5 -28 63 -113 107
-157 39 -39 51 -47 62 -37 12 10 12 15 -2 36 -9 14 -22 23 -30 20 -8 -3 -11
-2 -8 3 5 10 -12 26 -29 26 -5 0 -11 7 -13 15 -4 13 -3 13 6 0 6 -9 11 -10 11
-3 0 6 -15 24 -32 38 -18 15 -27 24 -19 20 9 -5 8 1 -4 19 -9 14 -22 23 -28
19 -5 -3 -7 -1 -4 5 4 5 -9 43 -28 83 -19 41 -35 79 -35 85 0 25 -40 100 -60
112 -21 13 -21 13 -3 -15z"/>
<path d="M2441 3804 c6 -7 16 -11 21 -8 11 7 3 17 -18 20 -12 2 -13 -1 -3 -12z"/>
<path d="M6584 4771 c11 -11 23 -21 28 -21 14 0 -1 19 -25 31 -22 12 -22 12
-3 -10z"/>
<path d="M6896 4627 c3 -10 9 -15 12 -12 3 3 0 11 -7 18 -10 9 -11 8 -5 -6z"/>
<path d="M5048 3635 c-21 -19 -34 -35 -30 -35 5 0 23 16 42 35 44 45 36 45
-12 0z"/>
<path d="M3696 3021 c-3 -4 7 -19 22 -32 l27 -24 -23 26 c-18 20 -20 28 -10
32 9 4 9 6 1 6 -6 1 -14 -3 -17 -8z"/>
<path d="M2277 3169 c7 -7 15 -10 18 -7 3 3 -2 9 -12 12 -14 6 -15 5 -6 -5z"/>
<path d="M2361 3117 c14 -12 29 -30 32 -39 4 -11 12 -15 22 -12 10 4 15 2 13
-7 -2 -9 6 -14 22 -15 14 0 24 -5 23 -10 -1 -6 4 -11 12 -11 8 0 4 12 -13 34
-18 21 -33 31 -44 27 -9 -2 -19 0 -23 5 -4 7 1 8 12 4 13 -4 15 -3 8 5 -5 6
-17 12 -25 14 -8 2 -21 9 -28 16 -7 6 -19 12 -25 12 -7 -1 0 -11 14 -23z"/>
<path d="M2756 2991 c-16 -26 14 -41 68 -34 28 3 63 6 79 6 34 1 35 10 1 25
-14 7 -23 8 -19 2 3 -5 -4 -10 -17 -10 -13 0 -36 -1 -53 -3 -17 -1 -35 4 -41
12 -8 10 -13 11 -18 2z"/>
<path d="M2510 2970 c-9 -6 -10 -10 -3 -10 6 0 15 5 18 10 8 12 4 12 -15 0z"/>
<path d="M2533 2931 c0 -11 5 -18 9 -15 4 3 5 11 1 19 -7 21 -12 19 -10 -4z"/>
<path d="M2965 2930 c3 -5 -2 -10 -12 -11 -14 0 -13 -2 5 -10 13 -5 30 -5 38
-1 12 7 9 11 -11 20 -15 7 -24 8 -20 2z"/>
<path d="M2810 2922 c0 -5 7 -15 15 -22 8 -7 15 -9 15 -6 0 4 -7 14 -15 22 -8
9 -15 11 -15 6z"/>
<path d="M2878 2923 c7 -3 16 -2 19 1 4 3 -2 6 -13 5 -11 0 -14 -3 -6 -6z"/>
<path d="M2591 2887 c-6 -8 -7 -18 -3 -22 4 -5 -1 -5 -11 -2 -17 7 -17 6 0
-24 10 -17 24 -36 32 -42 12 -9 13 -9 7 1 -5 9 2 11 29 6 25 -4 35 -2 30 5 -3
6 -15 11 -25 11 -10 0 -22 5 -25 10 -3 6 4 10 16 10 41 0 2 25 -45 29 -5 1 -3
8 4 16 7 8 10 15 7 15 -2 0 -10 -6 -16 -13z"/>
<path d="M3273 2853 c9 -2 25 -2 35 0 9 3 1 5 -18 5 -19 0 -27 -2 -17 -5z"/>
<path d="M3645 2770 c3 -5 11 -10 16 -10 6 0 7 5 4 10 -3 6 -11 10 -16 10 -6
0 -7 -4 -4 -10z"/>
<path d="M2635 2749 c-10 -15 -4 -18 40 -18 83 -1 95 0 100 10 4 6 -20 8 -64
6 -39 -2 -68 0 -65 5 3 4 3 8 0 8 -3 0 -8 -5 -11 -11z"/>
<path d="M2810 2710 c0 -6 -13 -9 -28 -8 -15 1 -33 -1 -39 -5 -6 -4 -14 -3
-18 3 -11 18 -20 11 -22 -17 0 -15 2 -21 6 -14 6 9 15 9 36 1 30 -11 65 -5 65
12 0 5 7 8 15 4 9 -3 15 0 15 8 0 8 -7 16 -15 20 -8 3 -15 1 -15 -4z"/>
<path d="M3828 2673 c7 -3 16 -2 19 1 4 3 -2 6 -13 5 -11 0 -14 -3 -6 -6z"/>
<path d="M3760 2661 c0 -5 9 -7 20 -4 11 3 20 7 20 9 0 2 -9 4 -20 4 -11 0
-20 -4 -20 -9z"/>
<path d="M3616 2388 c3 -5 10 -6 15 -3 13 9 11 12 -6 12 -8 0 -12 -4 -9 -9z"/>
<path d="M3657 2383 c3 -7 6 -13 8 -13 2 0 5 6 8 13 3 8 -1 14 -8 14 -7 0 -11
-6 -8 -14z"/>
<path d="M3139 2343 c-13 -16 -12 -17 4 -4 16 13 21 21 13 21 -2 0 -10 -8 -17
-17z"/>
<path d="M3713 2286 c4 -11 1 -13 -11 -9 -10 4 -14 2 -9 -3 5 -5 21 -9 37 -9
28 0 28 1 10 18 -23 21 -34 22 -27 3z"/>
<path d="M3661 2258 c0 -9 -9 -22 -18 -27 -15 -9 -14 -10 7 -7 14 3 28 5 33 5
4 1 7 9 7 19 0 14 -2 14 -9 3 -7 -11 -10 -10 -14 5 -4 16 -5 16 -6 2z"/>
<path d="M3620 2196 c7 -7 13 -7 20 0 6 6 3 10 -10 10 -13 0 -16 -4 -10 -10z"/>
<path d="M4120 2010 c-8 -5 -12 -11 -10 -14 3 -2 14 2 24 10 22 15 10 19 -14
4z"/>
<path d="M3360 1602 c0 -6 10 -18 23 -27 19 -13 20 -17 7 -25 -12 -8 -9 -10
12 -10 14 0 35 -3 45 -6 15 -5 15 -4 3 5 -12 9 -11 11 10 12 19 0 14 4 -18 14
-24 7 -52 21 -63 31 -10 9 -19 12 -19 6z m77 -48 c-3 -3 -12 -4 -19 -1 -8 3
-5 6 6 6 11 1 17 -2 13 -5z"/>
<path d="M3545 1565 c-16 -8 -23 -14 -14 -15 8 0 24 7 35 15 23 18 18 18 -21
0z"/>
<path d="M3245 1541 c-3 -5 0 -13 6 -17 8 -5 9 -3 4 6 -6 10 -4 12 9 7 10 -4
15 -3 11 3 -8 13 -22 13 -30 1z"/>
<path d="M3568 1543 c7 -3 16 -2 19 1 4 3 -2 6 -13 5 -11 0 -14 -3 -6 -6z"/>
<path d="M3847 1537 c-3 -8 1 -14 8 -14 7 0 11 6 8 14 -3 7 -6 13 -8 13 -2 0
-5 -6 -8 -13z"/>
<path d="M3188 1513 c7 -3 16 -2 19 1 4 3 -2 6 -13 5 -11 0 -14 -3 -6 -6z"/>
<path d="M3093 1446 c-17 -8 -23 -19 -23 -41 0 -23 3 -27 10 -15 8 12 10 11
10 -7 0 -16 6 -23 20 -23 10 0 24 -8 29 -17 9 -16 10 -16 11 -2 0 9 -7 19 -15
23 -20 7 -19 63 1 74 14 8 14 10 -2 13 -11 3 -29 0 -41 -5z"/>
<path d="M3001 1391 c-7 -12 -10 -25 -7 -29 3 -3 6 0 6 6 0 7 5 12 11 12 6 0
9 -7 5 -15 -3 -8 -2 -15 3 -15 10 0 23 42 16 49 -3 2 -5 -2 -6 -10 0 -8 -4 -6
-8 6 -8 19 -8 19 -20 -4z"/>
<path d="M3828 1393 c6 -2 18 -2 25 0 6 3 1 5 -13 5 -14 0 -19 -2 -12 -5z"/>
<path d="M2966 1373 c-6 -14 -5 -15 5 -6 7 7 10 15 7 18 -3 3 -9 -2 -12 -12z"/>
<path d="M3280 1324 c0 -9 5 -14 12 -12 18 6 21 28 4 28 -9 0 -16 -7 -16 -16z"/>
<path d="M3520 1331 c0 -5 14 -14 31 -20 46 -16 48 -14 11 9 -37 22 -42 24
-42 11z"/>
<path d="M3730 1315 c-7 -9 -11 -17 -9 -20 3 -2 10 5 17 15 14 24 10 26 -8 5z"/>
<path d="M3685 1300 c3 -5 8 -10 11 -10 2 0 4 5 4 10 0 6 -5 10 -11 10 -5 0
-7 -4 -4 -10z"/>
<path d="M3410 1279 c0 -5 5 -7 10 -4 6 3 10 1 10 -5 0 -6 5 -8 12 -4 8 5 9 2
5 -9 -3 -9 -1 -19 5 -23 6 -4 8 -3 5 3 -8 13 17 36 28 25 5 -4 5 -2 1 5 -4 7
-13 10 -20 7 -8 -3 -17 -1 -21 5 -8 14 -35 14 -35 0z"/>
<path d="M4157 1186 c-4 -10 -5 -21 -2 -24 9 -9 17 6 13 25 -3 17 -4 17 -11
-1z"/>
<path d="M4170 1134 c0 -14 -3 -15 -9 -6 -6 11 -10 11 -18 0 -13 -17 -24 -60
-13 -53 5 3 11 -1 14 -7 3 -7 3 1 0 17 -5 27 -4 28 9 12 13 -16 15 -15 21 14
3 18 4 34 1 37 -3 3 -5 -3 -5 -14z"/>
<path d="M2982 1100 c0 -14 2 -19 5 -12 2 6 2 18 0 25 -3 6 -5 1 -5 -13z"/>
<path d="M4156 1038 c3 -5 10 -6 15 -3 13 9 11 12 -6 12 -8 0 -12 -4 -9 -9z"/>
<path d="M4170 891 c0 -6 4 -13 10 -16 6 -3 7 1 4 9 -7 18 -14 21 -14 7z"/>
<path d="M3770 3123 c1 -23 84 -61 95 -43 5 9 0 11 -20 10 -3 -1 -17 8 -32 20
-26 21 -43 26 -43 13z"/>
<path d="M3955 3020 c-3 -6 1 -7 9 -4 18 7 21 14 7 14 -6 0 -13 -4 -16 -10z"/>
<path d="M4529 2121 c9 -6 10 -11 2 -15 -6 -4 -11 -4 -11 0 0 3 -7 1 -15 -6
-8 -7 -15 -18 -15 -24 0 -6 4 -4 10 4 5 8 12 11 16 8 9 -10 37 20 29 32 -3 5
-12 10 -18 10 -8 0 -8 -3 2 -9z"/>
<path d="M4494 2049 c-19 -22 -19 -22 4 -8 12 8 22 17 22 21 0 12 -6 9 -26
-13z"/>
<path d="M5010 1869 c0 -5 5 -7 10 -4 6 3 10 8 10 11 0 2 -4 4 -10 4 -5 0 -10
-5 -10 -11z"/>
<path d="M4995 1841 c-3 -5 -1 -12 5 -16 5 -3 10 1 10 9 0 18 -6 21 -15 7z"/>
<path d="M4970 1792 c-15 -31 -17 -36 -19 -58 0 -8 -5 -13 -10 -10 -4 3 -14
-12 -21 -34 -7 -22 -17 -37 -21 -34 -5 3 -6 -3 -2 -12 5 -13 3 -15 -7 -9 -8 5
-11 4 -6 -3 3 -5 3 -12 -1 -14 -5 -1 -21 -21 -38 -43 -29 -39 -29 -39 -3 -20
14 11 25 22 25 25 -1 3 1 5 5 5 10 0 70 96 64 102 -3 3 4 14 15 26 10 11 19
31 19 44 0 13 4 23 9 23 12 0 22 28 12 34 -4 3 -14 -7 -21 -22z"/>
<path d="M6049 1778 c-1 -13 -3 -23 -9 -43 -5 -19 1 -138 9 -181 5 -24 6 -44
2 -44 -3 0 -7 -11 -7 -25 l-2 -26 25 25 c19 19 25 37 27 76 1 28 -1 53 -6 56
-5 3 -6 34 -3 69 4 39 2 71 -5 84 -12 23 -29 28 -31 9z"/>
<path d="M5601 1644 c0 -11 3 -14 6 -6 3 7 2 16 -1 19 -3 4 -6 -2 -5 -13z"/>
<path d="M5500 1641 c0 -6 4 -13 10 -16 6 -3 7 1 4 9 -7 18 -14 21 -14 7z"/>
<path d="M5548 1590 c-13 -31 -17 -80 -7 -80 14 0 21 24 17 62 -3 20 -6 27
-10 18z"/>
<path d="M5619 1589 c-11 -7 -9 -9 8 -9 12 0 23 -5 25 -12 3 -9 6 -9 11 -1 10
16 -25 34 -44 22z"/>
<path d="M4824 1516 c-24 -24 -41 -120 -24 -131 8 -5 7 -11 -1 -21 -8 -10 -8
-14 0 -14 6 0 10 -5 9 -11 -4 -18 49 -30 62 -14 5 7 22 10 38 8 l27 -3 -25 10
c-13 6 -32 18 -41 26 -9 8 -23 12 -32 8 -24 -9 -9 -26 16 -18 22 6 22 6 2 -10
-11 -8 -27 -15 -35 -16 -13 0 -13 1 0 10 8 5 10 10 4 10 -7 0 -11 11 -10 24 1
18 4 22 14 14 8 -7 12 -7 12 0 0 6 -5 14 -10 17 -6 4 -10 12 -8 18 1 7 -1 22
-6 34 -5 16 -1 28 13 42 12 12 21 26 21 31 0 13 -1 12 -26 -14z"/>
<path d="M5336 1533 c-3 -3 2 -17 11 -32 12 -20 12 -22 0 -8 -12 15 -16 15
-26 3 -18 -21 -75 -40 -68 -23 4 10 -6 13 -33 13 -21 0 -36 -4 -34 -8 3 -4 -5
-12 -16 -18 -24 -13 -26 -30 -4 -30 8 0 13 4 10 9 -4 5 4 7 16 3 20 -5 21 -3
10 10 -8 10 -9 19 -3 22 5 4 13 -4 17 -16 7 -22 7 -22 15 -3 7 18 8 18 8 2 1
-17 5 -16 48 7 43 25 47 25 64 10 17 -16 19 -16 25 0 3 9 1 22 -5 30 -6 7 -8
15 -5 18 2 3 -2 8 -10 11 -8 3 -17 3 -20 0z"/>
<path d="M5490 1536 c0 -2 7 -7 16 -10 8 -3 12 -2 9 4 -6 10 -25 14 -25 6z"/>
<path d="M5225 1500 c4 -6 11 -8 16 -5 14 9 11 15 -7 15 -8 0 -12 -5 -9 -10z"/>
<path d="M5619 1500 c-9 -5 -20 -21 -23 -35 -4 -16 -19 -30 -41 -39 -42 -18
-48 -41 -8 -31 15 3 40 18 57 32 28 24 31 24 43 7 7 -10 13 -13 13 -7 0 7 -4
15 -10 18 -15 9 -12 25 5 25 9 0 15 -9 15 -24 0 -18 5 -24 19 -23 16 1 17 6
10 31 -5 16 -12 33 -16 37 -15 13 -48 18 -64 9z"/>
<path d="M5530 1484 c0 -10 5 -26 10 -34 8 -11 9 -7 4 15 -8 37 -14 45 -14 19z"/>
<path d="M5570 1475 c-6 -8 -10 -19 -8 -26 2 -6 9 0 16 15 13 29 10 33 -8 11z"/>
<path d="M5870 1449 c0 -5 5 -7 10 -4 6 3 10 8 10 11 0 2 -4 4 -10 4 -5 0 -10
-5 -10 -11z"/>
<path d="M5092 1434 c-12 -8 -20 -19 -17 -24 3 -5 -2 -10 -11 -12 -16 -3 -16
-4 -1 -17 15 -12 17 -11 17 3 0 9 6 16 13 16 15 0 48 36 40 44 -9 9 -17 7 -41
-10z m22 -9 c-4 -8 -14 -15 -23 -15 -14 1 -13 3 3 15 25 19 27 19 20 0z"/>
<path d="M5333 1416 c-18 -18 -33 -41 -33 -51 0 -22 10 -14 14 11 2 10 9 20
16 22 7 3 10 0 6 -6 -8 -14 33 -7 48 8 8 8 6 9 -5 5 -13 -5 -15 -1 -12 19 3
14 4 26 2 26 -2 0 -19 -15 -36 -34z"/>
<path d="M5727 1443 c-4 -3 -7 -13 -7 -21 0 -12 3 -12 15 -2 8 7 15 16 15 21
0 11 -14 12 -23 2z"/>
<path d="M5610 1409 c0 -5 5 -7 10 -4 6 3 10 8 10 11 0 2 -4 4 -10 4 -5 0 -10
-5 -10 -11z"/>
<path d="M5816 1395 c-25 -19 -16 -19 20 0 16 8 22 15 14 15 -8 -1 -24 -7 -34
-15z"/>
<path d="M6057 1403 c-4 -3 -7 -11 -7 -17 0 -6 5 -5 12 2 6 6 9 14 7 17 -3 3
-9 2 -12 -2z"/>
<path d="M5582 1393 c-6 -2 -10 -9 -7 -13 3 -5 -8 -7 -25 -5 -26 3 -29 1 -19
-11 13 -16 23 -19 14 -4 -3 6 -1 10 4 10 6 0 11 -5 11 -11 0 -5 4 -8 9 -4 5 3
12 1 16 -5 4 -6 11 -8 16 -5 5 4 9 0 9 -7 0 -9 3 -9 10 2 9 13 10 13 11 0 1
-8 0 -19 -1 -25 -1 -5 2 -7 6 -3 4 4 13 3 21 -4 11 -9 12 -7 7 7 -5 11 -3 16
3 12 5 -3 9 3 8 16 -2 13 -8 21 -16 18 -13 -3 -54 -4 -72 -2 -4 1 -3 10 3 21
6 11 9 20 8 19 -2 0 -9 -3 -16 -6z m82 -48 c-4 -8 -11 -12 -16 -9 -6 4 -5 10
3 15 19 12 19 11 13 -6z"/>
<path d="M5640 1390 c0 -5 5 -10 11 -10 5 0 7 5 4 10 -3 6 -8 10 -11 10 -2 0
-4 -4 -4 -10z"/>
<path d="M5883 1393 c-49 -5 -58 -27 -23 -58 24 -22 16 -39 -11 -25 -11 6 -17
15 -15 19 3 4 -5 7 -16 6 -31 -2 -33 -20 -5 -57 13 -18 30 -48 37 -66 7 -18
26 -49 41 -69 16 -20 29 -44 29 -54 0 -12 7 -19 20 -19 12 0 17 5 14 13 -2 7
7 34 21 60 14 27 25 54 25 62 0 7 5 15 10 17 12 4 -15 83 -37 109 -7 9 -10 18
-7 21 3 3 -3 5 -13 5 -13 -2 -17 4 -15 21 2 12 0 21 -5 20 -4 -1 -27 -3 -50
-5z"/>
<path d="M5247 1345 c-15 -14 -24 -25 -19 -25 5 0 15 7 22 15 7 9 18 14 25 11
6 -2 12 2 12 10 0 19 -8 17 -40 -11z"/>
<path d="M5781 1348 l-14 -23 24 20 c13 11 26 21 28 22 2 2 -2 3 -10 3 -8 0
-20 -10 -28 -22z"/>
<path d="M4990 1350 c20 -13 33 -13 25 0 -3 6 -14 10 -23 10 -15 0 -15 -2 -2
-10z"/>
<path d="M4949 1341 c9 -6 10 -10 2 -14 -8 -4 -8 -5 1 -3 20 4 21 26 1 26 -14
0 -15 -2 -4 -9z"/>
<path d="M6050 1255 c0 -5 5 -17 10 -25 5 -8 10 -10 10 -5 0 6 -5 17 -10 25
-5 8 -10 11 -10 5z"/>
<path d="M6040 1169 c0 -5 5 -7 10 -4 6 3 10 8 10 11 0 2 -4 4 -10 4 -5 0 -10
-5 -10 -11z"/>
<path d="M6043 1136 c6 -14 4 -17 -8 -12 -11 4 -14 2 -9 -6 4 -7 7 -31 5 -54
-2 -32 2 -43 16 -48 13 -5 14 -9 4 -15 -10 -7 -9 -10 3 -14 9 -4 16 -2 16 3 0
6 8 10 18 10 13 0 14 2 3 9 -10 6 -10 10 -1 13 9 3 10 18 5 57 -4 29 -10 50
-13 47 -3 -3 -14 2 -25 11 -20 17 -20 17 -14 -1z"/>
<path d="M5976 1094 c-7 -19 0 -34 17 -34 9 0 8 3 -1 8 -7 5 -10 16 -6 25 3 9
4 17 1 17 -3 0 -8 -7 -11 -16z"/>
<path d="M5960 1050 c0 -5 5 -10 11 -10 5 0 7 5 4 10 -3 6 -8 10 -11 10 -2 0
-4 -4 -4 -10z"/>
<path d="M5841 1016 c12 -10 79 -16 79 -6 0 5 -19 10 -42 10 -23 0 -39 -2 -37
-4z"/>
<path d="M5767 986 c-17 -14 -24 -27 -18 -31 6 -3 11 -1 11 5 0 8 6 8 21 0 11
-7 23 -9 26 -6 3 3 -5 10 -18 16 -21 9 -20 10 11 5 27 -4 31 -2 17 6 -9 6 -15
14 -12 20 11 17 -10 9 -38 -15z"/>
<path d="M5883 987 c5 -15 37 -22 37 -9 0 5 -9 12 -21 15 -13 3 -19 1 -16 -6z"/>
<path d="M5725 980 c-3 -6 1 -7 9 -4 18 7 21 14 7 14 -6 0 -13 -4 -16 -10z"/>
<path d="M5870 953 c-54 -6 -62 -10 -51 -30 25 -50 51 -111 51 -122 0 -6 6
-11 14 -11 10 0 14 20 15 77 1 47 7 81 14 85 7 4 8 7 2 6 -5 -1 -26 -3 -45 -5z"/>
<path d="M5964 949 c-4 -6 -9 -43 -12 -81 -4 -57 -2 -72 14 -89 11 -13 26 -18
39 -15 14 4 25 -1 33 -14 17 -27 30 -25 28 4 0 13 -4 22 -7 20 -4 -2 -9 6 -12
19 -28 115 -45 162 -59 165 -9 2 -19 -2 -24 -9z"/>
<path d="M5566 837 c3 -10 9 -15 12 -12 3 3 0 11 -7 18 -10 9 -11 8 -5 -6z"/>
<path d="M5833 783 c1 -16 11 -36 21 -45 10 -10 14 -18 8 -18 -18 0 -14 -14 8
-28 16 -10 25 -10 43 -1 20 11 21 11 8 -4 -12 -15 -10 -17 20 -16 28 0 31 2
14 9 -18 8 -18 9 5 10 l25 2 -25 7 -25 7 23 19 c26 23 28 35 7 35 -9 0 -18 6
-21 14 -3 7 -13 13 -22 12 -24 -2 -58 -23 -50 -32 4 -4 14 -1 23 6 12 10 15
10 15 -1 0 -11 2 -11 10 1 7 11 10 11 10 2 0 -7 5 -10 10 -7 6 3 10 1 10 -4 0
-6 -5 -11 -11 -11 -5 0 -8 -4 -4 -9 3 -5 1 -13 -5 -16 -16 -10 -81 37 -75 53
3 8 -2 20 -9 28 -13 12 -15 11 -13 -13z m67 -83 c0 -5 -4 -10 -10 -10 -5 0
-10 5 -10 10 0 6 5 10 10 10 6 0 10 -4 10 -10z"/>
<path d="M5890 741 c0 -5 7 -12 16 -15 24 -9 27 -7 10 9 -17 17 -26 19 -26 6z"/>
<path d="M6022 709 c-2 -29 16 -59 36 -59 14 0 8 56 -8 75 -19 22 -25 19 -28
-16z"/>
<path d="M4300 2540 c-9 -6 -10 -10 -3 -10 6 0 15 5 18 10 8 12 4 12 -15 0z"/>
<path d="M4260 2499 c0 -5 5 -7 10 -4 6 3 10 8 10 11 0 2 -4 4 -10 4 -5 0 -10
-5 -10 -11z"/>
<path d="M4230 2182 c0 -6 -8 -13 -17 -15 -16 -4 -16 -5 -1 -6 18 -1 34 16 24
26 -3 4 -6 1 -6 -5z"/>
<path d="M5982 2093 c-29 -11 -33 -41 -11 -80 22 -40 22 -37 3 44 -6 21 -4 25
8 21 9 -4 15 0 15 8 0 8 -1 14 -1 13 -1 0 -7 -3 -14 -6z"/>
<path d="M5986 1953 c-6 -14 -5 -15 5 -6 7 7 10 15 7 18 -3 3 -9 -2 -12 -12z"/>
<path d="M6050 1936 c0 -31 6 -34 13 -6 3 11 1 23 -4 26 -5 3 -9 -6 -9 -20z"/>
<path d="M7830 1725 c-14 -8 -20 -14 -14 -15 5 0 19 7 30 15 24 18 16 19 -16
0z"/>
<path d="M8880 1500 c-8 -5 -52 -24 -98 -42 -45 -18 -78 -34 -73 -36 12 -4
179 67 187 79 7 11 3 11 -16 -1z"/>
<path d="M8280 1265 c-14 -8 -20 -14 -15 -14 6 0 21 6 35 14 14 8 21 14 15 14
-5 0 -21 -6 -35 -14z"/>
<path d="M8185 1217 c-81 -44 -132 -77 -119 -77 6 0 27 10 45 23 19 12 54 33
79 46 41 22 70 42 60 40 -3 0 -32 -15 -65 -32z"/>
<path d="M8027 1119 c-30 -17 -68 -57 -60 -62 4 -2 26 13 47 34 41 40 44 46
13 28z"/>
<path d="M7942 1056 c4 -5 -6 -21 -23 -37 -16 -15 -25 -30 -20 -33 4 -3 17 5
28 17 30 33 35 45 21 53 -7 4 -10 4 -6 0z"/>
<path d="M5712 706 c-17 -37 -15 -45 4 -18 8 12 14 27 12 33 -2 6 -9 -1 -16
-15z"/>
<path d="M6025 532 c3 -68 9 -84 30 -76 8 4 13 10 10 14 -3 5 3 6 14 3 11 -3
21 2 25 13 5 13 4 14 -7 6 -11 -9 -13 -5 -12 24 0 21 -5 38 -12 41 -7 3 -10 9
-7 14 3 5 1 9 -5 9 -5 0 -16 3 -24 6 -12 4 -14 -5 -12 -54z"/>
<path d="M6538 613 c7 -3 16 -2 19 1 4 3 -2 6 -13 5 -11 0 -14 -3 -6 -6z"/>
<path d="M6380 410 c-10 -6 -7 -10 13 -16 34 -8 46 1 20 14 -11 6 -25 7 -33 2z"/>
</g>
</svg>
