<?xml version="1.0" standalone="no"?>
<!DOCTYPE svg PUBLIC "-//W3C//DTD SVG 20010904//EN"
 "http://www.w3.org/TR/2001/REC-SVG-20010904/DTD/svg10.dtd">
<svg version="1.0" xmlns="http://www.w3.org/2000/svg"
 width="1431.000000pt" height="1431.000000pt" viewBox="0 0 1431.000000 1431.000000"
 preserveAspectRatio="xMidYMid meet">

<g transform="translate(0.000000,1431.000000) scale(0.100000,-0.100000)"
fill="#000000" stroke="none">
<path d="M6473 12503 c9 -2 23 -2 30 0 6 3 -1 5 -18 5 -16 0 -22 -2 -12 -5z"/>
<path d="M8126 12460 c-3 -14 -17 -83 -31 -155 -13 -71 -29 -155 -35 -185 -39
-191 -76 -400 -70 -400 8 0 153 737 147 753 -2 6 -7 1 -11 -13z"/>
<path d="M9212 11963 c-42 -87 -89 -185 -104 -218 -14 -33 -54 -117 -87 -186
-34 -70 -61 -129 -61 -132 0 -3 46 -29 103 -58 333 -169 668 -410 934 -672
l103 -100 72 69 c40 38 165 158 278 266 l204 198 -44 46 c-132 137 -401 367
-585 500 -195 142 -466 309 -656 404 l-79 40 -78 -157z"/>
<path d="M5390 11801 c-235 -107 -421 -213 -670 -382 -894 -606 -1534 -1559
-1764 -2629 -73 -340 -106 -747 -88 -1087 15 -279 31 -403 52 -403 32 0 352
48 357 54 3 3 -1 56 -8 118 -9 76 -14 221 -14 438 0 346 9 449 60 719 197
1045 839 1985 1751 2563 145 92 387 223 507 274 48 21 87 42 87 49 0 10 -120
298 -137 329 -7 12 -31 4 -133 -43z"/>
<path d="M7573 11773 c9 -2 23 -2 30 0 6 3 -1 5 -18 5 -16 0 -22 -2 -12 -5z"/>
<path d="M6728 11763 c7 -3 16 -2 19 1 4 3 -2 6 -13 5 -11 0 -14 -3 -6 -6z"/>
<path d="M7688 11763 c7 -3 16 -2 19 1 4 3 -2 6 -13 5 -11 0 -14 -3 -6 -6z"/>
<path d="M6620 11750 c-9 -6 -10 -10 -3 -10 6 0 15 5 18 10 8 12 4 12 -15 0z"/>
<path d="M4384 11628 l-19 -23 23 19 c12 11 22 21 22 23 0 8 -8 2 -26 -19z"/>
<path d="M4339 11593 c-13 -16 -12 -17 4 -4 9 7 17 15 17 17 0 8 -8 3 -21 -13z"/>
<path d="M4299 11563 c-13 -16 -12 -17 4 -4 16 13 21 21 13 21 -2 0 -10 -8
-17 -17z"/>
<path d="M4230 11509 l-45 -41 42 32 c37 27 61 51 51 50 -2 0 -23 -19 -48 -41z"/>
<path d="M4154 11448 l-19 -23 23 19 c21 18 27 26 19 26 -2 0 -12 -10 -23 -22z"/>
<path d="M4079 11383 c-13 -16 -12 -17 4 -4 9 7 17 15 17 17 0 8 -8 3 -21 -13z"/>
<path d="M7223 11343 c54 -2 139 -2 190 0 51 1 7 3 -98 3 -104 0 -146 -2 -92
-3z"/>
<path d="M7525 11341 c3 -6 34 -11 67 -11 76 0 72 5 -10 14 -44 5 -62 4 -57
-3z"/>
<path d="M7013 11333 c15 -2 39 -2 55 0 15 2 2 4 -28 4 -30 0 -43 -2 -27 -4z"/>
<path d="M3965 11278 l-50 -53 53 50 c48 46 57 55 49 55 -1 0 -25 -24 -52 -52z"/>
<path d="M6923 11323 c9 -2 25 -2 35 0 9 3 1 5 -18 5 -19 0 -27 -2 -17 -5z"/>
<path d="M7740 11315 c110 -17 157 -16 60 1 -41 7 -91 13 -110 12 -19 0 3 -6
50 -13z"/>
<path d="M6751 11304 c-87 -15 -114 -26 -51 -19 81 9 197 32 160 33 -19 0 -68
-6 -109 -14z"/>
<path d="M7898 11293 c6 -2 18 -2 25 0 6 3 1 5 -13 5 -14 0 -19 -2 -12 -5z"/>
<path d="M7948 11283 c6 -2 18 -2 25 0 6 3 1 5 -13 5 -14 0 -19 -2 -12 -5z"/>
<path d="M6628 11273 c7 -3 16 -2 19 1 4 3 -2 6 -13 5 -11 0 -14 -3 -6 -6z"/>
<path d="M7998 11273 c7 -3 16 -2 19 1 4 3 -2 6 -13 5 -11 0 -14 -3 -6 -6z"/>
<path d="M6578 11263 c7 -3 16 -2 19 1 4 3 -2 6 -13 5 -11 0 -14 -3 -6 -6z"/>
<path d="M8048 11263 c7 -3 16 -2 19 1 4 3 -2 6 -13 5 -11 0 -14 -3 -6 -6z"/>
<path d="M6538 11253 c7 -3 16 -2 19 1 4 3 -2 6 -13 5 -11 0 -14 -3 -6 -6z"/>
<path d="M8125 11244 c28 -7 55 -13 60 -13 17 2 -69 27 -90 27 -11 0 3 -6 30
-14z"/>
<path d="M6498 11243 c7 -3 16 -2 19 1 4 3 -2 6 -13 5 -11 0 -14 -3 -6 -6z"/>
<path d="M6458 11233 c7 -3 16 -2 19 1 4 3 -2 6 -13 5 -11 0 -14 -3 -6 -6z"/>
<path d="M6340 11205 c-19 -7 -28 -13 -20 -13 8 0 31 6 50 13 19 7 28 13 20
13 -8 0 -31 -6 -50 -13z"/>
<path d="M8238 11213 c7 -3 16 -2 19 1 4 3 -2 6 -13 5 -11 0 -14 -3 -6 -6z"/>
<path d="M8429 11150 c74 -27 136 -48 138 -46 2 2 -9 8 -24 14 -135 51 -226
82 -236 82 -7 -1 48 -23 122 -50z"/>
<path d="M6255 11175 c-25 -12 -26 -14 -5 -9 28 7 60 23 45 23 -5 0 -23 -6
-40 -14z"/>
<path d="M6030 11091 c-124 -51 -322 -150 -355 -176 -11 -9 36 13 105 48 69
36 175 86 235 111 141 59 152 65 140 65 -5 0 -62 -21 -125 -48z"/>
<path d="M8590 11090 c8 -5 20 -10 25 -10 6 0 3 5 -5 10 -8 5 -19 10 -25 10
-5 0 -3 -5 5 -10z"/>
<path d="M3729 11043 l-24 -28 28 24 c25 23 32 31 24 31 -2 0 -14 -12 -28 -27z"/>
<path d="M8680 11050 c19 -11 40 -19 45 -19 6 0 -6 8 -25 19 -19 11 -39 19
-45 19 -5 0 6 -8 25 -19z"/>
<path d="M8787 10999 c7 -7 15 -10 18 -7 3 3 -2 9 -12 12 -14 6 -15 5 -6 -5z"/>
<path d="M9471 10976 c-8 -9 -8 -16 -2 -20 5 -4 12 -2 16 4 4 7 13 6 27 -1 15
-8 17 -13 9 -19 -9 -5 -8 -9 4 -14 22 -8 9 -27 -13 -19 -13 4 -14 3 -6 -6 14
-15 47 -3 40 15 -3 8 0 11 9 8 8 -3 11 -13 8 -22 -5 -13 -3 -14 7 -5 16 15 11
22 -43 61 -37 26 -47 29 -56 18z"/>
<path d="M8845 10973 c6 -6 46 -29 90 -53 44 -24 76 -38 70 -33 -5 6 -46 30
-90 53 -44 24 -75 39 -70 33z"/>
<path d="M3649 10953 c-13 -16 -12 -17 4 -4 16 13 21 21 13 21 -2 0 -10 -8
-17 -17z"/>
<path d="M9409 10893 c-13 -16 -12 -17 4 -4 16 13 21 21 13 21 -2 0 -10 -8
-17 -17z"/>
<path d="M5618 10884 c-38 -20 -36 -28 2 -9 17 9 30 18 30 20 0 7 -1 6 -32
-11z"/>
<path d="M9584 10889 c-5 -8 -3 -9 7 -4 8 5 11 4 7 0 -5 -5 -20 -10 -35 -11
-21 -2 -24 -1 -13 6 20 13 3 13 -21 0 -15 -9 -19 -22 -19 -63 l0 -52 89 0 c94
0 106 7 41 25 -22 6 -40 15 -40 20 0 5 8 6 18 3 14 -5 15 -4 6 8 -19 25 -24
49 -9 43 8 -3 11 -12 8 -20 -3 -8 0 -14 6 -14 6 0 11 5 11 12 0 6 3 9 6 6 3
-4 1 -16 -6 -27 -9 -17 -8 -21 5 -21 9 0 14 4 11 9 -3 5 1 12 9 15 13 4 14 2
5 -14 -10 -18 -7 -21 20 -26 17 -4 33 -11 36 -15 11 -19 25 -9 14 11 -7 12
-16 17 -27 13 -10 -4 -14 -2 -10 4 4 6 -15 28 -41 50 -62 51 -69 56 -78 42z
m111 -79 c3 -5 1 -10 -4 -10 -6 0 -11 5 -11 10 0 6 2 10 4 10 3 0 8 -4 11 -10z"/>
<path d="M9021 10876 c3 -3 50 -36 105 -72 54 -36 100 -67 102 -68 4 -4 -20
-47 -46 -84 -15 -21 -18 -30 -9 -26 8 3 17 14 20 25 9 33 36 34 65 4 15 -15
21 -24 13 -20 -10 6 -12 4 -6 -6 5 -7 8 -32 6 -56 l-3 -43 49 -2 c26 0 56 0
66 0 34 3 127 -62 127 -89 0 -6 5 -7 10 -4 6 3 10 2 10 -4 0 -5 -5 -13 -11
-17 -8 -4 -7 -9 2 -15 10 -6 11 -9 2 -9 -15 0 -18 -67 -4 -88 5 -9 28 -12 67
-11 81 2 79 2 113 -27 34 -29 88 -129 65 -120 -10 4 -14 -4 -14 -32 0 -52 11
-64 56 -62 22 1 47 2 56 1 19 -1 52 -32 78 -73 l17 -28 62 50 62 49 -41 -3
c-23 -2 -47 -9 -53 -15 -15 -15 5 -14 23 2 12 10 12 9 2 -4 -6 -9 -8 -20 -4
-24 4 -5 1 -5 -5 -1 -9 5 -13 1 -13 -11 -1 -17 -2 -16 -16 2 -23 30 -38 58
-26 51 5 -3 15 1 22 9 9 11 10 15 1 15 -20 0 -48 33 -33 38 8 2 12 24 12 62 0
32 5 62 10 65 21 13 10 35 -17 34 -90 -3 -191 10 -212 27 -11 10 -21 22 -21
27 0 5 6 4 14 -2 11 -9 13 4 15 78 1 62 -3 92 -12 99 -7 6 -62 12 -122 14
l-108 3 2 112 c2 127 6 120 -88 122 -30 1 -62 7 -70 14 -14 10 -14 10 -3 -4
18 -23 25 -62 9 -52 -7 4 -15 8 -19 8 -3 0 -10 4 -15 9 -4 5 -3 6 4 2 17 -9
25 10 9 23 -21 18 -43 -13 -25 -36 11 -15 11 -16 -1 -5 -17 14 -34 16 -25 2 3
-5 2 -10 -4 -10 -6 0 -15 9 -21 20 -6 11 -52 47 -101 80 -88 58 -140 89 -128
76z m446 -162 c-3 -3 -12 -4 -19 -1 -8 3 -5 6 6 6 11 1 17 -2 13 -5z m-127
-23 c0 -5 -7 -11 -15 -15 -15 -5 -20 5 -8 17 9 10 23 9 23 -2z m12 -33 c-7 -7
-12 -8 -12 -2 0 14 12 26 19 19 2 -3 -1 -11 -7 -17z m48 2 c0 -21 -15 -27 -25
-10 -3 6 0 10 7 10 9 0 9 3 -2 10 -13 8 -12 10 3 10 10 0 17 -8 17 -20z m10
-34 c0 -3 -4 -8 -10 -11 -5 -3 -10 -1 -10 4 0 6 5 11 10 11 6 0 10 -2 10 -4z
m-70 -38 c0 -14 -16 -9 -36 13 -19 21 -19 21 9 8 15 -7 27 -16 27 -21z m-10
-27 c0 -5 -9 -7 -20 -4 -11 3 -20 7 -20 9 0 2 9 4 20 4 11 0 20 -4 20 -9z m44
1 c3 -5 -1 -9 -9 -9 -8 0 -12 4 -9 9 3 4 7 8 9 8 2 0 6 -4 9 -8z m226 -92 c0
-5 -8 -10 -17 -10 -15 0 -16 2 -3 10 19 12 20 12 20 0z m107 4 c-3 -3 -12 -4
-19 -1 -8 3 -5 6 6 6 11 1 17 -2 13 -5z m-52 -13 c-3 -6 4 -15 15 -21 15 -8
19 -17 14 -32 -4 -14 -2 -18 5 -14 6 4 11 2 11 -3 0 -6 -5 -11 -11 -11 -6 0
-9 -7 -5 -15 3 -8 1 -15 -4 -15 -5 0 -8 14 -8 30 1 36 -8 48 -25 31 -9 -9 -9
-14 3 -21 8 -5 11 -10 7 -10 -5 0 -22 14 -39 30 -16 17 -25 30 -19 30 5 0 13
-4 16 -10 12 -20 27 -10 23 15 -4 17 -1 25 9 25 8 0 12 -4 8 -9z m-115 -85 c0
-3 -4 -8 -10 -11 -5 -3 -10 -1 -10 4 0 6 5 11 10 11 6 0 10 -2 10 -4z m70 -26
c0 -5 -5 -10 -11 -10 -5 0 -7 5 -4 10 3 6 8 10 11 10 2 0 4 -4 4 -10z m-40
-10 c0 -5 -6 -10 -14 -10 -8 0 -18 5 -21 10 -3 6 3 10 14 10 12 0 21 -4 21
-10z m33 -27 c-7 -2 -21 -2 -30 0 -10 3 -4 5 12 5 17 0 24 -2 18 -5z m237 -64
c0 -5 -13 -9 -29 -9 -17 0 -32 4 -35 9 -3 5 10 9 29 9 19 0 35 -4 35 -9z m-25
-29 c3 -5 1 -10 -4 -10 -6 0 -11 5 -11 10 0 6 2 10 4 10 3 0 8 -4 11 -10z
m103 -21 c2 -17 0 -20 -6 -11 -5 8 -12 13 -16 13 -3 -1 -6 2 -5 5 0 4 -5 11
-13 15 -9 6 -5 8 12 6 18 -3 26 -11 28 -28z m-39 -28 c8 -14 7 -20 -2 -24 -8
-3 -14 4 -15 19 -2 29 4 31 17 5z m-66 -45 c6 -16 -2 -28 -14 -20 -12 7 -11
34 0 34 5 0 11 -6 14 -14z m88 -8 c11 -21 11 -22 -4 -9 -10 7 -17 17 -17 22 0
15 9 10 21 -13z m-106 -38 c3 -5 -1 -10 -10 -10 -9 0 -13 5 -10 10 3 6 8 10
10 10 2 0 7 -4 10 -10z"/>
<path d="M4639 10853 c-13 -16 -12 -17 4 -4 16 13 21 21 13 21 -2 0 -10 -8
-17 -17z"/>
<path d="M5486 10800 c-42 -27 -76 -52 -76 -55 0 -7 7 -3 90 53 71 48 76 52
68 52 -3 0 -40 -22 -82 -50z"/>
<path d="M9364 10828 c-19 -23 -19 -23 2 -5 11 9 24 14 29 10 4 -5 5 -2 1 5
-9 16 -10 16 -32 -10z"/>
<path d="M3529 10813 c-13 -16 -12 -17 4 -4 9 7 17 15 17 17 0 8 -8 3 -21 -13z"/>
<path d="M4559 10783 c-13 -16 -12 -17 4 -4 9 7 17 15 17 17 0 8 -8 3 -21 -13z"/>
<path d="M9705 10760 c3 -5 8 -10 11 -10 2 0 4 5 4 10 0 6 -5 10 -11 10 -5 0
-7 -4 -4 -10z"/>
<path d="M9752 10752 c-9 -3 -6 -8 10 -16 12 -7 22 -19 20 -26 -2 -7 7 -23 19
-36 29 -31 15 -31 -15 -1 -12 13 -22 31 -20 40 1 9 -1 17 -6 17 -4 0 -8 -46
-9 -102 l-2 -103 87 5 c54 3 89 9 91 17 2 6 -6 13 -19 16 l-23 4 23 2 c12 0
22 6 22 11 0 6 -8 10 -17 8 -11 -2 -22 6 -28 20 -5 12 -13 22 -17 22 -12 0
-10 -28 2 -35 6 -3 10 -11 10 -17 0 -7 -6 -6 -15 2 -8 7 -15 21 -15 30 0 10
-6 20 -12 23 -7 2 0 4 15 4 17 0 31 -7 38 -18 5 -11 16 -19 24 -19 14 0 37
-31 34 -47 -3 -19 2 -33 12 -33 6 0 8 7 5 17 -6 14 -4 14 14 -2 13 -12 17 -21
10 -23 -8 -3 -8 -8 1 -18 15 -18 -11 -20 -30 -1 -10 10 -11 9 -6 -5 4 -10 15
-18 24 -18 14 0 16 -10 13 -70 -4 -63 -2 -70 14 -70 18 -1 18 -1 1 -11 -33
-19 -6 -29 77 -27 45 1 88 -2 94 -6 7 -4 12 -1 12 9 0 18 -76 110 -90 110 -5
0 -12 4 -17 9 -5 5 -3 6 5 2 26 -15 10 9 -45 67 -188 198 -273 276 -291 269z
m98 -94 c0 -4 -5 -8 -12 -8 -6 0 -8 3 -5 7 4 3 -2 12 -13 20 -11 8 -20 18 -20
24 0 5 11 -1 25 -13 14 -12 25 -25 25 -30z m-52 -18 c14 -9 13 -10 -7 -4 -16
4 -21 3 -17 -5 4 -6 3 -11 -3 -11 -5 0 -9 14 -9 31 1 23 3 27 10 15 5 -8 16
-20 26 -26z m67 -89 c-6 -5 -25 10 -25 20 0 5 6 4 14 -3 8 -7 12 -15 11 -17z
m159 -89 c-5 -18 39 -76 50 -65 3 3 6 1 6 -5 0 -7 7 -9 18 -5 15 6 15 5 3 -10
-10 -13 -17 -15 -27 -6 -11 9 -14 8 -14 -5 0 -10 -5 -14 -10 -11 -6 4 -8 15
-5 26 4 10 2 19 -3 19 -13 0 -35 50 -37 83 -1 24 1 26 11 12 7 -9 10 -24 8
-33z m116 -115 c0 -7 -4 -6 -10 3 -8 13 -10 12 -10 -4 0 -13 5 -17 19 -13 13
3 18 1 14 -9 -6 -16 -31 -7 -43 16 -7 13 -6 20 3 23 16 6 27 -1 27 -16z m-41
-15 c7 -13 6 -19 -2 -19 -7 0 -13 9 -13 19 0 10 1 18 3 18 1 0 7 -8 12 -18z"/>
<path d="M5370 10720 c-14 -11 -20 -20 -14 -20 6 0 19 9 29 20 23 25 17 25
-15 0z"/>
<path d="M5285 10654 l-30 -26 33 22 c17 12 32 23 32 26 0 7 -4 5 -35 -22z"/>
<path d="M7243 10663 c48 -2 125 -2 170 0 45 1 6 3 -88 3 -93 0 -130 -2 -82
-3z"/>
<path d="M6990 10650 c-20 -5 1 -6 50 -3 47 3 87 7 89 9 8 7 -103 2 -139 -6z"/>
<path d="M7543 10653 c15 -2 37 -2 50 0 12 2 0 4 -28 4 -27 0 -38 -2 -22 -4z"/>
<path d="M7633 10643 c9 -2 25 -2 35 0 9 3 1 5 -18 5 -19 0 -27 -2 -17 -5z"/>
<path d="M4379 10613 l-24 -28 28 24 c25 23 32 31 24 31 -2 0 -14 -12 -28 -27z"/>
<path d="M6903 10633 c9 -2 23 -2 30 0 6 3 -1 5 -18 5 -16 0 -22 -2 -12 -5z"/>
<path d="M7713 10633 c9 -2 23 -2 30 0 6 3 -1 5 -18 5 -16 0 -22 -2 -12 -5z"/>
<path d="M6843 10623 c9 -2 23 -2 30 0 6 3 -1 5 -18 5 -16 0 -22 -2 -12 -5z"/>
<path d="M7773 10623 c9 -2 23 -2 30 0 6 3 -1 5 -18 5 -16 0 -22 -2 -12 -5z"/>
<path d="M5132 10529 c-56 -50 -102 -92 -102 -95 0 -3 48 37 108 87 59 51 109
93 111 95 2 2 0 4 -5 4 -6 0 -56 -41 -112 -91z"/>
<path d="M6788 10613 c6 -2 18 -2 25 0 6 3 1 5 -13 5 -14 0 -19 -2 -12 -5z"/>
<path d="M7949 10585 c74 -19 136 -33 138 -31 5 4 -182 53 -232 61 -22 3 20
-10 94 -30z"/>
<path d="M6748 10603 c7 -3 16 -2 19 1 4 3 -2 6 -13 5 -11 0 -14 -3 -6 -6z"/>
<path d="M6595 10570 c-145 -42 -392 -136 -383 -146 3 -2 31 8 64 22 92 41
188 74 329 115 72 21 121 38 110 38 -11 0 -65 -13 -120 -29z"/>
<path d="M9119 10563 c-13 -16 -12 -17 4 -4 16 13 21 21 13 21 -2 0 -10 -8
-17 -17z"/>
<path d="M8115 10540 c27 -12 43 -12 25 0 -8 5 -22 9 -30 9 -10 0 -8 -3 5 -9z"/>
<path d="M9081 10511 c-12 -16 -21 -34 -21 -39 0 -5 -7 -12 -15 -16 -9 -3 -12
-12 -8 -22 4 -11 3 -15 -5 -10 -6 3 -14 1 -18 -5 -4 -8 -3 -9 4 -5 16 9 36
-42 23 -58 -5 -6 -7 -23 -4 -38 5 -27 8 -28 68 -28 34 0 83 3 108 6 l46 7 3
90 c2 52 -1 96 -7 104 -9 12 -24 13 -78 5 -55 -7 -67 -6 -63 5 3 7 1 13 -5 13
-6 0 -7 5 -4 10 14 23 -5 8 -24 -19z m9 -16 c-11 -13 -8 -14 19 -11 44 5 48
-10 5 -19 -44 -8 -51 -2 -34 30 7 14 15 23 18 20 3 -2 -1 -11 -8 -20z m145
-16 c4 -5 -3 -9 -14 -9 -26 0 -35 15 -11 17 11 1 22 -2 25 -8z m-140 -40 c-18
-5 -33 -5 -39 1 -7 7 4 10 30 9 39 -1 39 -1 9 -10z m-3 -26 c-18 -2 -30 -9
-27 -14 4 -5 2 -9 -3 -9 -6 0 -12 7 -16 15 -4 12 3 15 37 13 37 -1 38 -2 9 -5z"/>
<path d="M9925 10531 c-3 -5 -1 -12 5 -16 5 -3 10 1 10 9 0 18 -6 21 -15 7z"/>
<path d="M4259 10483 l-34 -38 38 34 c20 19 37 36 37 38 0 8 -8 0 -41 -34z"/>
<path d="M8191 10516 c4 -4 148 -62 179 -72 8 -3 -3 5 -24 17 -48 26 -171 70
-155 55z"/>
<path d="M8420 10425 c0 -7 61 -37 66 -33 2 3 -12 12 -31 21 -19 9 -35 15 -35
12z"/>
<path d="M4943 10348 c-39 -40 -84 -89 -99 -108 -15 -19 -6 -12 20 15 26 28
73 76 104 108 31 31 54 57 51 57 -3 0 -37 -33 -76 -72z"/>
<path d="M6138 10394 c-27 -13 -48 -27 -48 -29 0 -5 99 42 109 51 13 11 -20 0
-61 -22z"/>
<path d="M8500 10386 c0 -2 33 -22 73 -44 89 -49 229 -137 278 -175 22 -16 43
-25 53 -21 9 3 16 1 16 -6 0 -6 -6 -8 -12 -5 -15 8 26 -28 73 -65 18 -14 77
-68 132 -120 91 -88 130 -119 113 -91 -4 6 -2 11 4 11 6 0 8 5 4 11 -4 8 -9 7
-15 -2 -8 -13 -10 -12 -13 11 0 6 -4 9 -7 8 -13 -5 -50 36 -45 49 5 12 -13 18
-37 14 -5 -1 -6 3 -2 9 3 5 1 10 -4 10 -6 0 -11 7 -11 15 0 8 -5 15 -10 15
-18 0 -70 43 -70 57 0 7 -7 13 -15 13 -8 0 -15 4 -15 9 0 5 -6 11 -13 13 -9 2
-11 11 -6 28 6 22 7 23 8 4 1 -26 31 -40 43 -22 4 7 6 22 3 33 -2 11 -5 35 -5
53 0 30 -2 32 -34 32 -19 0 -38 5 -41 10 -4 6 -10 8 -15 5 -5 -3 -11 -1 -14 4
-3 5 1 12 9 15 9 3 18 -1 21 -9 4 -11 20 -15 53 -14 44 1 45 1 17 11 -22 8
-25 13 -15 20 10 7 3 8 -22 5 -20 -3 -41 -1 -46 4 -6 6 -24 -10 -48 -46 -33
-48 -40 -53 -54 -42 -47 40 -331 205 -331 193z m437 -172 c-3 -16 0 -21 10
-17 7 3 13 -2 13 -11 0 -14 -4 -15 -21 -5 -15 8 -24 8 -32 0 -17 -17 -33 -13
-33 9 0 13 7 20 18 20 10 0 18 6 18 13 0 8 7 14 16 14 11 0 14 -7 11 -23z m23
-79 c0 -20 -20 -29 -33 -16 -9 9 -8 11 6 6 20 -8 23 5 5 24 -11 10 -10 11 5 6
9 -4 17 -13 17 -20z m54 -1 c3 -8 2 -12 -4 -9 -6 3 -10 10 -10 16 0 14 7 11
14 -7z"/>
<path d="M8976 10362 c-3 -5 1 -9 9 -9 8 0 15 4 15 9 0 4 -4 8 -9 8 -6 0 -12
-4 -15 -8z"/>
<path d="M6018 10329 c-21 -11 -38 -22 -38 -24 0 -3 18 4 40 15 22 11 40 23
40 25 0 7 0 7 -42 -16z"/>
<path d="M8947 10322 c-15 -16 -15 -19 -2 -19 8 0 13 3 10 5 -3 3 0 11 6 19
17 20 5 16 -14 -5z"/>
<path d="M5888 10250 c-43 -27 -78 -52 -78 -55 0 -3 6 -2 13 2 6 5 42 28 80
52 58 37 75 51 65 51 -2 0 -38 -22 -80 -50z"/>
<path d="M9280 10160 l0 -110 110 0 111 0 -3 107 c-2 79 -7 108 -17 111 -9 3
-11 -2 -6 -17 5 -15 2 -21 -10 -21 -10 0 -15 7 -13 18 3 15 -8 17 -84 20 l-88
3 0 -111z"/>
<path d="M10217 10253 c-4 -3 -7 -11 -7 -17 0 -6 5 -4 10 4 8 12 10 10 11 -10
1 -14 0 -38 -1 -55 -1 -25 1 -28 12 -17 7 7 14 17 14 23 3 22 5 23 15 9 9 -13
10 -13 6 0 -2 8 -10 14 -16 13 -6 -2 -11 5 -11 16 0 21 -23 45 -33 34z"/>
<path d="M4770 10158 c-51 -61 -102 -128 -97 -128 5 0 119 138 131 158 14 23
1 12 -34 -30z"/>
<path d="M5735 10143 c-66 -49 -160 -129 -215 -182 -36 -35 -5 -14 40 27 14
13 73 62 133 109 59 47 107 87 107 89 0 6 -1 5 -65 -43z"/>
<path d="M10173 10133 c8 -7 -63 -59 -75 -55 -5 1 -8 -2 -8 -8 0 -15 5 -13 55
22 44 31 56 48 33 48 -6 0 -8 -3 -5 -7z"/>
<path d="M9112 10015 c2 -17 11 -34 23 -40 44 -22 48 -27 34 -37 -11 -7 -9 -8
5 -4 14 5 17 2 12 -9 -3 -9 -2 -13 3 -10 5 3 13 0 16 -6 4 -6 19 -8 34 -5 19
5 22 4 11 -3 -8 -6 -11 -13 -8 -17 4 -4 2 -16 -4 -27 -9 -17 -7 -24 8 -36 11
-9 35 -36 55 -61 20 -25 47 -57 60 -72 13 -14 37 -45 53 -67 l29 -40 26 19
c14 11 36 28 49 38 l23 18 -23 2 c-13 1 -33 3 -45 3 -17 1 -19 4 -10 14 7 7
18 10 24 8 9 -4 13 5 13 27 0 41 -17 71 -38 69 -34 -3 -53 1 -47 11 5 8 -43
14 -81 9 -3 0 -12 8 -20 18 -10 12 -9 6 3 -20 11 -25 19 -33 25 -25 6 10 8 10
8 0 0 -7 12 -18 26 -24 22 -10 28 -10 39 5 9 13 18 15 36 9 22 -8 21 -9 -9
-15 -34 -7 -43 -30 -17 -44 11 -7 12 -16 6 -38 -9 -29 -15 -19 -12 18 1 9 -3
17 -9 17 -7 0 -10 -6 -7 -14 3 -8 3 -17 0 -20 -6 -6 -33 39 -33 56 0 5 -6 16
-14 23 -10 11 -16 11 -26 2 -10 -9 -11 -9 -6 1 4 7 -6 24 -26 42 -25 24 -33
39 -34 70 -1 27 2 37 10 33 6 -4 6 -1 -1 8 -7 9 -13 36 -13 60 0 81 4 77 -77
81 l-74 3 3 -30z m126 -17 c1 -23 -2 -28 -8 -18 -10 16 -12 14 -27 -13 -9 -17
-10 -16 -29 4 -10 12 -13 19 -7 15 14 -8 58 12 49 22 -4 3 -27 5 -51 3 -27 -1
-45 2 -45 8 0 7 23 11 58 11 l59 0 1 -32z m117 -269 c11 -17 -1 -21 -15 -4 -8
9 -8 15 -2 15 6 0 14 -5 17 -11z m86 -93 c23 18 45 23 60 12 11 -8 10 -9 -5
-4 -13 5 -17 2 -13 -8 4 -9 -5 -21 -20 -31 -14 -10 -23 -13 -19 -7 3 5 -5 17
-19 26 -14 9 -25 22 -25 28 0 7 6 3 14 -7 10 -14 17 -17 27 -9z"/>
<path d="M9447 9634 c-11 -11 3 -24 18 -18 8 4 12 10 9 15 -6 11 -18 12 -27 3z"/>
<path d="M9075 10030 c4 -6 11 -8 16 -5 14 9 11 15 -7 15 -8 0 -12 -5 -9 -10z"/>
<path d="M9517 10033 c-7 -13 -8 -188 -1 -206 5 -14 20 -17 89 -17 46 0 95 4
109 10 25 9 26 13 26 90 0 52 -4 80 -11 80 -8 0 -8 5 1 15 10 12 9 16 -6 22
-10 4 -19 2 -22 -5 -5 -15 -102 -16 -102 -1 0 7 17 10 45 7 25 -2 45 0 45 4 0
10 -167 10 -173 1z m146 -210 c-13 -2 -33 -2 -45 0 -13 2 -3 4 22 4 25 0 35
-2 23 -4z"/>
<path d="M4638 9988 c-48 -64 -72 -102 -62 -95 12 7 97 127 91 127 -3 0 -16
-15 -29 -32z"/>
<path d="M10738 9903 c-43 -25 -75 -50 -72 -55 4 -6 9 -6 13 -1 9 14 132 86
147 86 7 0 11 4 8 9 -8 12 -13 10 -96 -39z"/>
<path d="M9896 9924 c-23 -23 -20 -30 4 -9 11 10 20 20 20 22 0 7 -9 2 -24
-13z"/>
<path d="M5400 9843 c-128 -137 -271 -326 -345 -458 -42 -74 -23 -51 38 46 75
120 183 264 263 351 38 40 82 88 98 106 16 17 27 32 24 32 -3 0 -38 -35 -78
-77z"/>
<path d="M4536 9841 c-73 -116 -107 -174 -102 -178 2 -3 12 10 22 29 9 18 36
62 59 98 54 84 57 90 51 90 -3 0 -17 -18 -30 -39z"/>
<path d="M9730 9810 c0 -5 5 -10 10 -10 6 0 10 5 10 10 0 6 -4 10 -10 10 -5 0
-10 -4 -10 -10z"/>
<path d="M9460 9800 c-24 -8 -23 -8 8 -9 20 -1 31 3 27 9 -3 6 -7 10 -8 9 -1
-1 -13 -5 -27 -9z"/>
<path d="M9710 9799 c0 -6 -10 -20 -22 -30 l-23 -20 28 17 c23 14 38 44 22 44
-3 0 -5 -5 -5 -11z"/>
<path d="M9645 9740 c-4 -6 -11 -7 -17 -4 -7 4 -8 2 -4 -5 6 -9 11 -9 22 0 14
11 18 19 10 19 -3 0 -8 -5 -11 -10z"/>
<path d="M9380 9721 c0 -6 5 -13 10 -16 6 -3 10 1 10 9 0 9 -4 16 -10 16 -5 0
-10 -4 -10 -9z"/>
<path d="M9534 9708 l-19 -23 23 19 c21 18 27 26 19 26 -2 0 -12 -10 -23 -22z"/>
<path d="M9590 9705 c-9 -11 -15 -12 -20 -5 -4 6 -14 2 -25 -12 -11 -13 -13
-17 -5 -10 21 18 34 15 19 -5 -7 -10 0 -7 16 7 17 14 32 26 34 28 2 1 2 4 -1
7 -3 3 -11 -2 -18 -10z"/>
<path d="M4376 9568 c-43 -80 -65 -129 -54 -118 10 9 109 200 104 200 -3 0
-25 -37 -50 -82z"/>
<path d="M10629 9578 c20 -50 71 -151 65 -128 -9 31 -63 150 -69 150 -3 0 -1
-10 4 -22z"/>
<path d="M10604 9582 c9 -15 -32 -41 -58 -36 -13 2 -45 -8 -72 -22 -27 -14
-41 -23 -31 -20 22 7 23 -10 0 -18 -9 -4 -20 -1 -25 6 -6 11 -8 10 -8 0 0 -7
-4 -10 -10 -7 -5 3 -7 0 -4 -8 3 -8 -5 -18 -18 -25 -13 -6 -17 -11 -10 -11 6
-1 21 8 31 18 11 11 21 17 24 15 2 -3 48 14 101 38 91 41 111 58 84 74 -6 4
-8 3 -4 -4z m-119 -72 c3 -5 1 -10 -4 -10 -6 0 -11 5 -11 10 0 6 2 10 4 10 3
0 8 -4 11 -10z"/>
<path d="M10563 9570 c-13 -5 -23 -11 -23 -14 0 -8 30 0 42 12 14 14 11 14
-19 2z"/>
<path d="M10322 9454 c-12 -8 -22 -12 -22 -9 0 3 -13 -2 -30 -12 -32 -19 -37
-28 -18 -39 7 -4 8 -3 4 5 -6 9 0 10 19 5 21 -5 27 -3 32 15 3 12 17 28 32 36
14 8 21 14 16 15 -6 0 -21 -7 -33 -16z"/>
<path d="M4293 9398 c-45 -97 -114 -280 -109 -291 3 -9 5 -9 5 1 1 16 60 166
100 256 17 38 30 71 28 73 -3 2 -13 -16 -24 -39z"/>
<path d="M10705 9405 c4 -11 20 -54 35 -95 16 -41 37 -100 49 -130 11 -30 20
-49 20 -42 1 16 -77 230 -96 262 -9 16 -12 18 -8 5z"/>
<path d="M10155 9375 c-38 -18 -64 -34 -56 -34 11 -1 10 -5 -5 -17 -17 -15
-17 -15 8 0 15 9 34 16 42 16 8 0 25 10 37 23 12 12 19 16 15 10 -5 -9 -2 -11
8 -7 9 3 16 10 16 16 0 5 4 6 10 3 6 -3 7 1 4 9 -3 9 -7 16 -8 16 0 0 -32 -16
-71 -35z"/>
<path d="M4981 9255 c-38 -68 -69 -137 -58 -125 9 10 107 200 103 200 -2 0
-23 -34 -45 -75z"/>
<path d="M10020 9310 c-18 -12 -2 -12 25 0 13 6 15 9 5 9 -8 0 -22 -4 -30 -9z"/>
<path d="M9860 9237 c-102 -51 -129 -69 -110 -75 12 -4 112 48 128 67 7 9 11
10 7 4 -3 -7 -3 -13 2 -13 14 1 72 35 73 43 0 4 0 10 0 15 0 4 5 0 10 -8 8
-13 10 -12 10 3 0 9 -3 17 -7 16 -5 0 -55 -24 -113 -52z"/>
<path d="M9710 9160 c-8 -5 -12 -11 -9 -14 2 -3 11 -1 19 4 8 5 12 11 9 14 -2
3 -11 1 -19 -4z"/>
<path d="M9710 9129 c0 -4 11 -31 25 -60 14 -30 22 -43 19 -29 -7 26 -43 100
-44 89z"/>
<path d="M4861 8992 c-28 -72 -51 -136 -51 -143 0 -8 25 49 55 126 30 77 52
141 51 143 -2 2 -27 -55 -55 -126z"/>
<path d="M10811 9115 c0 -5 6 -30 13 -55 8 -25 15 -36 15 -25 -1 21 -27 98
-28 80z"/>
<path d="M4161 9059 c-6 -18 -11 -37 -10 -43 0 -6 7 7 15 28 8 22 12 41 10 43
-2 2 -9 -10 -15 -28z"/>
<path d="M4136 8974 c-4 -14 -5 -28 -3 -31 3 -2 8 8 11 23 4 14 5 28 3 31 -3
2 -8 -8 -11 -23z"/>
<path d="M10852 8970 c0 -8 4 -26 8 -40 6 -20 8 -21 8 -5 0 11 -3 29 -8 40 -5
12 -8 14 -8 5z"/>
<path d="M4116 8904 c-4 -14 -5 -28 -3 -31 3 -2 8 8 11 23 4 14 5 28 3 31 -3
2 -8 -8 -11 -23z"/>
<path d="M9790 8925 c0 -5 5 -17 10 -25 5 -8 10 -10 10 -5 0 6 -5 17 -10 25
-5 8 -10 11 -10 5z"/>
<path d="M10871 8884 c0 -11 3 -14 6 -6 3 7 2 16 -1 19 -3 4 -6 -2 -5 -13z"/>
<path d="M9811 8870 c0 -8 4 -22 9 -30 12 -18 12 -2 0 25 -6 13 -9 15 -9 5z"/>
<path d="M4082 8767 c-19 -82 -40 -213 -26 -162 17 62 55 248 51 251 -2 2 -13
-38 -25 -89z"/>
<path d="M10881 8844 c0 -11 3 -14 6 -6 3 7 2 16 -1 19 -3 4 -6 -2 -5 -13z"/>
<path d="M9830 8814 c0 -17 58 -219 59 -206 1 16 -48 204 -55 211 -2 2 -4 0
-4 -5z"/>
<path d="M10892 8805 c0 -11 4 -33 8 -50 7 -27 8 -27 8 -5 0 14 -4 36 -8 50
-6 20 -8 21 -8 5z"/>
<path d="M4786 8774 c-4 -14 -5 -28 -3 -31 3 -2 8 8 11 23 4 14 5 28 3 31 -3
2 -8 -8 -11 -23z"/>
<path d="M4771 8714 c0 -11 3 -14 6 -6 3 7 2 16 -1 19 -3 4 -6 -2 -5 -13z"/>
<path d="M10912 8700 c0 -14 4 -38 8 -55 7 -27 8 -27 8 -5 0 14 -4 39 -8 55
-7 27 -8 27 -8 5z"/>
<path d="M4755 8660 c-4 -17 -5 -34 -2 -36 2 -3 7 10 11 27 8 42 0 50 -9 9z"/>
<path d="M4735 8570 c-4 -23 -5 -43 -2 -46 2 -3 7 14 11 37 4 23 5 44 2 46 -2
2 -7 -14 -11 -37z"/>
<path d="M10930 8583 c0 -17 -3 -33 -7 -36 -5 -2 -2 -2 5 -1 18 5 15 -16 -4
-23 -9 -3 -20 0 -26 8 -8 12 -9 11 -5 -1 2 -8 16 -16 31 -18 27 -3 27 -3 20
45 -8 57 -14 68 -14 26z"/>
<path d="M9892 8570 c0 -14 2 -19 5 -12 2 6 2 18 0 25 -3 6 -5 1 -5 -13z"/>
<path d="M4042 8555 c0 -16 2 -22 5 -12 2 9 2 23 0 30 -3 6 -5 -1 -5 -18z"/>
<path d="M9902 8520 c0 -14 2 -19 5 -12 2 6 2 18 0 25 -3 6 -5 1 -5 -13z"/>
<path d="M10848 8533 c6 -2 18 -2 25 0 6 3 1 5 -13 5 -14 0 -19 -2 -12 -5z"/>
<path d="M10795 8520 c-7 -11 22 -26 32 -16 4 3 -2 6 -13 6 -16 0 -17 2 -4 10
9 6 10 10 3 10 -6 0 -15 -5 -18 -10z"/>
<path d="M4025 8445 c-4 -42 -5 -78 -3 -81 3 -2 8 30 12 72 4 42 5 78 2 81 -2
2 -7 -30 -11 -72z"/>
<path d="M10718 8513 c6 -2 18 -2 25 0 6 3 1 5 -13 5 -14 0 -19 -2 -12 -5z"/>
<path d="M4722 8490 c0 -14 2 -19 5 -12 2 6 2 18 0 25 -3 6 -5 1 -5 -13z"/>
<path d="M10625 8505 c-5 -1 -49 -9 -97 -16 -61 -8 -88 -16 -88 -26 0 -16 13
-16 105 -2 166 25 171 26 140 29 -30 2 -30 2 -5 10 23 7 22 8 -10 8 -19 0 -39
-1 -45 -3z m-88 -31 c-3 -3 -12 -4 -19 -1 -8 3 -5 6 6 6 11 1 17 -2 13 -5z"/>
<path d="M10738 8493 c12 -2 30 -2 40 0 9 3 -1 5 -23 4 -22 0 -30 -2 -17 -4z"/>
<path d="M9912 8465 c0 -16 2 -22 5 -12 2 9 2 23 0 30 -3 6 -5 -1 -5 -18z"/>
<path d="M10315 8461 l-40 -6 55 -8 c30 -3 58 -3 63 2 5 5 -4 7 -20 5 -24 -4
-25 -3 -8 5 23 11 10 11 -50 2z"/>
<path d="M4712 8430 c0 -14 2 -19 5 -12 2 6 2 18 0 25 -3 6 -5 1 -5 -13z"/>
<path d="M10153 8433 c3 -5 -16 -7 -41 -5 -37 2 -44 1 -32 -8 12 -9 9 -10 -14
-5 -15 3 -49 3 -75 -1 -36 -6 -42 -9 -26 -15 11 -4 34 -8 50 -8 24 -1 27 1 15
10 -12 8 -10 9 10 5 14 -3 70 0 125 6 75 10 93 14 70 19 -43 10 -87 10 -82 2z"/>
<path d="M10283 8433 c9 -2 25 -2 35 0 9 3 1 5 -18 5 -19 0 -27 -2 -17 -5z"/>
<path d="M9921 8408 c-1 -20 4 -28 15 -28 12 0 14 4 7 13 -6 6 -13 19 -16 27
-3 9 -6 3 -6 -12z"/>
<path d="M4695 8307 c-4 -47 -5 -91 -3 -99 3 -7 8 29 12 81 4 51 5 95 2 98 -2
2 -7 -34 -11 -80z"/>
<path d="M3291 8344 c0 -11 3 -14 6 -6 3 7 2 16 -1 19 -3 4 -6 -2 -5 -13z"/>
<path d="M4013 8295 c0 -27 2 -38 4 -22 2 15 2 37 0 50 -2 12 -4 0 -4 -28z"/>
<path d="M11361 8294 c0 -11 3 -14 6 -6 3 7 2 16 -1 19 -3 4 -6 -2 -5 -13z"/>
<path d="M11181 8204 c0 -11 3 -14 6 -6 3 7 2 16 -1 19 -3 4 -6 -2 -5 -13z"/>
<path d="M4002 8034 l-2 -161 41 -1 c22 -1 38 1 36 6 -3 4 42 6 99 4 62 -2
104 1 104 7 0 5 8 12 18 15 9 2 -45 4 -120 2 -93 -2 -141 -6 -152 -15 -14 -12
-16 4 -19 145 l-3 159 -2 -161z m221 -141 c-13 -2 -33 -2 -45 0 -13 2 -3 4 22
4 25 0 35 -2 23 -4z"/>
<path d="M4684 8065 c0 -71 1 -99 3 -62 2 37 2 96 0 130 -2 34 -3 4 -3 -68z"/>
<path d="M4455 7910 c113 -10 240 -12 232 -4 -3 4 -77 8 -164 9 -134 3 -145 2
-68 -5z"/>
<path d="M4333 7893 c9 -2 25 -2 35 0 9 3 1 5 -18 5 -19 0 -27 -2 -17 -5z"/>
<path d="M4418 7893 c12 -2 30 -2 40 0 9 3 -1 5 -23 4 -22 0 -30 -2 -17 -4z"/>
<path d="M11196 7798 c-3 -13 -7 -84 -11 -158 -16 -370 -117 -814 -270 -1191
-97 -237 -286 -595 -340 -645 -13 -12 -21 -24 -18 -27 10 -11 -195 -289 -296
-402 -317 -351 -591 -583 -945 -800 -139 -85 -504 -267 -518 -259 -6 4 -8 2
-4 -4 8 -13 -29 -26 -45 -16 -7 4 -9 3 -5 -4 13 -22 -356 -147 -609 -206 -476
-111 -1058 -132 -1525 -56 -769 127 -1451 443 -2014 932 l-109 95 -72 -76
c-39 -42 -129 -137 -199 -211 l-127 -135 63 -59 c35 -32 126 -109 203 -171
689 -551 1485 -880 2370 -980 196 -22 613 -30 810 -16 898 66 1704 361 2415
884 658 485 1170 1135 1489 1893 142 339 257 770 305 1144 17 134 41 458 35
465 -3 2 -91 5 -197 5 -111 1 -192 5 -192 11 0 5 -43 9 -95 9 -90 0 -95 -1
-99 -22z"/>
<path d="M9930 7751 c0 -21 -3 -54 -6 -72 -5 -33 -5 -34 9 -10 11 18 16 20 20
10 4 -11 6 -11 6 -1 1 7 6 10 11 7 6 -3 10 5 10 19 0 14 -4 28 -10 31 -6 4 -4
16 6 31 16 24 16 24 -15 24 -29 0 -31 -2 -31 -39z m37 -43 c-3 -8 -6 -5 -6 6
-1 11 2 17 5 13 3 -3 4 -12 1 -19z"/>
<path d="M10058 7773 c12 -2 30 -2 40 0 9 3 -1 5 -23 4 -22 0 -30 -2 -17 -4z"/>
<path d="M10160 7767 c3 -3 22 -7 42 -9 35 -2 36 -3 31 -33 l-5 -32 68 -6 c38
-4 88 -7 110 -7 40 0 42 1 46 34 l4 33 -86 7 c-47 3 -114 9 -150 12 -36 4 -63
4 -60 1z m239 -45 c3 -5 13 -12 21 -15 8 -3 -2 -6 -23 -6 -21 -1 -36 3 -33 8
4 5 -6 14 -21 20 -26 10 -25 11 11 6 22 -2 42 -8 45 -13z"/>
<path d="M10535 7730 c17 -4 23 -8 15 -9 -9 -1 -11 -4 -5 -9 18 -13 15 -32 -5
-32 -16 0 -20 -7 -21 -37 l-2 -38 -7 35 c-7 34 -7 34 -9 -13 0 -30 3 -46 9
-42 6 3 10 0 10 -7 0 -7 3 -24 5 -38 5 -22 4 -23 -5 -5 -9 18 -10 17 -7 -7 2
-15 1 -25 -4 -23 -4 3 -9 -1 -12 -7 -3 -7 -4 1 -4 17 3 102 -3 155 -18 155
-14 0 -16 -16 -13 -111 2 -102 4 -112 22 -119 12 -4 25 -5 29 -3 13 8 -22
-167 -43 -212 -5 -11 -14 -45 -20 -75 -6 -30 -21 -84 -34 -120 l-22 -65 -79
-5 c-79 -5 -80 -5 -80 -32 0 -14 -3 -30 -7 -34 -15 -15 -7 -39 20 -61 l27 -22
-30 -1 c-27 -1 -24 -4 30 -29 94 -44 166 -71 159 -60 -3 6 2 19 12 30 12 13
13 19 4 19 -7 0 -19 -8 -26 -17 -13 -17 -15 -17 -28 0 -7 9 -19 17 -27 17 -12
0 -12 2 0 9 8 5 10 14 6 21 -5 9 -4 11 3 6 7 -4 12 -14 12 -22 0 -15 12 -17
45 -8 19 5 20 11 14 117 -6 115 -3 147 12 147 5 0 3 -11 -3 -25 -9 -20 -9 -28
2 -38 10 -10 12 -8 6 7 -12 35 11 46 94 46 57 0 81 -4 90 -15 9 -10 9 -15 1
-15 -6 0 -11 5 -11 10 0 6 -18 10 -40 10 -29 0 -40 -4 -40 -15 0 -8 -5 -15
-11 -15 -6 0 -9 7 -5 15 4 11 -2 15 -23 15 -27 0 -41 -15 -41 -41 0 -6 40 -9
98 -7 l97 3 3 108 3 107 -73 1 c-40 1 -79 1 -85 0 -7 -1 -13 4 -13 11 0 21 48
230 54 236 5 5 29 7 101 11 19 1 20 7 18 93 -2 51 -3 101 -3 111 0 10 -8 17
-20 17 -16 0 -20 -7 -20 -34 0 -19 6 -37 13 -39 8 -4 9 -6 0 -6 -21 -2 -43 30
-43 60 0 16 -4 29 -9 29 -5 0 -7 9 -4 20 4 15 14 20 42 21 32 2 31 2 -14 9
-27 5 -66 8 -85 8 l-35 0 30 -8z m12 -92 c-3 -7 -5 -2 -5 12 0 14 2 19 5 13 2
-7 2 -19 0 -25z m71 -74 c-3 -14 -5 -12 -10 9 -3 19 -2 25 4 19 6 -6 8 -18 6
-28z m-31 -46 c-3 -7 -5 -2 -5 12 0 14 2 19 5 13 2 -7 2 -19 0 -25z m-1 -66
c-11 -10 -15 4 -8 28 l7 25 3 -23 c2 -13 1 -26 -2 -30z m44 38 c0 -5 -2 -10
-4 -10 -3 0 -8 5 -11 10 -3 6 -1 10 4 10 6 0 11 -4 11 -10z m-123 -32 c-3 -8
-6 -5 -6 6 -1 11 2 17 5 13 3 -3 4 -12 1 -19z m29 -346 c-13 -12 -17 8 -9 44
l8 39 3 -39 c2 -21 1 -41 -2 -44z m21 21 c-3 -10 -5 -4 -5 12 0 17 2 24 5 18
2 -7 2 -21 0 -30z m-36 -33 c5 0 9 -5 9 -11 0 -5 -4 -7 -10 -4 -5 3 -10 0 -11
-7 0 -7 -5 1 -10 17 -5 17 -5 39 -1 50 5 16 7 14 10 -12 2 -18 7 -33 13 -33z
m-241 -166 c0 -8 -5 -12 -10 -9 -6 4 -8 11 -5 16 9 14 15 11 15 -7z m59 -34
c1 -13 0 -13 -9 0 -5 8 -9 24 -9 35 l0 20 9 -20 c5 -11 9 -27 9 -35z m20 10
c0 -10 -3 -8 -9 5 -12 27 -12 43 0 25 5 -8 9 -22 9 -30z m68 -12 c-3 -8 -6 -5
-6 6 -1 11 2 17 5 13 3 -3 4 -12 1 -19z m-124 -23 c8 -20 -9 -28 -30 -16 -17
10 -17 10 0 11 10 0 15 5 12 10 -3 6 -2 10 3 10 6 0 12 -7 15 -15z"/>
<path d="M10683 7714 c3 -4 31 -6 61 -5 30 0 57 -2 59 -7 3 -4 -19 -7 -49 -6
-31 0 -49 -3 -42 -7 7 -5 30 -6 51 -2 25 4 37 2 37 -6 0 -9 5 -9 21 0 12 6 32
9 45 6 14 -2 24 1 25 7 0 6 4 2 9 -9 8 -20 9 -20 9 1 1 19 -6 22 -76 28 -97 8
-158 8 -150 0z"/>
<path d="M10920 7691 c0 -4 11 -6 25 -3 14 2 25 6 25 8 0 2 -11 4 -25 4 -14 0
-25 -4 -25 -9z"/>
<path d="M9992 7558 l3 -113 95 0 c101 0 136 8 124 26 -3 6 -6 54 -5 105 l2
94 -111 0 -111 0 3 -112z m185 -84 c-7 -7 -169 -5 -176 2 -2 2 38 4 89 4 51 0
90 -3 87 -6z"/>
<path d="M10622 7645 c0 -16 2 -22 5 -12 2 9 2 23 0 30 -3 6 -5 -1 -5 -18z"/>
<path d="M10942 7633 c0 -21 -3 -69 -6 -108 l-5 -70 14 75 c16 88 19 140 6
140 -5 0 -9 -17 -9 -37z"/>
<path d="M9911 7604 c0 -11 3 -14 6 -6 3 7 2 16 -1 19 -3 4 -6 -2 -5 -13z"/>
<path d="M9896 7519 c-4 -23 -5 -44 -2 -46 2 -2 7 14 11 37 4 23 5 43 2 46 -2
3 -7 -14 -11 -37z"/>
<path d="M9862 7377 c-12 -48 -20 -93 -16 -99 5 -7 3 -8 -6 -3 -10 6 -12 1 -8
-18 3 -15 2 -24 -2 -22 -7 5 -32 -66 -25 -73 2 -2 7 7 10 21 7 25 11 26 78 29
70 3 72 4 75 31 2 15 -1 27 -7 27 -7 0 -12 32 -13 83 -1 70 -2 76 -8 37 l-7
-45 -1 43 c-1 26 -6 41 -12 37 -5 -3 -10 0 -10 7 0 10 -2 10 -9 -1 -7 -11 -10
-9 -13 10 -2 15 -12 -9 -26 -64z m36 -9 c-2 -5 -8 -9 -13 -9 -5 0 -11 4 -13 9
-1 5 4 9 13 9 9 0 14 -4 13 -9z m14 -40 c-6 -6 -7 0 -4 19 5 21 7 23 10 9 2
-10 0 -22 -6 -28z m6 -68 c15 -13 16 -18 6 -28 -8 -7 -15 -8 -19 -2 -3 6 -1
10 6 10 8 0 4 9 -8 23 -11 12 -23 29 -26 37 -3 9 -6 6 -7 -10 -1 -23 -2 -23
-9 -5 -9 23 -3 47 10 39 5 -3 9 1 10 8 1 7 5 -3 9 -22 5 -19 17 -42 28 -50z"/>
<path d="M10809 7432 l-97 -3 -4 -97 c-3 -60 -1 -102 6 -111 8 -10 27 -12 79
-6 44 4 73 2 81 -4 11 -9 17 7 30 76 9 49 19 100 22 114 6 33 2 35 -117 31z
m82 -149 c-8 -15 -10 -15 -11 -2 0 17 10 32 18 25 2 -3 -1 -13 -7 -23z m-111
-35 c0 -13 -23 -5 -28 10 -2 7 2 10 12 6 9 -3 16 -11 16 -16z"/>
<path d="M9973 7390 c0 -25 2 -35 4 -22 2 12 2 32 0 45 -2 12 -4 2 -4 -23z"/>
<path d="M10230 7320 l0 -111 98 3 c77 2 96 6 94 17 -2 8 0 21 4 30 5 12 9 6
14 -19 5 -23 8 5 9 78 l1 112 -110 0 -110 0 0 -110z m177 -82 c-3 -8 -6 -5 -6
6 -1 11 2 17 5 13 3 -3 4 -12 1 -19z"/>
<path d="M4670 7226 c-127 -39 -144 -45 -138 -51 6 -6 229 62 241 74 14 14 19
15 -103 -23z"/>
<path d="M9990 7108 l0 -83 82 1 83 1 -77 -4 c-59 -3 -78 -7 -82 -20 -11 -28
8 -34 110 -31 l99 3 3 108 3 107 -111 0 -110 0 0 -82z m200 -102 c0 -2 -7 -6
-15 -10 -8 -3 -15 -1 -15 4 0 6 7 10 15 10 8 0 15 -2 15 -4z"/>
<path d="M10871 7174 c0 -11 3 -14 6 -6 3 7 2 16 -1 19 -3 4 -6 -2 -5 -13z"/>
<path d="M4375 7139 c-71 -23 -132 -43 -134 -45 -9 -9 8 -16 21 -8 7 4 19 9
28 9 32 3 230 69 230 77 0 12 -1 11 -145 -33z"/>
<path d="M10861 7134 c0 -11 3 -14 6 -6 3 7 2 16 -1 19 -3 4 -6 -2 -5 -13z"/>
<path d="M10851 7094 c0 -11 3 -14 6 -6 3 7 2 16 -1 19 -3 4 -6 -2 -5 -13z"/>
<path d="M4177 7084 c-10 -10 2 -24 19 -24 9 0 12 5 8 12 -5 8 -2 9 9 5 10 -3
17 -2 17 3 0 11 -43 14 -53 4z"/>
<path d="M9771 7074 c0 -11 3 -14 6 -6 3 7 2 16 -1 19 -3 4 -6 -2 -5 -13z"/>
<path d="M4135 7061 c-3 -6 3 -9 14 -8 11 0 17 5 15 9 -7 11 -22 10 -29 -1z"/>
<path d="M4095 7050 c-4 -6 -11 -8 -16 -5 -5 4 -9 1 -9 -4 0 -6 -8 -10 -17 -8
-25 3 -383 -105 -378 -114 3 -4 -4 -5 -14 -2 -10 3 -30 -1 -42 -8 -13 -7 -30
-12 -38 -10 -7 1 -10 -2 -6 -8 3 -7 -1 -10 -12 -9 -10 0 -27 0 -38 -1 -17 -1
-18 -3 -5 -12 12 -9 11 -10 -7 -6 -13 3 -23 1 -23 -4 0 -15 14 -11 176 38 92
29 148 51 141 56 -7 4 -2 7 13 6 45 -4 62 0 54 13 -5 8 -2 9 11 5 19 -8 125
22 125 35 0 4 7 5 15 2 8 -4 15 -2 15 2 0 5 12 10 26 11 26 1 70 33 47 33 -7
0 -15 -5 -18 -10z"/>
<path d="M4870 7045 c0 -5 5 -17 10 -25 5 -8 10 -10 10 -5 0 6 -5 17 -10 25
-5 8 -10 11 -10 5z"/>
<path d="M9740 7016 c0 -6 222 -106 236 -106 1 0 2 9 1 20 -2 24 -33 36 -52
20 -12 -10 -15 -9 -15 3 0 10 -6 14 -14 11 -7 -3 -30 2 -50 10 -20 9 -52 23
-71 31 -19 8 -35 13 -35 11z"/>
<path d="M10810 6964 c0 -5 -18 -8 -41 -6 -22 3 -44 0 -49 -4 -5 -5 -10 -54
-11 -109 -3 -80 -1 -99 10 -97 10 2 12 -5 8 -28 -4 -16 -5 -30 -3 -30 9 0 66
172 61 181 -4 5 -2 9 3 9 11 0 36 79 28 88 -3 3 -6 1 -6 -4z m-10 -34 c0 -5
-4 -10 -10 -10 -5 0 -10 5 -10 10 0 6 5 10 10 10 6 0 10 -4 10 -10z m-41 -14
c9 -10 8 -16 -4 -26 -16 -13 -20 -31 -7 -29 34 6 36 -35 1 -44 -16 -4 -18 -1
-13 21 3 16 2 22 -3 15 -5 -7 -8 5 -8 33 0 45 13 56 34 30z m-11 -136 c-12
-19 -28 -27 -28 -14 0 6 30 33 38 34 1 0 -3 -9 -10 -20z"/>
<path d="M10751 6844 c0 -11 3 -14 6 -6 3 7 2 16 -1 19 -3 4 -6 -2 -5 -13z"/>
<path d="M10027 6889 c7 -7 15 -10 18 -7 3 3 -2 9 -12 12 -14 6 -15 5 -6 -5z"/>
<path d="M10110 6850 c8 -5 20 -10 25 -10 6 0 3 5 -5 10 -8 5 -19 10 -25 10
-5 0 -3 -5 5 -10z"/>
<path d="M5005 6760 c9 -16 18 -30 21 -30 2 0 -2 14 -11 30 -9 17 -18 30 -21
30 -2 0 2 -13 11 -30z"/>
<path d="M10454 6721 c0 -22 157 -94 183 -84 10 4 14 2 10 -4 -4 -5 5 -15 19
-21 21 -10 26 -9 30 6 3 9 10 25 15 34 12 24 11 37 -2 16 -12 -22 -29 -23 -29
-2 0 8 5 12 10 9 14 -9 12 8 -4 30 -12 16 -25 18 -110 16 -55 -1 -103 2 -109
8 -9 7 -13 5 -13 -8z m102 -20 c-4 -5 -1 -11 6 -13 7 -3 5 -7 -6 -11 -11 -5
-15 -3 -10 5 5 8 1 9 -12 5 -18 -7 -18 -7 0 8 23 17 30 19 22 6z m54 -1 c13
-8 13 -10 -2 -10 -9 0 -20 5 -23 10 -8 13 5 13 25 0z m32 -12 c-6 -6 -8 -17
-5 -24 3 -9 -2 -14 -13 -14 -16 0 -17 2 -4 11 11 8 6 9 -20 5 l-35 -5 33 11
c17 6 32 17 32 25 0 8 5 11 11 7 7 -4 7 -10 1 -16z m17 -32 c-9 -8 -10 -7 -5
7 3 10 7 26 7 35 1 9 4 6 6 -7 3 -13 -1 -28 -8 -35z m21 -26 c0 -5 -5 -10 -11
-10 -5 0 -7 5 -4 10 3 6 8 10 11 10 2 0 4 -4 4 -10z"/>
<path d="M5070 6650 c6 -11 13 -20 16 -20 2 0 0 9 -6 20 -6 11 -13 20 -16 20
-2 0 0 -9 6 -20z"/>
<path d="M9485 6530 c3 -5 8 -10 11 -10 2 0 4 5 4 10 0 6 -5 10 -11 10 -5 0
-7 -4 -4 -10z"/>
<path d="M9510 6521 c0 -5 13 -19 30 -31 16 -12 27 -15 25 -8 -8 17 -55 52
-55 39z"/>
<path d="M3620 6495 c0 -5 5 -17 10 -25 5 -8 10 -10 10 -5 0 6 -5 17 -10 25
-5 8 -10 11 -10 5z"/>
<path d="M5190 6470 c11 -16 26 -33 32 -36 7 -4 -1 9 -16 29 -34 44 -46 50
-16 7z"/>
<path d="M9429 6463 c-13 -16 -12 -17 4 -4 9 7 17 15 17 17 0 8 -8 3 -21 -13z"/>
<path d="M9580 6465 c0 -3 26 -22 58 -42 31 -21 68 -48 81 -60 14 -12 28 -20
33 -17 4 3 8 1 8 -4 0 -12 121 -92 139 -92 7 0 9 -5 5 -12 -4 -7 -4 -10 1 -6
4 4 13 0 20 -9 9 -13 14 -13 20 -3 5 9 4 11 -3 6 -7 -4 -12 -3 -12 3 0 9 -75
66 -92 70 -4 1 -22 15 -40 31 -18 17 -41 33 -52 36 -11 4 -28 14 -38 24 -10 9
-31 23 -46 31 -15 8 -36 22 -46 32 -19 16 -36 22 -36 12z"/>
<path d="M9399 6423 c-13 -16 -12 -17 4 -4 9 7 17 15 17 17 0 8 -8 3 -21 -13z"/>
<path d="M3651 6425 c0 -5 6 -21 14 -35 8 -14 14 -20 14 -15 0 6 -6 21 -14 35
-8 14 -14 21 -14 15z"/>
<path d="M9364 6378 l-19 -23 23 19 c21 18 27 26 19 26 -2 0 -12 -10 -23 -22z"/>
<path d="M5290 6345 c13 -14 26 -25 28 -25 3 0 -5 11 -18 25 -13 14 -26 25
-28 25 -3 0 5 -11 18 -25z"/>
<path d="M9314 6318 l-29 -33 33 29 c30 28 37 36 29 36 -2 0 -16 -15 -33 -32z"/>
<path d="M3700 6316 c0 -11 30 -66 36 -66 2 0 -3 15 -12 33 -19 36 -24 44 -24
33z"/>
<path d="M5340 6285 c13 -14 26 -25 28 -25 3 0 -5 11 -18 25 -13 14 -26 25
-28 25 -3 0 5 -11 18 -25z"/>
<path d="M9180 6173 l-105 -108 108 105 c99 97 112 110 104 110 -1 0 -50 -48
-107 -107z"/>
<path d="M5395 6230 c10 -11 20 -20 23 -20 3 0 -3 9 -13 20 -10 11 -20 20 -23
20 -3 0 3 -9 13 -20z"/>
<path d="M9957 6214 c-3 -3 7 -17 21 -30 33 -29 162 -117 162 -109 0 3 9 -4
20 -15 12 -12 25 -18 30 -15 6 4 10 0 10 -7 0 -17 158 -124 177 -120 8 2 12
-1 9 -7 -3 -5 7 -19 23 -30 31 -22 51 -27 51 -12 0 15 -29 33 -41 25 -7 -4 -9
-3 -6 3 6 10 -148 120 -175 125 -7 2 -21 13 -31 26 -11 13 -26 21 -34 18 -8
-3 -11 -2 -8 4 7 11 -34 35 -54 31 -7 -1 -10 2 -7 7 6 11 -11 29 -34 34 -8 2
-23 13 -33 26 -10 12 -23 22 -29 22 -6 0 -19 7 -28 15 -9 8 -19 12 -23 9z
m404 -281 c13 -16 12 -17 -3 -4 -10 7 -18 15 -18 17 0 8 8 3 21 -13z"/>
<path d="M5445 6170 c10 -11 20 -20 23 -20 3 0 -3 9 -13 20 -10 11 -20 20 -23
20 -3 0 3 -9 13 -20z"/>
<path d="M3820 6080 c6 -11 13 -20 16 -20 2 0 0 9 -6 20 -6 11 -13 20 -16 20
-2 0 0 -9 6 -20z"/>
<path d="M5555 6070 c10 -11 20 -20 23 -20 3 0 -3 9 -13 20 -10 11 -20 20 -23
20 -3 0 3 -9 13 -20z"/>
<path d="M9024 6028 l-29 -33 33 29 c30 28 37 36 29 36 -2 0 -16 -15 -33 -32z"/>
<path d="M3850 6030 c6 -11 13 -20 16 -20 2 0 0 9 -6 20 -6 11 -13 20 -16 20
-2 0 0 -9 6 -20z"/>
<path d="M5620 6017 c0 -3 18 -20 40 -37 22 -17 40 -29 40 -27 0 3 -18 20 -40
37 -22 17 -40 29 -40 27z"/>
<path d="M8964 5978 l-19 -23 23 19 c21 18 27 26 19 26 -2 0 -12 -10 -23 -22z"/>
<path d="M8914 5938 l-19 -23 23 19 c21 18 27 26 19 26 -2 0 -12 -10 -23 -22z"/>
<path d="M5710 5946 c0 -2 8 -10 18 -17 15 -13 16 -12 3 4 -13 16 -21 21 -21
13z"/>
<path d="M5750 5916 c0 -2 8 -10 18 -17 15 -13 16 -12 3 4 -13 16 -21 21 -21
13z"/>
<path d="M3829 5894 c-2 -5 -105 -72 -229 -149 -124 -76 -269 -165 -323 -199
-55 -33 -95 -62 -90 -63 7 -3 622 369 652 393 1 1 1 9 -1 16 -3 8 -6 9 -9 2z"/>
<path d="M8839 5883 c-13 -16 -12 -17 4 -4 9 7 17 15 17 17 0 8 -8 3 -21 -13z"/>
<path d="M10467 5856 c-4 -10 -1 -13 8 -9 8 3 12 9 9 14 -7 12 -11 11 -17 -5z"/>
<path d="M10505 5840 c6 -10 4 -12 -11 -7 -18 7 -18 6 1 -8 11 -8 25 -19 31
-24 6 -5 17 -6 23 -1 9 5 3 14 -20 31 -18 12 -29 17 -24 9z"/>
<path d="M8654 5764 c-18 -14 -18 -15 4 -4 12 6 22 13 22 15 0 8 -5 6 -26 -11z"/>
<path d="M4020 5756 c0 -2 8 -10 18 -17 15 -13 16 -12 3 4 -13 16 -21 21 -21
13z"/>
<path d="M6010 5746 c0 -3 9 -10 20 -16 11 -6 20 -8 20 -6 0 3 -9 10 -20 16
-11 6 -20 8 -20 6z"/>
<path d="M8588 5729 c-21 -11 -38 -22 -38 -24 0 -3 18 4 40 15 22 11 40 23 40
25 0 7 0 7 -42 -16z"/>
<path d="M4070 5686 c0 -2 8 -10 18 -17 15 -13 16 -12 3 4 -13 16 -21 21 -21
13z"/>
<path d="M6127 5679 c7 -7 15 -10 18 -7 3 3 -2 9 -12 12 -14 6 -15 5 -6 -5z"/>
<path d="M6270 5610 c8 -5 20 -10 25 -10 6 0 3 5 -5 10 -8 5 -19 10 -25 10 -5
0 -3 -5 5 -10z"/>
<path d="M4130 5606 c0 -2 8 -10 18 -17 15 -13 16 -12 3 4 -13 16 -21 21 -21
13z"/>
<path d="M6370 5570 c8 -5 20 -10 25 -10 6 0 3 5 -5 10 -8 5 -19 10 -25 10 -5
0 -3 -5 5 -10z"/>
<path d="M4175 5550 c10 -11 20 -20 23 -20 3 0 -3 9 -13 20 -10 11 -20 20 -23
20 -3 0 3 -9 13 -20z"/>
<path d="M4240 5470 c23 -27 44 -50 47 -50 3 0 -14 23 -37 50 -23 28 -44 50
-47 50 -3 0 14 -22 37 -50z"/>
<path d="M6568 5503 c7 -3 16 -2 19 1 4 3 -2 6 -13 5 -11 0 -14 -3 -6 -6z"/>
<path d="M7858 5453 c7 -3 16 -2 19 1 4 3 -2 6 -13 5 -11 0 -14 -3 -6 -6z"/>
<path d="M6868 5433 c7 -3 16 -2 19 1 4 3 -2 6 -13 5 -11 0 -14 -3 -6 -6z"/>
<path d="M6928 5423 c6 -2 18 -2 25 0 6 3 1 5 -13 5 -14 0 -19 -2 -12 -5z"/>
<path d="M7688 5423 c7 -3 16 -2 19 1 4 3 -2 6 -13 5 -11 0 -14 -3 -6 -6z"/>
<path d="M7003 5413 c9 -2 23 -2 30 0 6 3 -1 5 -18 5 -16 0 -22 -2 -12 -5z"/>
<path d="M7603 5413 c9 -2 23 -2 30 0 6 3 -1 5 -18 5 -16 0 -22 -2 -12 -5z"/>
<path d="M7098 5403 c6 -2 18 -2 25 0 6 3 1 5 -13 5 -14 0 -19 -2 -12 -5z"/>
<path d="M7463 5403 c15 -2 39 -2 55 0 15 2 2 4 -28 4 -30 0 -43 -2 -27 -4z"/>
<path d="M4345 5350 c21 -22 41 -40 44 -40 3 0 -13 18 -34 40 -21 22 -41 40
-44 40 -3 0 13 -18 34 -40z"/>
<path d="M4465 5220 c27 -27 51 -50 54 -50 3 0 -17 23 -44 50 -27 28 -51 50
-54 50 -3 0 17 -22 44 -50z"/>
<path d="M4615 5081 c33 -36 125 -116 125 -108 0 2 -35 35 -77 73 -43 37 -64
53 -48 35z"/>
<path d="M4760 4956 c0 -2 8 -10 18 -17 15 -13 16 -12 3 4 -13 16 -21 21 -21
13z"/>
<path d="M4820 4906 c0 -2 8 -10 18 -17 15 -13 16 -12 3 4 -13 16 -21 21 -21
13z"/>
<path d="M4860 4876 c0 -2 8 -10 18 -17 15 -13 16 -12 3 4 -13 16 -21 21 -21
13z"/>
<path d="M4904 4842 c8 -13 66 -56 66 -49 0 3 -17 17 -37 33 -20 15 -33 23
-29 16z"/>
<path d="M5140 4677 c0 -3 12 -12 26 -22 15 -9 23 -12 20 -6 -7 11 -46 35 -46
28z"/>
<path d="M5330 4556 c27 -27 358 -190 495 -244 242 -95 635 -210 682 -200 10
2 -43 19 -117 37 -345 85 -668 208 -957 364 -45 24 -90 47 -100 51 -16 6 -16
6 -3 -8z"/>
<path d="M8575 4240 c-35 -17 -36 -18 -10 -13 36 7 86 32 65 32 -8 0 -33 -8
-55 -19z"/>
<path d="M6548 4103 c7 -3 16 -2 19 1 4 3 -2 6 -13 5 -11 0 -14 -3 -6 -6z"/>
<path d="M8068 4103 c7 -3 16 -2 19 1 4 3 -2 6 -13 5 -11 0 -14 -3 -6 -6z"/>
<path d="M6598 4093 c7 -3 16 -2 19 1 4 3 -2 6 -13 5 -11 0 -14 -3 -6 -6z"/>
<path d="M8008 4093 c6 -2 18 -2 25 0 6 3 1 5 -13 5 -14 0 -19 -2 -12 -5z"/>
<path d="M6648 4083 c6 -2 18 -2 25 0 6 3 1 5 -13 5 -14 0 -19 -2 -12 -5z"/>
<path d="M7948 4083 c6 -2 18 -2 25 0 6 3 1 5 -13 5 -14 0 -19 -2 -12 -5z"/>
<path d="M6728 4073 c7 -3 16 -2 19 1 4 3 -2 6 -13 5 -11 0 -14 -3 -6 -6z"/>
<path d="M7888 4073 c6 -2 18 -2 25 0 6 3 1 5 -13 5 -14 0 -19 -2 -12 -5z"/>
<path d="M6798 4063 c7 -3 16 -2 19 1 4 3 -2 6 -13 5 -11 0 -14 -3 -6 -6z"/>
<path d="M7818 4063 c6 -2 18 -2 25 0 6 3 1 5 -13 5 -14 0 -19 -2 -12 -5z"/>
<path d="M6873 4053 c9 -2 25 -2 35 0 9 3 1 5 -18 5 -19 0 -27 -2 -17 -5z"/>
<path d="M7733 4053 c9 -2 23 -2 30 0 6 3 -1 5 -18 5 -16 0 -22 -2 -12 -5z"/>
<path d="M6978 4043 c12 -2 32 -2 45 0 12 2 2 4 -23 4 -25 0 -35 -2 -22 -4z"/>
<path d="M7633 4043 c9 -2 23 -2 30 0 6 3 -1 5 -18 5 -16 0 -22 -2 -12 -5z"/>
<path d="M7128 4033 c23 -2 59 -2 80 0 20 2 1 4 -43 4 -44 0 -61 -2 -37 -4z"/>
<path d="M7383 4034 c7 -8 128 -6 135 1 3 3 -28 5 -68 5 -40 0 -70 -3 -67 -6z"/>
<path d="M7131 1441 c-17 -30 3 -45 56 -43 63 3 144 22 138 32 -3 4 -33 11
-67 15 -35 4 -75 9 -91 10 -18 2 -30 -2 -36 -14z"/>
</g>
</svg>
