<?xml version="1.0" standalone="no"?>
<!DOCTYPE svg PUBLIC "-//W3C//DTD SVG 20010904//EN"
 "http://www.w3.org/TR/2001/REC-SVG-20010904/DTD/svg10.dtd">
<svg version="1.0" xmlns="http://www.w3.org/2000/svg"
 width="1300.000000pt" height="1300.000000pt" viewBox="0 0 1300.000000 1300.000000"
 preserveAspectRatio="xMidYMid meet">

<g transform="translate(0.000000,1300.000000) scale(0.100000,-0.100000)"
fill="#000000" stroke="none">
<path d="M4936 12000 c-61 -54 -159 -195 -230 -332 -39 -73 -98 -169 -131
-213 -34 -44 -87 -121 -118 -171 -60 -97 -190 -355 -230 -458 -13 -33 -47
-117 -75 -186 -159 -392 -256 -667 -313 -889 -21 -85 -41 -156 -44 -159 -3 -3
-3 170 -2 384 4 367 5 393 26 456 12 37 26 70 31 73 11 7 55 -134 67 -215 l8
-55 19 117 c28 178 10 319 -44 348 -63 34 -154 -126 -200 -350 -46 -226 -66
-659 -48 -1060 16 -358 16 -361 -10 -620 -11 -118 -24 -269 -28 -335 -3 -66
-8 -133 -10 -150 -7 -54 -17 -982 -11 -998 3 -8 8 -111 11 -229 8 -330 32
-677 101 -1458 17 -193 92 -903 105 -990 5 -38 8 21 9 185 2 274 14 460 35
509 8 19 26 42 41 52 56 36 119 10 176 -73 26 -37 33 -60 40 -127 5 -44 18
-163 30 -263 l22 -182 -32 -30 c-23 -21 -31 -38 -31 -63 0 -18 -14 -67 -31
-108 -29 -73 -64 -198 -56 -206 2 -2 21 21 42 51 21 31 61 76 89 102 l51 45
11 -38 c6 -22 19 -85 29 -141 l18 -102 -22 -46 c-47 -100 -115 -338 -80 -280
20 34 119 164 129 170 5 3 12 -4 15 -17 61 -276 73 -346 80 -473 13 -230 45
-476 95 -720 68 -337 201 -713 350 -988 58 -109 84 -144 36 -49 -139 276 -256
732 -256 1000 0 136 67 192 188 157 104 -31 314 -189 351 -265 100 -206 424
-756 602 -1022 194 -291 452 -613 610 -763 51 -49 52 -49 23 -10 -130 173
-373 548 -511 785 -163 283 -345 627 -326 619 4 -3 40 -20 78 -40 102 -52 184
-72 295 -73 114 -1 178 14 285 64 100 46 199 135 242 217 49 93 64 155 62 269
-3 220 -111 416 -306 556 -70 50 -187 117 -217 122 -6 2 -28 10 -48 19 -20 8
-97 34 -170 56 -73 22 -150 47 -172 56 -73 31 -184 153 -188 207 -1 13 6 48
16 78 22 67 137 305 165 340 l19 25 8 -30 c15 -61 44 -116 85 -160 168 -182
498 -188 673 -13 77 78 101 142 101 278 0 89 -5 118 -29 188 -39 116 -130 225
-197 239 -29 6 -40 22 -16 24 70 6 189 -31 252 -79 136 -104 254 -334 289
-567 15 -94 8 -222 -13 -278 -6 -16 -11 -32 -11 -37 0 -13 152 -100 175 -100
26 0 73 68 155 224 l63 120 -39 -29 c-21 -16 -62 -50 -91 -76 -54 -48 -91 -66
-98 -46 -2 7 -11 89 -20 182 -19 193 -47 352 -77 434 -53 143 -159 286 -245
329 -131 67 -351 83 -524 39 -352 -91 -644 -413 -774 -855 -66 -224 -86 -345
-91 -557 -3 -104 -7 -206 -11 -225 l-6 -35 -9 30 c-28 84 -171 459 -198 520
-26 58 -30 77 -25 115 5 35 -2 74 -30 173 -20 71 -35 131 -32 133 2 3 25 -29
50 -71 l45 -76 21 63 c12 34 21 68 21 76 0 18 -116 176 -157 215 -18 16 -30
33 -28 37 6 10 88 -6 124 -24 53 -28 71 -61 71 -134 l0 -66 69 136 c155 303
335 505 577 644 28 16 72 53 97 82 55 66 132 132 212 184 82 54 229 123 292
138 49 11 54 15 84 68 77 136 200 264 322 333 79 45 225 102 243 95 16 -6 34
-68 34 -121 l0 -40 53 87 c110 182 133 215 191 276 176 184 438 231 601 106
51 -39 49 -41 59 66 12 125 64 226 143 283 34 24 55 31 112 35 39 2 71 1 71
-4 0 -5 5 -52 11 -104 13 -126 13 -521 -1 -690 -24 -303 -78 -693 -137 -1000
-19 -102 -41 -219 -49 -260 -16 -92 -38 -189 -99 -435 -156 -630 -366 -1259
-623 -1860 -150 -352 -408 -869 -587 -1180 -77 -133 -99 -174 -78 -145 10 13
32 43 48 65 27 36 116 172 240 365 111 174 263 440 384 673 84 161 111 207 94
160 -13 -36 5 -6 64 108 141 270 325 515 445 593 78 51 178 35 245 -37 60 -65
66 -94 67 -324 1 -111 2 -201 3 -200 11 11 54 457 63 642 11 267 13 279 75
520 24 94 53 208 65 255 35 139 186 676 280 990 37 127 68 234 85 295 26 95
57 200 82 280 14 44 40 136 58 205 18 69 53 202 79 295 195 731 306 1334 357
1955 14 164 17 647 7 1005 -20 758 -14 1436 16 1765 28 315 39 579 24 598 -10
12 -10 14 0 8 29 -17 5 346 -28 422 -21 46 -43 61 -69 45 -20 -12 -30 -32 -80
-153 -38 -89 -39 -96 -23 -113 16 -18 17 -17 35 7 29 40 54 34 67 -16 13 -45
8 -139 -15 -328 -29 -239 -45 -476 -55 -799 -5 -184 -11 -335 -13 -337 -2 -2
-14 38 -27 89 -31 123 -164 520 -229 682 -113 283 -268 567 -431 787 -112 151
-327 360 -470 458 -19 13 -74 61 -122 106 -142 134 -269 196 -308 149 -12 -15
-10 -33 18 -143 22 -88 36 -182 47 -306 17 -190 31 -244 73 -276 40 -32 53
-25 30 18 -21 42 -18 84 10 115 22 26 79 49 100 43 19 -7 50 -62 83 -151 12
-33 45 -114 72 -180 50 -119 117 -308 163 -460 72 -234 102 -443 111 -776 6
-205 -10 -565 -25 -581 -4 -3 -45 2 -92 13 -169 38 -400 33 -575 -12 -74 -20
-235 -91 -228 -102 3 -6 1 -7 -6 -3 -6 4 -52 -13 -102 -39 -203 -102 -361
-235 -592 -498 -216 -247 -288 -356 -336 -512 -22 -69 -29 -164 -16 -205 5
-17 10 -19 21 -9 19 15 44 102 38 131 -5 22 -5 22 10 4 24 -30 30 -82 17 -155
-18 -102 -48 -208 -53 -191 -3 8 -12 38 -21 65 -29 93 -66 180 -66 158 -1 -33
-16 -28 -40 12 -17 30 -26 35 -56 35 -42 0 -98 -33 -142 -83 -46 -53 -117
-187 -105 -199 17 -17 52 9 52 40 0 82 63 176 126 188 37 7 99 -19 147 -61 37
-33 77 -141 77 -210 0 -43 -8 -69 -40 -131 -49 -95 -60 -156 -60 -335 0 -75
-3 -184 -7 -243 -6 -105 -6 -106 -26 -89 -48 44 -52 65 -51 288 0 231 10 311
56 455 33 104 34 169 4 214 -31 48 -89 28 -125 -41 -7 -13 -11 -83 -11 -183 0
-119 -6 -194 -21 -283 -36 -207 -20 -334 61 -497 68 -135 108 -335 78 -389
-19 -35 -36 -37 -48 -5 l-11 27 -99 -6 c-119 -6 -130 -1 -180 95 -18 35 -50
81 -71 103 -42 44 -43 47 -33 170 15 188 -81 432 -203 515 -77 52 -93 88 -103
228 -12 164 -8 158 -169 327 -255 268 -571 435 -833 439 -115 2 -57 17 88 23
150 6 210 -2 380 -53 45 -13 87 -24 92 -24 6 0 -5 28 -25 63 -20 34 -47 81
-60 105 -14 23 -22 42 -20 42 6 0 121 -126 302 -329 95 -107 185 -192 185
-174 -1 25 -316 380 -490 551 l-105 103 89 -46 c123 -63 202 -122 263 -196 87
-108 95 -117 84 -93 -29 60 -260 290 -355 353 -115 77 -193 135 -261 195 -44
39 -106 91 -137 116 -32 24 -55 46 -53 48 7 8 227 -100 337 -165 202 -119 413
-300 618 -531 40 -45 74 -81 76 -79 7 6 -38 303 -66 439 -37 178 -115 422
-161 501 -6 11 -8 21 -6 23 7 7 73 -125 91 -183 19 -58 75 -146 136 -213 l41
-45 -21 53 c-57 149 -188 362 -272 446 -10 9 -34 47 -55 84 -42 77 -94 149
-170 239 -29 35 -52 63 -50 63 2 0 44 -23 93 -51 166 -96 313 -226 433 -385
28 -37 51 -71 51 -76 0 -5 5 -6 12 -2 7 4 8 3 4 -4 -4 -6 5 -31 20 -54 15 -24
43 -77 63 -118 l35 -75 7 90 c10 135 10 464 -1 601 -12 150 -30 239 -80 396
-21 67 -38 124 -36 125 6 6 107 -216 147 -323 58 -154 85 -248 115 -398 26
-137 49 -401 42 -498 -2 -32 -3 -58 -1 -58 6 0 56 106 73 154 10 28 38 101 64
163 42 103 116 361 116 406 0 11 3 18 6 15 9 -10 -25 -230 -58 -377 -28 -129
-100 -350 -271 -841 -41 -118 -90 -264 -107 -325 -17 -60 -45 -135 -61 -167
-45 -89 -63 -171 -50 -224 15 -59 14 -107 -4 -130 -23 -31 -18 -44 43 -104
100 -98 172 -192 207 -270 43 -95 74 -214 82 -307 6 -70 5 -73 -16 -73 -39 0
-31 -43 17 -93 20 -21 48 -61 62 -90 30 -62 62 -75 81 -33 19 41 -4 100 -63
163 l-51 53 -2 108 c-2 89 -8 127 -39 231 -43 148 -46 232 -16 359 27 111 26
125 -16 239 -33 90 -35 104 -30 178 23 349 40 428 157 710 61 148 101 277 124
397 14 71 14 68 11 -122 -2 -138 -8 -211 -19 -250 l-15 -55 21 27 c12 15 35
65 51 110 16 46 57 151 92 233 77 184 134 349 168 486 58 235 72 515 36 721
-28 164 -51 232 -30 88 24 -155 7 -386 -39 -540 -22 -76 -89 -261 -96 -268 -3
-3 -5 24 -5 61 0 275 -157 920 -288 1182 -44 89 -121 209 -129 201 -2 -2 10
-32 27 -65 66 -132 133 -372 186 -671 29 -157 35 -215 32 -297 -3 -89 -1 -100
12 -90 11 9 11 6 -1 -8 -9 -11 -20 -40 -24 -65 -21 -134 -61 -306 -97 -416
-22 -69 -42 -124 -44 -122 -1 2 -12 46 -23 99 -18 88 -127 431 -166 524 -47
113 -124 269 -171 346 -28 48 -55 97 -59 110 -17 55 -87 178 -132 233 -49 61
-145 134 -201 154 -44 15 -40 9 11 -21 59 -35 155 -130 199 -197 123 -187 181
-431 173 -735 -2 -66 -3 -169 -4 -229 l-1 -110 -32 45 c-99 135 -316 304 -524
407 -222 110 -442 222 -484 248 l-45 27 65 -67 c36 -37 101 -94 146 -127 47
-35 100 -86 127 -122 223 -299 379 -581 454 -822 35 -114 40 -134 67 -285 14
-74 28 -144 32 -155 4 -11 -35 25 -87 79 -160 169 -383 349 -514 417 -53 28
-67 41 -93 88 -45 84 -142 406 -181 601 -19 92 -41 387 -41 535 0 442 85 826
263 1195 60 124 154 280 194 320 l24 25 39 -43 c46 -52 71 -100 85 -172 l12
-55 7 80 c17 199 -51 554 -106 555 -4 0 -23 -14 -42 -30z m3563 -965 c96 -127
120 -165 189 -295 122 -231 207 -483 291 -861 26 -116 141 -799 198 -1174 21
-140 21 -264 -2 -600 -28 -406 -102 -986 -171 -1330 -159 -802 -354 -1479
-616 -2143 -25 -61 -48 -115 -52 -119 -4 -4 -3 5 3 20 6 14 22 71 37 124 14
54 32 118 39 143 203 725 304 1328 321 1909 7 227 -5 490 -32 691 -14 110 -51
331 -60 358 -6 19 -88 -45 -179 -141 -155 -163 -215 -240 -261 -333 -55 -111
-95 -161 -148 -185 -55 -25 -132 -24 -173 1 l-33 20 -87 -31 c-93 -33 -261
-121 -328 -172 -139 -107 -250 -228 -377 -407 -48 -69 -96 -116 -247 -245 -52
-44 -102 -87 -111 -95 -73 -67 -74 -69 14 65 72 111 246 392 246 398 0 3 26
49 58 104 51 85 121 217 265 495 19 37 30 65 23 61 -6 -3 -3 2 6 13 10 11 56
98 103 194 47 95 87 175 88 176 2 2 30 -8 63 -21 99 -41 183 -31 275 31 40 26
54 32 60 22 5 -7 9 -16 9 -20 0 -10 53 -24 80 -20 38 6 193 171 289 307 93
135 218 380 275 545 100 283 146 570 146 904 0 438 -82 896 -257 1431 -60 185
-131 374 -144 390 -5 5 -9 14 -9 20 0 16 135 -132 209 -230z m-4024 84 c-36
-100 -79 -264 -110 -414 -58 -280 -64 -308 -84 -425 -11 -63 -29 -164 -40
-225 -56 -315 -72 -743 -38 -995 9 -63 18 -164 22 -225 8 -136 48 -438 79
-600 l24 -122 -28 -84 c-72 -213 -138 -641 -192 -1243 -7 -76 -13 -134 -15
-130 -1 5 -18 122 -37 259 -44 315 -105 725 -150 1010 -95 599 -118 1012 -77
1345 48 385 175 876 314 1210 19 47 47 114 62 150 59 143 271 547 281 537 2
-2 -3 -24 -11 -48z m4856 -76 c13 -16 12 -17 -3 -4 -10 7 -18 15 -18 17 0 8 8
3 21 -13z m-3376 -403 c10 -11 16 -20 13 -20 -3 0 -13 9 -23 20 -10 11 -16 20
-13 20 3 0 13 -9 23 -20z m2293 -1359 c23 -5 46 -11 49 -15 3 -3 -6 -74 -22
-158 -47 -263 -139 -506 -265 -695 -58 -88 -70 -90 -70 -15 0 83 -56 214 -154
362 -31 47 -52 86 -46 88 14 5 88 -34 119 -61 13 -12 37 -40 54 -62 43 -58 27
-9 -26 80 -53 89 -146 161 -256 199 -42 14 -85 26 -97 26 -46 0 -37 16 46 82
118 94 319 155 520 159 l75 2 -83 7 c-45 4 -86 11 -90 15 -8 9 182 -2 246 -14z
m-315 2 c-13 -2 -35 -2 -50 0 -16 2 -5 4 22 4 28 0 40 -2 28 -4z m1307 -77 c0
-2 -8 -10 -17 -17 -16 -13 -17 -12 -4 4 13 16 21 21 21 13z m-1934 -594 c77
-40 116 -143 94 -248 -27 -131 -103 -262 -255 -440 -119 -141 -184 -223 -375
-479 -107 -143 -220 -287 -251 -320 -50 -53 -155 -190 -185 -241 -7 -10 -14
-17 -17 -14 -11 10 -37 219 -37 291 0 177 45 344 126 469 34 53 35 54 30 21
-4 -19 -5 -33 -2 -30 2 2 38 72 81 154 145 279 249 430 391 565 50 47 120 105
157 129 37 25 65 46 64 47 -5 6 -146 -34 -219 -61 -77 -30 -199 -89 -258 -126
l-35 -23 35 38 c122 132 315 244 495 290 38 9 123 -2 161 -22z m-2919 -298
c-3 -3 -12 -4 -19 -1 -8 3 -5 6 6 6 11 1 17 -2 13 -5z m1243 -650 c0 -49 -2
-55 -15 -44 -17 14 -20 53 -5 81 17 30 20 23 20 -37z m106 1 c10 -25 -5 -63
-27 -70 -42 -14 -59 32 -27 73 14 17 47 15 54 -3z m78 -57 c3 -13 6 -36 6 -51
0 -32 -27 -97 -41 -97 -10 0 -12 130 -3 154 9 23 31 19 38 -6z m3357 -165 c13
-16 12 -17 -3 -4 -10 7 -18 15 -18 17 0 8 8 3 21 -13z m-4677 -127 c33 -43
140 -158 238 -255 98 -96 178 -179 178 -182 0 -16 -48 -17 -133 -3 -139 22
-225 7 -244 -44 -4 -9 -15 -28 -24 -42 -10 -14 -23 -54 -29 -90 -13 -87 -12
-103 6 -55 20 54 61 96 89 89 13 -3 31 3 48 16 41 32 156 53 270 47 l98 -4 54
-53 c30 -30 53 -55 51 -58 -8 -7 -127 20 -171 39 -78 34 -126 7 -180 -101 -35
-70 -67 -101 -142 -139 -64 -32 -67 -43 -53 -195 6 -72 15 -147 20 -166 l8
-35 1 43 c1 59 30 182 49 212 8 14 44 59 79 100 63 76 120 123 145 119 41 -5
71 4 93 27 23 24 30 26 78 21 29 -3 84 -15 122 -27 63 -19 75 -27 117 -80 l48
-58 -31 -6 c-60 -12 -101 -6 -169 24 -80 35 -104 37 -148 10 -42 -26 -49 -48
-51 -143 -1 -89 -15 -135 -59 -198 -46 -68 -49 -92 -17 -139 15 -22 46 -48 70
-60 60 -29 71 -45 94 -138 20 -81 55 -146 100 -187 19 -16 17 -10 -10 40 -29
56 -31 65 -25 130 4 39 9 85 12 102 5 28 1 38 -29 68 -28 28 -43 35 -73 35
-58 0 -72 19 -63 85 14 103 79 216 150 261 48 30 88 32 226 9 57 -9 107 -14
112 -11 9 6 125 -136 278 -341 l91 -121 -36 -43 c-78 -91 -232 -305 -227 -316
2 -7 -1 -15 -7 -19 -7 -5 -8 -2 -3 7 20 35 -17 -12 -67 -87 -200 -295 -342
-642 -401 -982 l-12 -72 -74 94 c-78 101 -110 122 -163 112 -72 -14 -70 -15
-90 49 -10 33 -43 159 -72 280 -166 676 -238 1183 -240 1695 -1 285 11 797 20
835 l7 29 16 -24 c9 -14 43 -60 75 -104z m4756 49 c13 -14 21 -25 18 -25 -2 0
-15 11 -28 25 -13 14 -21 25 -18 25 2 0 15 -11 28 -25z m-2815 -565 l34 0 -32
-50 c-25 -39 -34 -47 -42 -35 -8 12 -14 11 -40 -5 -16 -10 -51 -21 -76 -25
l-46 -7 -6 34 c-3 18 -8 41 -12 51 -6 15 0 17 48 17 72 0 118 10 110 23 -4 7
0 8 11 4 10 -4 33 -7 51 -7z m-105 -145 c19 -23 14 -70 -10 -109 -37 -62 -50
-55 -50 27 0 71 10 97 36 97 6 0 17 -7 24 -15z m50 -10 c13 -14 21 -25 18 -25
-2 0 -15 11 -28 25 -13 14 -21 25 -18 25 2 0 15 -11 28 -25z m-790 -1069 c0
-2 -8 -10 -17 -17 -16 -13 -17 -12 -4 4 13 16 21 21 21 13z m529 -1084 c20
-16 49 -56 65 -88 26 -50 30 -71 30 -139 1 -66 -3 -89 -24 -130 -45 -90 -139
-117 -238 -66 -78 40 -123 119 -130 229 l-5 74 38 31 c132 110 159 127 194
122 19 -2 50 -17 70 -33z m-88 -1219 c13 -16 12 -17 -3 -4 -10 7 -18 15 -18
17 0 8 8 3 21 -13z m-633 -181 c56 -52 238 -114 442 -152 129 -24 181 -44 240
-91 140 -113 119 -284 -45 -364 -49 -24 -63 -27 -137 -23 -91 4 -164 29 -265
89 -73 44 -200 163 -217 203 -27 66 -76 297 -76 360 l0 29 22 -19 c12 -10 29
-25 36 -32z"/>
<path d="M9165 11161 c-3 -16 -2 -38 3 -47 8 -14 11 -11 21 17 9 27 9 36 -3
47 -12 12 -15 10 -21 -17z"/>
<path d="M3931 10144 c0 -11 3 -14 6 -6 3 7 2 16 -1 19 -3 4 -6 -2 -5 -13z"/>
<path d="M7429 10096 c-86 -30 -153 -67 -225 -125 -32 -26 -88 -60 -124 -75
-110 -46 -237 -137 -223 -159 3 -6 1 -7 -5 -3 -31 19 -354 -365 -416 -494 -9
-19 -11 -27 -4 -16 112 163 304 378 449 501 86 73 90 76 52 30 -40 -47 -41
-50 -25 -70 17 -20 17 -20 -4 -2 -22 18 -22 18 -47 -15 -44 -59 -119 -191
-162 -283 -103 -219 -172 -348 -267 -494 -144 -222 -186 -299 -207 -383 -21
-81 -52 -165 -78 -206 -9 -15 -45 -70 -78 -122 -72 -110 -131 -222 -140 -265
-6 -23 3 -14 36 37 24 37 69 100 100 140 35 45 97 153 162 283 123 244 203
364 355 529 124 134 170 205 231 356 59 144 75 171 46 76 -8 -27 -13 -51 -11
-53 2 -2 19 14 38 37 24 27 47 75 72 147 60 175 129 284 270 426 81 82 152
137 266 206 45 27 22 26 -61 -3z"/>
<path d="M8030 9919 c0 -37 -64 -145 -117 -198 -87 -86 -166 -134 -379 -232
-207 -95 -289 -140 -277 -154 5 -4 3 -5 -4 -1 -24 14 -286 -212 -388 -335
l-20 -24 20 16 c80 64 418 249 455 249 5 0 10 4 10 8 0 5 6 9 13 10 6 0 68 18
136 40 103 33 135 48 195 93 39 30 91 75 117 100 61 63 163 205 199 277 31 64
56 149 46 159 -3 4 -6 0 -6 -8z"/>
<path d="M7210 9458 c-43 -12 -59 -25 -39 -33 8 -3 46 6 84 20 67 23 68 25 30
24 -22 0 -56 -5 -75 -11z"/>
<path d="M7092 9410 c-51 -30 -126 -101 -160 -152 -118 -177 -164 -244 -210
-303 l-55 -70 71 69 c38 38 85 95 104 128 77 137 191 259 290 309 33 17 37 23
28 35 -7 8 -13 14 -14 14 0 0 -25 -14 -54 -30z"/>
<path d="M6364 3780 c-18 -7 -11 -17 74 -106 150 -157 287 -346 371 -512 29
-57 34 -62 49 -50 15 12 16 11 4 -4 -12 -15 -8 -33 34 -135 53 -132 85 -238
118 -398 31 -147 40 -112 33 128 -4 162 -8 195 -36 299 -17 65 -37 133 -45
153 -8 19 -15 38 -15 40 -1 10 -52 107 -89 168 -21 34 -43 74 -51 89 -22 42
-119 168 -175 226 -84 87 -201 131 -272 102z"/>
</g>
</svg>
